<?xml version="1.0" encoding="UTF-8"?>
<svg width="17px" height="17px" viewBox="0 0 17 17" version="1.1" xmlns="http://www.w3.org/2000/svg" xmlns:xlink="http://www.w3.org/1999/xlink">
    <!-- Generator: sketchtool 61.2 (101010) - https://sketch.com -->
    <title>C1DB97E5-2D9A-497E-A154-6646994CACB6</title>
    <desc>Created with sketchtool.</desc>
    <g id="Page-1" stroke="none" stroke-width="1" fill="none" fill-rule="evenodd">
        <g id="1-(4)-5" transform="translate(-438.000000, -479.000000)" fill-rule="nonzero">
            <g id="Group-2" transform="translate(150.000000, 118.000000)">
                <g id="Group-292" transform="translate(0.000000, 47.000000)">
                    <g id="Group-28" transform="translate(0.000000, 32.000000)">
                        <g id="Group-6">
                            <g id="Group-4" transform="translate(0.000000, 256.000000)">
                                <g id="correct-(3)" transform="translate(288.000000, 26.000000)">
                                    <path d="M8.17152024,0 C3.66556325,0 0,3.66556325 0,8.17152024 C0,12.6774772 3.66556325,16.3430405 8.17152024,16.3430405 C12.6774772,16.3430405 16.3430405,12.6774772 16.3430405,8.17152024 C16.3430405,3.66556325 12.6774772,0 8.17152024,0 Z" id="Path" fill="#80D6A5"></path>
                                    <path d="M12.3131404,6.43986019 L7.88685866,10.8660172 C7.75406647,10.9988094 7.57975336,11.0656419 7.40544021,11.0656419 C7.23112707,11.0656419 7.05681395,10.9988094 6.92402177,10.8660172 L4.71094328,8.65293868 C4.44461077,8.38673088 4.44461077,7.95630959 4.71094328,7.69010179 C4.97715107,7.42376929 5.40744766,7.42376929 5.67378016,7.69010179 L7.40544021,9.42176184 L11.3503035,5.4770233 C11.6165113,5.21069079 12.0468078,5.21069079 12.3131404,5.4770233 C12.5793482,5.7432311 12.5793482,6.17352768 12.3131404,6.43986019 Z" id="Path" fill="#FAFAFA"></path>
                                </g>
                            </g>
                        </g>
                    </g>
                </g>
            </g>
        </g>
    </g>
</svg>