<?xml version="1.0" encoding="UTF-8"?>
<svg width="1430px" height="168px" viewBox="0 0 1430 168" version="1.1" xmlns="http://www.w3.org/2000/svg" xmlns:xlink="http://www.w3.org/1999/xlink">
    <!-- Generator: sketchtool 61.2 (101010) - https://sketch.com -->
    <title>A30A700C-BA4D-422B-83AF-BBC46FEDF4DC</title>
    <desc>Created with sketchtool.</desc>
    <defs>
        <polygon id="path-1" points="0.102599994 1.55159991 9.59699943 0.118799993 6.39239962 15.979199"></polygon>
        <polygon id="path-3" points="0.103799994 16.489199 10.2023994 0.0941999944 21.6689987 17.055599"></polygon>
        <polygon id="path-5" points="0.00599999964 15.8741991 15.1379991 0.140399992 24.3791985 20.4281988"></polygon>
        <polygon id="path-7" points="4.41539974 7.98179952 0.0281999983 3.61799978 7.08059958 0.456599973"></polygon>
        <polygon id="path-9" points="0.567599966 0.460199973 7.35719956 2.04359988 2.47139985 9.25079945"></polygon>
        <polygon id="path-11" points="0.387599977 8.82899947 18.8219989 0.512399969 5.0153997 18.9053989"></polygon>
        <polygon id="path-13" points="6.6605996 0.347999979 23.0177986 12.2411993 0.200999988 9.36059944"></polygon>
        <polygon id="path-15" points="0.179399989 5.58179967 14.0903992 0.275999984 13.8917992 15.4799991"></polygon>
        <polygon id="path-17" points="0.318599981 5.0309997 12.5729993 0.307799982 11.7863993 14.2499992"></polygon>
        <polygon id="path-19" points="0.524399969 4.83779971 12.7787992 0.115199993 11.9915993 14.0567992"></polygon>
        <path d="M21.3659987,0.230999986 C19.7951988,0.286799983 18.1871989,0.436799974 16.674599,0.827399951 L16.674599,0.827399951 C13.9241992,1.53719991 11.8769993,3.65039978 10.3565994,6.28799963 L10.3565994,6.28799963 C8.88419947,8.84159947 8.12879952,11.8157993 8.3129995,15.0509991 L8.3129995,15.0509991 C8.4467995,17.404799 8.95019947,19.7399988 9.55439943,22.0493987 L9.55439943,22.0493987 C9.66899942,22.9283986 10.5449994,26.1533984 10.6523994,26.0333984 L10.6523994,26.0333984 C10.6721994,26.1035984 10.6913994,26.1749984 10.7111994,26.2451984 L10.7111994,26.2451984 C11.4875993,29.0603983 12.4499993,31.6355981 14.3117991,33.804598 L14.3117991,33.804598 C16.214399,36.0209979 18.5387989,38.2109977 20.7473988,39.9731976 L20.7473988,39.9731976 C22.8575986,41.6567975 24.9209985,43.2767974 26.4689984,45.7145973 L26.4689984,45.7145973 C26.3585984,46.6997972 26.1173984,47.6573972 25.7741985,48.5369971 L25.7741985,48.5369971 C23.7059986,53.8361968 18.9047989,56.5397966 14.9777991,59.5685964 L14.9777991,59.5685964 C10.8875994,62.7221963 7.04099958,66.430796 4.21619975,71.1551958 L4.21619975,71.1551958 C1.36619992,75.9215955 0.0311999981,81.7505951 0.289199983,87.8573948 L0.289199983,87.8573948 C0.386999977,90.1571946 0.890999947,92.4053945 1.47119991,94.6397944 L1.47119991,94.6397944 C1.29239992,94.5545944 2.50199985,98.9921941 2.68379984,99.1991941 L2.68379984,99.1991941 C3.2765998,101.366394 3.94979976,103.510194 5.0207997,105.472794 L5.0207997,105.472794 C8.18399951,111.269393 12.9731992,115.763993 16.745999,121.002593 L16.745999,121.002593 C17.464799,122.000393 18.1025989,123.041393 18.6809989,124.118993 L18.6809989,124.118993 C19.3673988,125.204993 19.9907988,126.331192 20.5511988,127.438192 L20.5511988,127.438192 C20.6381988,127.610392 20.7227988,127.784992 20.8085988,127.958992 L20.8085988,127.958992 C20.2271988,125.774993 19.5869988,123.604793 18.8009989,121.507193 L18.8009989,121.507193 C16.103399,114.305993 10.9733993,109.273193 6.55739961,103.448994 L6.55739961,103.448994 C4.9571997,101.337594 3.4115998,99.1661941 2.31599986,96.6845942 L2.31599986,96.6845942 C2.26619986,96.2717943 2.22479987,95.8577943 2.19719987,95.4449943 L2.19719987,95.4449943 C2.10119987,93.9941944 2.17019987,92.5565945 2.27099986,91.1303946 L2.27099986,91.1303946 C2.69999984,84.9875949 4.61639972,79.9409952 7.93019953,75.4643955 L7.93019953,75.4643955 C11.1461993,71.1203958 15.1847991,67.732796 19.3829988,64.7615961 L19.3829988,64.7615961 C23.2145986,62.0507963 27.9695983,58.1483965 28.3883983,52.3025969 L28.3883983,52.3025969 C28.4843983,50.962197 28.2791983,49.546197 27.9485983,48.1319971 L27.9485983,48.1319971 C27.7871983,46.8869972 26.7809984,43.0781974 26.5493984,43.2821974 L26.5493984,43.2821974 C26.5097984,43.1507974 26.4701984,43.0181974 26.4335984,42.8879974 L26.4335984,42.8879974 C25.6661985,40.2053976 24.3437985,38.0105977 22.5425987,36.0635979 L22.5425987,36.0635979 C21.4697987,34.9043979 20.2997988,34.020598 19.0937989,33.087598 L19.0937989,33.087598 C17.9903989,32.2337981 16.999199,31.1933981 15.965399,30.2255982 L15.965399,30.2255982 C13.8491992,28.2455983 11.6501993,26.3333984 10.3133994,23.5091986 L10.3133994,23.5091986 C10.2911994,23.3231986 10.2701994,23.1371986 10.2533994,22.9499986 L10.2533994,22.9499986 C10.1333994,21.6065987 10.1027994,20.2601988 10.2833994,18.9545989 L10.2833994,18.9545989 C10.6613994,16.224599 11.7893993,13.7573992 13.2851992,11.7461993 L13.2851992,11.7461993 C15.0335991,9.39359944 17.095799,8.06639952 19.8209988,7.62359955 L19.8209988,7.62359955 C21.2075987,7.39919956 22.6319987,7.26839957 24.0497986,7.27259957 L24.0497986,7.27259957 C24.3257986,7.27379957 24.5945985,7.25879957 24.8573985,7.24439957 L24.8573985,7.24439957 C25.7741985,7.19399957 26.6303984,7.14299957 27.5471984,7.74359954 L27.5471984,7.74359954 C27.4589984,7.68539954 27.3317984,6.85979959 27.2933984,6.7043996 L27.2933984,6.7043996 C27.0797984,5.87099965 26.8589984,5.0387997 26.6369984,4.20779975 L26.6369984,4.20779975 C26.4953984,3.67319978 26.0735984,0.951599943 25.6691985,0.686999959 L25.6691985,0.686999959 C24.9725985,0.230399986 24.2021986,0.114599993 23.4251986,0.114599993 L23.4251986,0.114599993 C22.7285986,0.114599993 22.0259987,0.207599988 21.3659987,0.230999986" id="path-21"></path>
        <polygon id="path-23" points="0.383999977 4.26539975 6.92939959 18.5165989 20.7491988 0.106199994"></polygon>
        <polygon id="path-25" points="0.413399975 12.8717992 20.6243988 17.6699989 10.4813994 0.307199982"></polygon>
        <polygon id="path-27" points="0.103799994 16.489199 10.2023994 0.0941999944 21.6689987 17.055599"></polygon>
        <polygon id="path-29" points="0.00599999964 15.8741991 15.1379991 0.140399992 24.3791985 20.4281988"></polygon>
        <polygon id="path-31" points="4.41539974 7.98179952 0.0281999983 3.61799978 7.08059958 0.456599973"></polygon>
        <polygon id="path-33" points="0.567599966 0.460199973 7.35719956 2.04359988 2.47139985 9.25079945"></polygon>
        <polygon id="path-35" points="0.387599977 8.82899947 18.8219989 0.512399969 5.0153997 18.9053989"></polygon>
        <polygon id="path-37" points="6.6605996 0.347999979 23.0177986 12.2411993 0.200999988 9.36059944"></polygon>
        <polygon id="path-39" points="0.179399989 5.58179967 14.0903992 0.275999984 13.8917992 15.4799991"></polygon>
        <polygon id="path-41" points="0.318599981 5.0309997 12.5729993 0.307799982 11.7863993 14.2499992"></polygon>
        <polygon id="path-43" points="0.524399969 4.83779971 12.7787992 0.115199993 11.9915993 14.0567992"></polygon>
        <path d="M21.3659987,0.230999986 C19.7951988,0.286799983 18.1871989,0.436799974 16.674599,0.827399951 L16.674599,0.827399951 C13.9241992,1.53719991 11.8769993,3.65039978 10.3565994,6.28799963 L10.3565994,6.28799963 C8.88419947,8.84159947 8.12879952,11.8157993 8.3129995,15.0509991 L8.3129995,15.0509991 C8.4467995,17.404799 8.95019947,19.7399988 9.55439943,22.0493987 L9.55439943,22.0493987 C9.66899942,22.9283986 10.5449994,26.1533984 10.6523994,26.0333984 L10.6523994,26.0333984 C10.6721994,26.1035984 10.6913994,26.1749984 10.7111994,26.2451984 L10.7111994,26.2451984 C11.4875993,29.0603983 12.4499993,31.6355981 14.3117991,33.804598 L14.3117991,33.804598 C16.214399,36.0209979 18.5387989,38.2109977 20.7473988,39.9731976 L20.7473988,39.9731976 C22.8575986,41.6567975 24.9209985,43.2767974 26.4689984,45.7145973 L26.4689984,45.7145973 C26.3585984,46.6997972 26.1173984,47.6573972 25.7741985,48.5369971 L25.7741985,48.5369971 C23.7059986,53.8361968 18.9047989,56.5397966 14.9777991,59.5685964 L14.9777991,59.5685964 C10.8875994,62.7221963 7.04099958,66.430796 4.21619975,71.1551958 L4.21619975,71.1551958 C1.36619992,75.9215955 0.0311999981,81.7505951 0.289199983,87.8573948 L0.289199983,87.8573948 C0.386999977,90.1571946 0.890999947,92.4053945 1.47119991,94.6397944 L1.47119991,94.6397944 C1.29239992,94.5545944 2.50199985,98.9921941 2.68379984,99.1991941 L2.68379984,99.1991941 C3.2765998,101.366394 3.94979976,103.510194 5.0207997,105.472794 L5.0207997,105.472794 C8.18399951,111.269393 12.9731992,115.763993 16.745999,121.002593 L16.745999,121.002593 C17.464799,122.000393 18.1025989,123.041393 18.6809989,124.118993 L18.6809989,124.118993 C19.3673988,125.204993 19.9907988,126.331192 20.5511988,127.438192 L20.5511988,127.438192 C20.6381988,127.610392 20.7227988,127.784992 20.8085988,127.958992 L20.8085988,127.958992 C20.2271988,125.774993 19.5869988,123.604793 18.8009989,121.507193 L18.8009989,121.507193 C16.103399,114.305993 10.9733993,109.273193 6.55739961,103.448994 L6.55739961,103.448994 C4.9571997,101.337594 3.4115998,99.1661941 2.31599986,96.6845942 L2.31599986,96.6845942 C2.26619986,96.2717943 2.22479987,95.8577943 2.19719987,95.4449943 L2.19719987,95.4449943 C2.10119987,93.9941944 2.17019987,92.5565945 2.27099986,91.1303946 L2.27099986,91.1303946 C2.69999984,84.9875949 4.61639972,79.9409952 7.93019953,75.4643955 L7.93019953,75.4643955 C11.1461993,71.1203958 15.1847991,67.732796 19.3829988,64.7615961 L19.3829988,64.7615961 C23.2145986,62.0507963 27.9695983,58.1483965 28.3883983,52.3025969 L28.3883983,52.3025969 C28.4843983,50.962197 28.2791983,49.546197 27.9485983,48.1319971 L27.9485983,48.1319971 C27.7871983,46.8869972 26.7809984,43.0781974 26.5493984,43.2821974 L26.5493984,43.2821974 C26.5097984,43.1507974 26.4701984,43.0181974 26.4335984,42.8879974 L26.4335984,42.8879974 C25.6661985,40.2053976 24.3437985,38.0105977 22.5425987,36.0635979 L22.5425987,36.0635979 C21.4697987,34.9043979 20.2997988,34.020598 19.0937989,33.087598 L19.0937989,33.087598 C17.9903989,32.2337981 16.999199,31.1933981 15.965399,30.2255982 L15.965399,30.2255982 C13.8491992,28.2455983 11.6501993,26.3333984 10.3133994,23.5091986 L10.3133994,23.5091986 C10.2911994,23.3231986 10.2701994,23.1371986 10.2533994,22.9499986 L10.2533994,22.9499986 C10.1333994,21.6065987 10.1027994,20.2601988 10.2833994,18.9545989 L10.2833994,18.9545989 C10.6613994,16.224599 11.7893993,13.7573992 13.2851992,11.7461993 L13.2851992,11.7461993 C15.0335991,9.39359944 17.095799,8.06639952 19.8209988,7.62359955 L19.8209988,7.62359955 C21.2075987,7.39919956 22.6319987,7.26839957 24.0497986,7.27259957 L24.0497986,7.27259957 C24.3257986,7.27379957 24.5945985,7.25879957 24.8573985,7.24439957 L24.8573985,7.24439957 C25.7741985,7.19399957 26.6303984,7.14299957 27.5471984,7.74359954 L27.5471984,7.74359954 C27.4589984,7.68539954 27.3317984,6.85979959 27.2933984,6.7043996 L27.2933984,6.7043996 C27.0797984,5.87099965 26.8589984,5.0387997 26.6369984,4.20779975 L26.6369984,4.20779975 C26.4953984,3.67319978 26.0735984,0.951599943 25.6691985,0.686999959 L25.6691985,0.686999959 C24.9725985,0.230399986 24.2021986,0.114599993 23.4251986,0.114599993 L23.4251986,0.114599993 C22.7285986,0.114599993 22.0259987,0.207599988 21.3659987,0.230999986" id="path-45"></path>
        <polygon id="path-47" points="0.383999977 4.26539975 6.92939959 18.5165989 20.7491988 0.106199994"></polygon>
        <polygon id="path-49" points="0.413399975 12.8717992 20.6243988 17.6699989 10.4813994 0.307199982"></polygon>
        <polygon id="path-51" points="1.91759989 18.5873989 0.372599978 0.146999991 35.0093979 2.54639985"></polygon>
        <polygon id="path-53" points="0.178199989 5.89499965 3.24059981 0.16019999 8.55479949 6.29699962"></polygon>
        <polygon id="path-55" points="11.3369993 19.6373988 0.0719999957 8.4317995 18.1793989 0.314399981"></polygon>
        <polygon id="path-57" points="0.050999997 13.2509992 5.12279969 0.118799993 22.9949986 15.7205991"></polygon>
        <polygon id="path-59" points="0.286799983 25.3889985 15.6737991 0.0419999975 14.2403992 33.731398"></polygon>
        <polygon id="path-61" points="4.12079975 21.7835987 0.458399973 0.263999984 22.2677987 4.88699971"></polygon>
        <polygon id="path-63" points="0.0473999972 5.37119968 4.11179975 0.298799982 8.20619951 7.30859956"></polygon>
        <polygon id="path-65" points="0.102599994 1.55159991 9.59699943 0.118799993 6.39239962 15.979199"></polygon>
        <polygon id="path-67" points="0.50279997 17.9969989 11.5751993 0.596399964 17.9819989 26.9879984"></polygon>
        <polygon id="path-69" points="2.62259984 14.8721991 0.124199993 0.194399988 14.9993991 3.3479998"></polygon>
        <polygon id="path-71" points="0.319199981 9.62519943 11.8313993 0.183599989 16.461599 14.6669991"></polygon>
        <path d="M0,8.07359952 L0,8.19239951 C0.0251999985,16.814999 5.31959968,25.8629985 16.918799,39.1859977 L16.918799,39.1859977 C30.7931982,55.1231967 25.6349985,66.465596 25.6349985,66.465596 L25.6349985,66.465596 L26.0735984,66.1337961 C26.6363984,64.8377961 27.1421984,63.5237962 27.5795984,62.1953963 L27.5795984,62.1953963 C28.8119983,58.4441965 29.2229983,54.6881967 28.8131983,50.756397 L28.8131983,50.756397 C28.7873983,50.513397 28.7579983,50.270397 28.7279983,50.027997 L28.7279983,50.027997 C27.0341984,44.1893974 24.0209986,37.7381978 18.9677989,32.753398 L18.9677989,32.753398 C-1.12439993,12.9341992 1.40459992,0.351599979 1.40459992,0.351599979 L1.40459992,0.351599979 C0.484199971,2.95799982 0.00719999957,5.49779967 0,8.07359952" id="path-73"></path>
        <path d="M9.91259941,1.6523999 C5.91299965,3.23279981 3.2927998,6.52199961 3.2927998,6.52199961 L3.2927998,6.52199961 C-3.49739979,13.4891992 2.19059987,21.3485987 11.2511993,24.9845985 L11.2511993,24.9845985 C20.3123988,28.6205983 21.8465987,35.2175979 21.8465987,35.2175979 L21.8465987,35.2175979 C28.4711983,22.8629986 14.2409992,20.8451988 7.29719957,15.8735991 L7.29719957,15.8735991 C4.76999972,14.0639992 2.51519985,9.18839945 3.22079981,7.68419954 L3.22079981,7.68419954 C3.22079981,7.68419954 2.80679983,6.87719959 6.6521996,4.94459971 L6.6521996,4.94459971 C9.90179941,3.3125998 14.4989991,4.94159971 14.4989991,4.94159971 L14.4989991,4.94159971 L16.112999,0.433199974 C16.112999,0.433199974 15.8963991,0.397799976 15.4751991,0.397799976 L15.4751991,0.397799976 C14.5547991,0.397799976 12.6569992,0.567599966 9.91259941,1.6523999" id="path-75"></path>
        <polygon id="path-77" points="0.574739966 0.156119991 25.3649385 0.156119991 25.3649385 29.9999982 0.574739966 29.9999982"></polygon>
    </defs>
    <g id="Page-1" stroke="none" stroke-width="1" fill="none" fill-rule="evenodd">
        <g id="1-(4)" transform="translate(-10.000000, 0.000000)">
            <g id="Group-41" transform="translate(9.000000, -53.000000)">
                <g id="Group-108" opacity="0.704543341" transform="translate(1594.000000, 133.000000) scale(-1, 1) translate(-1594.000000, -133.000000) translate(1374.000000, 32.000000)">
                    <polygon id="Fill-26" fill="#89DCCA" points="363.231698 21.0174587 371.093498 6.29345962 384.740497 22.0512587"></polygon>
                    <polygon id="Fill-37" fill="#FFB0AC" points="429.456034 130.923292 431.919634 136.286092 439.266634 126.497692"></polygon>
                    <polygon id="Fill-42" fill="#FFB0AC" points="388.167397 6.20993963 407.787396 4.21493975 401.329596 27.9839383"></polygon>
                    <polygon id="Fill-52" fill="#60C7A8" points="423.456095 115.517153 431.149294 113.171753 430.054894 121.653353"></polygon>
                    <g id="Group-59" transform="translate(427.199975, 156.574791)">
                        <mask id="mask-2" fill="white">
                            <use xlink:href="#path-1"></use>
                        </mask>
                        <g id="Clip-58"></g>
                        <polygon id="Fill-57" mask="url(#mask-2)" points="0.102599994 1.55159991 9.59699943 0.118799993 6.39239962 15.979199"></polygon>
                    </g>
                    <polygon id="Fill-70" fill="#FFC9C4" points="394.019737 152.000871 406.274136 147.277671 405.486936 161.21987"></polygon>
                    <g id="Group-89" transform="translate(0.600000, 34.774798)" fill="#60C7A8">
                        <path d="M406.979556,85.5663549 C406.979556,85.5663549 413.179955,71.7789557 404.278356,61.9911563 C395.376756,52.2039569 382.701157,51.2715569 383.271757,39.4851576 C383.271757,39.4851576 389.824957,43.6803574 395.811756,47.6199572 C401.798556,51.5589569 419.736155,67.945556 406.979556,85.5663549" id="Fill-79"></path>
                        <path d="M382.797277,133.772332 C382.797277,133.772332 379.221277,121.709933 393.375877,107.231334 C408.801276,91.4537345 413.789075,81.7637351 411.255875,69.8111358 C411.255875,69.8111358 411.775475,82.0727351 392.143477,100.492734 C373.491878,117.992333 382.797277,133.772332 382.797277,133.772332" id="Fill-81"></path>
                        <path d="M382.971337,0.440519974 C382.971337,0.440519974 381.529537,13.2457192 392.627137,16.864319 C403.725336,20.4823188 402.427536,25.7887185 402.427536,25.7887185 C402.427536,25.7887185 405.539136,26.1625184 405.004536,21.2533187 C404.468736,16.345319 401.282736,12.8173192 393.269737,10.1275194 C387.197737,8.08871952 387.867937,3.3289198 387.867937,3.3289198 L382.971337,0.440519974 Z" id="Fill-83"></path>
                        <path d="M402.942396,16.495499 C402.942396,16.495499 405.790596,22.2080987 399.000396,26.4188984 C392.209597,30.6296982 379.091197,31.0040982 383.899597,44.2604974 C383.899597,44.2604974 385.937197,37.7744977 394.520196,35.1614979 C403.103196,32.5478981 408.428196,24.3290985 402.942396,16.495499" id="Fill-85"></path>
                    </g>
                    <g id="Group-107" transform="translate(117.599993, 12.574799)" fill="#FFC9C4">
                        <polygon id="Fill-103" points="240.233446 88.2540547 254.133045 70.9068558 268.135844 94.8780543"></polygon>
                    </g>
                </g>
                <g id="Group-75" opacity="0.743001302" transform="translate(1157.500000, 146.500000) rotate(-89.000000) translate(-1157.500000, -146.500000) translate(1089.000000, -96.000000)">
                    <polygon id="Fill-1" fill="#60C7A8" points="21.5677787 56.1708567 48.5965771 43.9764574 28.3537783 70.9446558"></polygon>
                    <polygon id="Fill-2" fill="#89DCCA" points="115.665233 52.5649769 105.004434 62.3557763 116.948033 62.3557763"></polygon>
                    <polygon id="Fill-3" fill="#FFB0AC" points="77.1632954 269.198684 81.3086952 239.837686 93.2756944 271.362884"></polygon>
                    <polygon id="Fill-4" fill="#89DCCA" points="109.283813 204.829908 112.630013 183.258709 131.849812 194.554908"></polygon>
                    <g id="Group-7" transform="translate(85.199995, 426.407375)">
                        <mask id="mask-4" fill="white">
                            <use xlink:href="#path-3"></use>
                        </mask>
                        <g id="Clip-6"></g>
                        <polygon id="Fill-5" mask="url(#mask-4)" points="0.103799994 16.489199 10.2023994 0.0941999944 21.6689987 17.055599"></polygon>
                    </g>
                    <polygon id="Fill-8" fill="#89DCCA" points="31.6915181 5.99999964e-05 28.8049183 19.0374589 48.8761171 11.1294593"></polygon>
                    <polygon id="Fill-9" fill="#FFB0AC" points="111.642773 33.434698 110.976773 14.1914992 129.915172 21.9686987"></polygon>
                    <g id="Group-12" transform="translate(108.599994, 21.407399)">
                        <mask id="mask-6" fill="white">
                            <use xlink:href="#path-5"></use>
                        </mask>
                        <g id="Clip-11"></g>
                        <polygon id="Fill-10" mask="url(#mask-6)" points="0.00599999964 15.8741991 15.1379991 0.140399992 24.3791985 20.4281988"></polygon>
                    </g>
                    <polygon id="Fill-13" fill="#60C7A8" points="123.805073 79.3871353 125.019473 71.5571357 131.995672 75.6575355"></polygon>
                    <g id="Group-16" transform="translate(7.200000, 62.207396)">
                        <mask id="mask-8" fill="white">
                            <use xlink:href="#path-7"></use>
                        </mask>
                        <g id="Clip-15"></g>
                        <polygon id="Fill-14" mask="url(#mask-8)" points="4.41539974 7.98179952 0.0281999983 3.61799978 7.08059958 0.456599973"></polygon>
                    </g>
                    <polygon id="Fill-17" fill="#FFC9C4" points="0 115.617833 21.5087987 116.652233 7.86119953 100.894434"></polygon>
                    <polygon id="Fill-18" fill="#89DCCA" points="79.9705152 280.414663 71.2933158 292.000063 83.0329151 289.802263"></polygon>
                    <polygon id="Fill-19" fill="#89DCCA" points="51.8842169 429.593794 56.5612166 423.756395 61.2730163 431.823394"></polygon>
                    <polygon id="Fill-20" fill="#60C7A8" points="30.7745982 279.190963 49.4663971 267.916964 53.1347968 289.906963"></polygon>
                    <polygon id="Fill-21" fill="#FFC9C4" points="76.5392954 178.527469 91.0676946 152.678271 90.7652946 186.397069"></polygon>
                    <polygon id="Fill-22" fill="#FFB0AC" points="88.4566147 100.994214 97.9252142 108.979014 84.114415 106.214814"></polygon>
                    <g id="Group-25" transform="translate(77.999995, 129.407392)">
                        <mask id="mask-10" fill="white">
                            <use xlink:href="#path-9"></use>
                        </mask>
                        <g id="Clip-24"></g>
                        <polygon id="Fill-23" mask="url(#mask-10)" points="0.567599966 0.460199973 7.35719956 2.04359988 2.47139985 9.25079945"></polygon>
                    </g>
                    <polygon id="Fill-26" fill="#FFC9C4" points="64.6295361 224.264567 65.9225361 215.732567 73.6241356 220.720367"></polygon>
                    <polygon id="Fill-27" fill="#60C7A8" points="127.658152 474.737252 136.041952 471.434852 128.864152 466.785452"></polygon>
                    <polygon id="Fill-28" fill="#60C7A8" points="109.489433 314.089121 128.181832 302.815122 131.850232 324.804521"></polygon>
                    <polygon id="Fill-29" fill="#89DCCA" points="45.4370973 75.5639355 52.7168969 71.1731358 54.1454968 79.7375352"></polygon>
                    <g id="Group-32" transform="translate(95.399994, 121.007393)">
                        <mask id="mask-12" fill="white">
                            <use xlink:href="#path-11"></use>
                        </mask>
                        <g id="Clip-31"></g>
                        <polygon id="Fill-30" mask="url(#mask-12)" points="0.387599977 8.82899947 18.8219989 0.512399969 5.0153997 18.9053989"></polygon>
                    </g>
                    <polygon id="Fill-33" fill="#89DCCA" points="39.5900376 113.184893 46.7084372 104.300694 53.8796368 116.577293"></polygon>
                    <polygon id="Fill-34" fill="#FFC9C4" points="98.4468541 481.332271 105.281454 484.607071 104.161254 477.885272"></polygon>
                    <g id="Group-37" transform="translate(21.599999, 84.407395)">
                        <mask id="mask-14" fill="white">
                            <use xlink:href="#path-13"></use>
                        </mask>
                        <g id="Clip-36"></g>
                        <polygon id="Fill-35" mask="url(#mask-14)" points="6.6605996 0.347999979 23.0177986 12.2411993 0.200999988 9.36059944"></polygon>
                    </g>
                    <g id="Group-40" transform="translate(39.599998, 370.607378)">
                        <mask id="mask-16" fill="white">
                            <use xlink:href="#path-15"></use>
                        </mask>
                        <g id="Clip-39"></g>
                        <polygon id="Fill-38" mask="url(#mask-16)" points="0.179399989 5.58179967 14.0903992 0.275999984 13.8917992 15.4799991"></polygon>
                    </g>
                    <g id="Group-43" transform="translate(113.999993, 227.207386)">
                        <mask id="mask-18" fill="white">
                            <use xlink:href="#path-17"></use>
                        </mask>
                        <g id="Clip-42"></g>
                        <polygon id="Fill-41" mask="url(#mask-18)" points="0.318599981 5.0309997 12.5729993 0.307799982 11.7863993 14.2499992"></polygon>
                    </g>
                    <g id="Group-46" transform="translate(43.799997, 14.207399)">
                        <mask id="mask-20" fill="white">
                            <use xlink:href="#path-19"></use>
                        </mask>
                        <g id="Clip-45"></g>
                        <polygon id="Fill-44" mask="url(#mask-20)" points="0.524399969 4.83779971 12.7787992 0.115199993 11.9915993 14.0567992"></polygon>
                    </g>
                    <polygon id="Fill-47" fill="#FFC9C4" points="101.864634 373.302758 114.613433 365.613758 117.114833 380.611357"></polygon>
                    <polygon id="Fill-48" fill="#60C7A8" points="67.262696 84.9599949 80.2580952 92.2247945 68.4698959 101.828394"></polygon>
                    <polygon id="Fill-49" fill="#60C7A8" points="94.5509944 409.002156 96.5189942 396.016956 108.239394 403.608156"></polygon>
                    <g id="Group-54" transform="translate(67.799996, 304.607382)" fill="#FFB0AC">
                        <path d="M11.6513993,42.1740575 C7.30919956,44.5542573 2.84699983,42.0060575 1.32659992,37.9098577 C1.40759992,37.7616577 1.49099991,37.6164578 1.58159991,37.4760578 C2.15399987,36.5766578 2.92499983,35.7750579 3.82559977,35.2002579 C5.54759967,34.101658 7.68239954,33.966058 9.65279942,34.295458 C12.4895993,34.7700579 14.6825991,36.1830578 16.003799,38.5410577 C14.7461991,40.0074576 13.2983992,41.2710575 11.6513993,42.1740575 M33.595198,58.6746565 C32.3615981,58.6854565 31.2995981,58.8366565 30.0629982,58.6422565 C28.6889983,58.4256565 27.2783984,58.3242565 25.9919985,57.7542566 C23.9135986,56.8338566 22.3157987,54.9690567 21.2285987,53.0196568 C19.1663989,49.3230571 18.5927989,45.0300573 18.1547989,40.8864576 C18.1505989,40.8444576 18.1457989,40.8018576 18.1409989,40.7604576 C19.9325988,37.8612577 21.2009987,34.5612579 21.6197987,31.4046581 C22.2371987,26.7516584 22.4249987,21.6690587 21.8027987,17.002859 C21.0707987,11.5194593 18.7919989,5.98025964 14.3447991,2.47565985 C12.7595992,1.22645993 10.9361993,0.50345997 9.00359946,0.138059992 C7.80599953,1.89785989 6.6353996,3.67625978 5.48279967,5.46665967 C7.61159955,5.50985967 9.82499941,5.72045966 11.7383993,6.59645961 C16.042799,8.56685949 18.9485989,13.1244592 20.3837988,17.481059 C21.1259987,19.7370588 21.5423987,22.0944587 21.7229987,24.4608585 C21.7703987,25.0782585 21.7991987,25.6962585 21.8141987,26.3154584 C21.8159987,26.3844584 21.8159987,26.4528584 21.8165987,26.5212584 C21.5939987,27.5286584 20.8247988,30.0390582 20.7275988,30.2934582 C19.9343988,32.3766581 18.8747989,34.5432579 17.540999,36.5124578 C17.075999,34.315258 16.257599,32.2152581 14.5625991,30.7248582 C11.1293993,27.7068583 4.90679971,27.6936583 2.12099987,31.5300581 C0.889199947,33.225658 0.736799956,35.1546579 0.656999961,37.1406578 C0.593999965,37.9368577 0.539999968,38.8512577 0.573599966,39.2634577 C0.518399969,41.2176575 0.653399961,42.9600574 1.6553999,44.7882573 C2.83559983,46.9428572 4.70099972,48.3852571 7.18739957,48.6360571 C9.91199941,48.9102571 12.2885993,47.4300572 14.2061992,45.6366573 C15.3089991,44.6052573 16.335599,43.4022574 17.259599,42.0930575 C17.7593989,44.3898574 17.8673989,46.7772572 18.1727989,49.0998571 C18.6353989,52.6170569 19.4639988,56.2938566 21.3917987,59.3208565 C22.4873987,61.0410564 24.0359986,62.6490563 25.9577985,63.4212562 C28.3211983,64.3716562 30.8555982,64.2570562 33.317998,64.2354562 C33.467398,64.2342562 33.529198,58.6752565 33.595198,58.6746565" id="Fill-50"></path>
                        <path d="M1.34705992,37.9477177 C1.34705992,37.9477177 1.7262599,37.3255178 2.25305987,36.6349178 C2.78045983,35.9449179 2.80865983,36.0517179 4.06805976,35.1049179 C5.32805968,34.158118 7.84805953,33.804118 11.2854593,34.7287179 C14.7510591,35.6605179 16.023659,38.5801177 16.023659,38.5801177 C16.023659,38.5801177 16.452659,38.0413177 16.887659,36.6073178 C17.323259,35.1727179 16.781459,33.950518 16.192859,32.749318 C15.6042591,31.5475181 14.5824591,30.7633182 14.5824591,30.7633182 C11.1492593,27.7447183 4.92665971,27.7327183 2.14085987,31.5685181 C0.934259944,33.230518 0.871859948,35.4613179 0.870659948,35.5009179 C0.810059952,36.7021178 1.34705992,37.9477177 1.34705992,37.9477177 M21.8226587,17.041319 C21.0906587,11.5579193 18.8118589,6.01811964 14.3646591,2.51411985 C12.7800592,1.26431992 10.9560593,0.541919968 9.02345946,0.176519989 C7.82585953,1.93571988 6.6552596,3.71411978 5.50265967,5.50511967 C7.63145955,5.54831967 9.84485941,5.75951966 11.7582593,6.6349196 C16.062659,8.60591949 18.9690589,13.1623192 20.4036588,17.518919 C21.1464587,19.7755188 21.4854587,21.2737187 21.6666587,23.6389186 C21.7134587,24.2569186 21.8364587,26.5597184 21.8364587,26.5597184 C22.2210587,24.8893185 21.8226587,17.041319 21.8226587,17.041319" id="Fill-52"></path>
                    </g>
                    <g id="Group-57" transform="translate(32.399998, 130.007392)">
                        <mask id="mask-22" fill="white">
                            <use xlink:href="#path-21"></use>
                        </mask>
                        <g id="Clip-56"></g>
                        <path d="M21.3659987,0.230999986 C19.7951988,0.286799983 18.1871989,0.436799974 16.674599,0.827399951 L16.674599,0.827399951 C13.9241992,1.53719991 11.8769993,3.65039978 10.3565994,6.28799963 L10.3565994,6.28799963 C8.88419947,8.84159947 8.12879952,11.8157993 8.3129995,15.0509991 L8.3129995,15.0509991 C8.4467995,17.404799 8.95019947,19.7399988 9.55439943,22.0493987 L9.55439943,22.0493987 C9.66899942,22.9283986 10.5449994,26.1533984 10.6523994,26.0333984 L10.6523994,26.0333984 C10.6721994,26.1035984 10.6913994,26.1749984 10.7111994,26.2451984 L10.7111994,26.2451984 C11.4875993,29.0603983 12.4499993,31.6355981 14.3117991,33.804598 L14.3117991,33.804598 C16.214399,36.0209979 18.5387989,38.2109977 20.7473988,39.9731976 L20.7473988,39.9731976 C22.8575986,41.6567975 24.9209985,43.2767974 26.4689984,45.7145973 L26.4689984,45.7145973 C26.3585984,46.6997972 26.1173984,47.6573972 25.7741985,48.5369971 L25.7741985,48.5369971 C23.7059986,53.8361968 18.9047989,56.5397966 14.9777991,59.5685964 L14.9777991,59.5685964 C10.8875994,62.7221963 7.04099958,66.430796 4.21619975,71.1551958 L4.21619975,71.1551958 C1.36619992,75.9215955 0.0311999981,81.7505951 0.289199983,87.8573948 L0.289199983,87.8573948 C0.386999977,90.1571946 0.890999947,92.4053945 1.47119991,94.6397944 L1.47119991,94.6397944 C1.29239992,94.5545944 2.50199985,98.9921941 2.68379984,99.1991941 L2.68379984,99.1991941 C3.2765998,101.366394 3.94979976,103.510194 5.0207997,105.472794 L5.0207997,105.472794 C8.18399951,111.269393 12.9731992,115.763993 16.745999,121.002593 L16.745999,121.002593 C17.464799,122.000393 18.1025989,123.041393 18.6809989,124.118993 L18.6809989,124.118993 C19.3673988,125.204993 19.9907988,126.331192 20.5511988,127.438192 L20.5511988,127.438192 C20.6381988,127.610392 20.7227988,127.784992 20.8085988,127.958992 L20.8085988,127.958992 C20.2271988,125.774993 19.5869988,123.604793 18.8009989,121.507193 L18.8009989,121.507193 C16.103399,114.305993 10.9733993,109.273193 6.55739961,103.448994 L6.55739961,103.448994 C4.9571997,101.337594 3.4115998,99.1661941 2.31599986,96.6845942 L2.31599986,96.6845942 C2.26619986,96.2717943 2.22479987,95.8577943 2.19719987,95.4449943 L2.19719987,95.4449943 C2.10119987,93.9941944 2.17019987,92.5565945 2.27099986,91.1303946 L2.27099986,91.1303946 C2.69999984,84.9875949 4.61639972,79.9409952 7.93019953,75.4643955 L7.93019953,75.4643955 C11.1461993,71.1203958 15.1847991,67.732796 19.3829988,64.7615961 L19.3829988,64.7615961 C23.2145986,62.0507963 27.9695983,58.1483965 28.3883983,52.3025969 L28.3883983,52.3025969 C28.4843983,50.962197 28.2791983,49.546197 27.9485983,48.1319971 L27.9485983,48.1319971 C27.7871983,46.8869972 26.7809984,43.0781974 26.5493984,43.2821974 L26.5493984,43.2821974 C26.5097984,43.1507974 26.4701984,43.0181974 26.4335984,42.8879974 L26.4335984,42.8879974 C25.6661985,40.2053976 24.3437985,38.0105977 22.5425987,36.0635979 L22.5425987,36.0635979 C21.4697987,34.9043979 20.2997988,34.020598 19.0937989,33.087598 L19.0937989,33.087598 C17.9903989,32.2337981 16.999199,31.1933981 15.965399,30.2255982 L15.965399,30.2255982 C13.8491992,28.2455983 11.6501993,26.3333984 10.3133994,23.5091986 L10.3133994,23.5091986 C10.2911994,23.3231986 10.2701994,23.1371986 10.2533994,22.9499986 L10.2533994,22.9499986 C10.1333994,21.6065987 10.1027994,20.2601988 10.2833994,18.9545989 L10.2833994,18.9545989 C10.6613994,16.224599 11.7893993,13.7573992 13.2851992,11.7461993 L13.2851992,11.7461993 C15.0335991,9.39359944 17.095799,8.06639952 19.8209988,7.62359955 L19.8209988,7.62359955 C21.2075987,7.39919956 22.6319987,7.26839957 24.0497986,7.27259957 L24.0497986,7.27259957 C24.3257986,7.27379957 24.5945985,7.25879957 24.8573985,7.24439957 L24.8573985,7.24439957 C25.7741985,7.19399957 26.6303984,7.14299957 27.5471984,7.74359954 L27.5471984,7.74359954 C27.4589984,7.68539954 27.3317984,6.85979959 27.2933984,6.7043996 L27.2933984,6.7043996 C27.0797984,5.87099965 26.8589984,5.0387997 26.6369984,4.20779975 L26.6369984,4.20779975 C26.4953984,3.67319978 26.0735984,0.951599943 25.6691985,0.686999959 L25.6691985,0.686999959 C24.9725985,0.230399986 24.2021986,0.114599993 23.4251986,0.114599993 L23.4251986,0.114599993 C22.7285986,0.114599993 22.0259987,0.207599988 21.3659987,0.230999986" id="Fill-55" mask="url(#mask-22)"></path>
                    </g>
                    <g id="Group-66" transform="translate(34.199998, 142.007392)">
                        <path d="M24.7488585,31.2826781 C24.7098585,31.1506781 24.6702585,31.0180782 24.6336585,30.8878782 C23.8662586,28.2058783 22.5438587,26.0104784 20.7426588,24.0640786 C19.6698588,22.9042786 18.4998589,22.0204787 17.293859,21.0874787 C16.189859,20.2336788 15.1992591,19.1938789 14.1648592,18.2254789 C12.0492593,16.245479 9.85025941,14.3332791 8.51345949,11.5090793 L7.75445954,10.0498794 C7.86905953,10.9282793 8.74505948,14.1538792 8.85245947,14.0326792 C8.87225947,14.1034792 8.89145947,14.1742792 8.91125947,14.2450792 C9.68705942,17.060279 10.6500594,19.6354788 12.5112593,21.8044787 C14.4144591,24.0208786 16.738259,26.2102784 18.9474589,27.9730783 C21.0576587,29.6572782 23.1210586,31.2766781 24.6690585,33.714478 L24.7488585,31.2826781 Z" id="Fill-58" fill="#F3B04C"></path>
                        <path d="M0.883619947,87.1990148 C1.47641991,89.3662147 2.14961987,91.5100145 3.22121981,93.4726144 C6.38441962,99.2698141 11.1730193,103.763814 14.9458191,109.002414 C15.6646191,110.000213 16.302419,111.041813 16.881419,112.118813 C17.567819,113.204813 18.1912189,114.331013 18.7510189,115.438013 C18.8386189,115.610813 18.9226189,115.785413 19.0084189,115.958813 C18.4270189,113.774813 17.7868189,111.604613 17.000819,109.507613 C14.3032191,102.305814 9.17321945,97.2730142 4.75721972,91.4488145 C3.15701981,89.3374147 1.6120199,87.1660148 0.516419969,84.684415 L0.883619947,87.1990148 Z" id="Fill-60" fill="#F3B04C"></path>
                        <polygon id="Fill-62" fill="#FFB0AC" points="74.2745956 11.9144993 84.052195 33.714298 56.3723966 24.2870986"></polygon>
                        <polygon id="Fill-64" fill="#60C7A8" points="74.1439756 21.6413987 66.1297761 4.04459976 89.6053747 0.218399987"></polygon>
                    </g>
                    <g id="Group-69" transform="translate(107.399994, 319.007381)">
                        <mask id="mask-24" fill="white">
                            <use xlink:href="#path-23"></use>
                        </mask>
                        <g id="Clip-68"></g>
                        <polygon id="Fill-67" mask="url(#mask-24)" points="0.383999977 4.26539975 6.92939959 18.5165989 20.7491988 0.106199994"></polygon>
                    </g>
                    <g id="Group-72" transform="translate(103.799994, 281.207383)">
                        <mask id="mask-26" fill="white">
                            <use xlink:href="#path-25"></use>
                        </mask>
                        <g id="Clip-71"></g>
                        <polygon id="Fill-70" mask="url(#mask-26)" points="0.413399975 12.8717992 20.6243988 17.6699989 10.4813994 0.307199982"></polygon>
                    </g>
                    <polygon id="Fill-73" fill="#FFC9C4" points="95.8488543 213.139367 108.928854 189.537769 120.820253 209.516568"></polygon>
                </g>
                <g id="Group-75" opacity="0.743001302" transform="translate(244.500000, 154.500000) rotate(-89.000000) translate(-244.500000, -154.500000) translate(176.000000, -88.000000)">
                    <polygon id="Fill-1" fill="#60C7A8" points="21.5677787 56.1708567 48.5965771 43.9764574 28.3537783 70.9446558"></polygon>
                    <polygon id="Fill-2" fill="#89DCCA" points="115.665233 52.5649769 105.004434 62.3557763 116.948033 62.3557763"></polygon>
                    <polygon id="Fill-3" fill="#FFB0AC" points="77.1632954 269.198684 81.3086952 239.837686 93.2756944 271.362884"></polygon>
                    <polygon id="Fill-4" fill="#89DCCA" points="109.283813 204.829908 112.630013 183.258709 131.849812 194.554908"></polygon>
                    <g id="Group-7" transform="translate(85.199995, 426.407375)">
                        <mask id="mask-28" fill="white">
                            <use xlink:href="#path-27"></use>
                        </mask>
                        <g id="Clip-6"></g>
                        <polygon id="Fill-5" mask="url(#mask-28)" points="0.103799994 16.489199 10.2023994 0.0941999944 21.6689987 17.055599"></polygon>
                    </g>
                    <polygon id="Fill-8" fill="#89DCCA" points="31.6915181 5.99999964e-05 28.8049183 19.0374589 48.8761171 11.1294593"></polygon>
                    <polygon id="Fill-9" fill="#FFB0AC" points="111.642773 33.434698 110.976773 14.1914992 129.915172 21.9686987"></polygon>
                    <g id="Group-12" transform="translate(108.599994, 21.407399)">
                        <mask id="mask-30" fill="white">
                            <use xlink:href="#path-29"></use>
                        </mask>
                        <g id="Clip-11"></g>
                        <polygon id="Fill-10" mask="url(#mask-30)" points="0.00599999964 15.8741991 15.1379991 0.140399992 24.3791985 20.4281988"></polygon>
                    </g>
                    <polygon id="Fill-13" fill="#60C7A8" points="123.805073 79.3871353 125.019473 71.5571357 131.995672 75.6575355"></polygon>
                    <g id="Group-16" transform="translate(7.200000, 62.207396)">
                        <mask id="mask-32" fill="white">
                            <use xlink:href="#path-31"></use>
                        </mask>
                        <g id="Clip-15"></g>
                        <polygon id="Fill-14" mask="url(#mask-32)" points="4.41539974 7.98179952 0.0281999983 3.61799978 7.08059958 0.456599973"></polygon>
                    </g>
                    <polygon id="Fill-17" fill="#FFC9C4" points="0 115.617833 21.5087987 116.652233 7.86119953 100.894434"></polygon>
                    <polygon id="Fill-18" fill="#89DCCA" points="79.9705152 280.414663 71.2933158 292.000063 83.0329151 289.802263"></polygon>
                    <polygon id="Fill-19" fill="#89DCCA" points="51.8842169 429.593794 56.5612166 423.756395 61.2730163 431.823394"></polygon>
                    <polygon id="Fill-20" fill="#60C7A8" points="30.7745982 279.190963 49.4663971 267.916964 53.1347968 289.906963"></polygon>
                    <polygon id="Fill-21" fill="#FFC9C4" points="76.5392954 178.527469 91.0676946 152.678271 90.7652946 186.397069"></polygon>
                    <polygon id="Fill-22" fill="#FFB0AC" points="88.4566147 100.994214 97.9252142 108.979014 84.114415 106.214814"></polygon>
                    <g id="Group-25" transform="translate(77.999995, 129.407392)">
                        <mask id="mask-34" fill="white">
                            <use xlink:href="#path-33"></use>
                        </mask>
                        <g id="Clip-24"></g>
                        <polygon id="Fill-23" mask="url(#mask-34)" points="0.567599966 0.460199973 7.35719956 2.04359988 2.47139985 9.25079945"></polygon>
                    </g>
                    <polygon id="Fill-26" fill="#FFC9C4" points="64.6295361 224.264567 65.9225361 215.732567 73.6241356 220.720367"></polygon>
                    <polygon id="Fill-27" fill="#60C7A8" points="127.658152 474.737252 136.041952 471.434852 128.864152 466.785452"></polygon>
                    <polygon id="Fill-28" fill="#60C7A8" points="109.489433 314.089121 128.181832 302.815122 131.850232 324.804521"></polygon>
                    <polygon id="Fill-29" fill="#89DCCA" points="45.4370973 75.5639355 52.7168969 71.1731358 54.1454968 79.7375352"></polygon>
                    <g id="Group-32" transform="translate(95.399994, 121.007393)">
                        <mask id="mask-36" fill="white">
                            <use xlink:href="#path-35"></use>
                        </mask>
                        <g id="Clip-31"></g>
                        <polygon id="Fill-30" mask="url(#mask-36)" points="0.387599977 8.82899947 18.8219989 0.512399969 5.0153997 18.9053989"></polygon>
                    </g>
                    <polygon id="Fill-33" fill="#89DCCA" points="39.5900376 113.184893 46.7084372 104.300694 53.8796368 116.577293"></polygon>
                    <polygon id="Fill-34" fill="#FFC9C4" points="98.4468541 481.332271 105.281454 484.607071 104.161254 477.885272"></polygon>
                    <g id="Group-37" transform="translate(21.599999, 84.407395)">
                        <mask id="mask-38" fill="white">
                            <use xlink:href="#path-37"></use>
                        </mask>
                        <g id="Clip-36"></g>
                        <polygon id="Fill-35" mask="url(#mask-38)" points="6.6605996 0.347999979 23.0177986 12.2411993 0.200999988 9.36059944"></polygon>
                    </g>
                    <g id="Group-40" transform="translate(39.599998, 370.607378)">
                        <mask id="mask-40" fill="white">
                            <use xlink:href="#path-39"></use>
                        </mask>
                        <g id="Clip-39"></g>
                        <polygon id="Fill-38" mask="url(#mask-40)" points="0.179399989 5.58179967 14.0903992 0.275999984 13.8917992 15.4799991"></polygon>
                    </g>
                    <g id="Group-43" transform="translate(113.999993, 227.207386)">
                        <mask id="mask-42" fill="white">
                            <use xlink:href="#path-41"></use>
                        </mask>
                        <g id="Clip-42"></g>
                        <polygon id="Fill-41" mask="url(#mask-42)" points="0.318599981 5.0309997 12.5729993 0.307799982 11.7863993 14.2499992"></polygon>
                    </g>
                    <g id="Group-46" transform="translate(43.799997, 14.207399)">
                        <mask id="mask-44" fill="white">
                            <use xlink:href="#path-43"></use>
                        </mask>
                        <g id="Clip-45"></g>
                        <polygon id="Fill-44" mask="url(#mask-44)" points="0.524399969 4.83779971 12.7787992 0.115199993 11.9915993 14.0567992"></polygon>
                    </g>
                    <polygon id="Fill-47" fill="#FFC9C4" points="101.864634 373.302758 114.613433 365.613758 117.114833 380.611357"></polygon>
                    <polygon id="Fill-48" fill="#60C7A8" points="67.262696 84.9599949 80.2580952 92.2247945 68.4698959 101.828394"></polygon>
                    <polygon id="Fill-49" fill="#60C7A8" points="94.5509944 409.002156 96.5189942 396.016956 108.239394 403.608156"></polygon>
                    <g id="Group-54" transform="translate(67.799996, 304.607382)" fill="#FFB0AC">
                        <path d="M11.6513993,42.1740575 C7.30919956,44.5542573 2.84699983,42.0060575 1.32659992,37.9098577 C1.40759992,37.7616577 1.49099991,37.6164578 1.58159991,37.4760578 C2.15399987,36.5766578 2.92499983,35.7750579 3.82559977,35.2002579 C5.54759967,34.101658 7.68239954,33.966058 9.65279942,34.295458 C12.4895993,34.7700579 14.6825991,36.1830578 16.003799,38.5410577 C14.7461991,40.0074576 13.2983992,41.2710575 11.6513993,42.1740575 M33.595198,58.6746565 C32.3615981,58.6854565 31.2995981,58.8366565 30.0629982,58.6422565 C28.6889983,58.4256565 27.2783984,58.3242565 25.9919985,57.7542566 C23.9135986,56.8338566 22.3157987,54.9690567 21.2285987,53.0196568 C19.1663989,49.3230571 18.5927989,45.0300573 18.1547989,40.8864576 C18.1505989,40.8444576 18.1457989,40.8018576 18.1409989,40.7604576 C19.9325988,37.8612577 21.2009987,34.5612579 21.6197987,31.4046581 C22.2371987,26.7516584 22.4249987,21.6690587 21.8027987,17.002859 C21.0707987,11.5194593 18.7919989,5.98025964 14.3447991,2.47565985 C12.7595992,1.22645993 10.9361993,0.50345997 9.00359946,0.138059992 C7.80599953,1.89785989 6.6353996,3.67625978 5.48279967,5.46665967 C7.61159955,5.50985967 9.82499941,5.72045966 11.7383993,6.59645961 C16.042799,8.56685949 18.9485989,13.1244592 20.3837988,17.481059 C21.1259987,19.7370588 21.5423987,22.0944587 21.7229987,24.4608585 C21.7703987,25.0782585 21.7991987,25.6962585 21.8141987,26.3154584 C21.8159987,26.3844584 21.8159987,26.4528584 21.8165987,26.5212584 C21.5939987,27.5286584 20.8247988,30.0390582 20.7275988,30.2934582 C19.9343988,32.3766581 18.8747989,34.5432579 17.540999,36.5124578 C17.075999,34.315258 16.257599,32.2152581 14.5625991,30.7248582 C11.1293993,27.7068583 4.90679971,27.6936583 2.12099987,31.5300581 C0.889199947,33.225658 0.736799956,35.1546579 0.656999961,37.1406578 C0.593999965,37.9368577 0.539999968,38.8512577 0.573599966,39.2634577 C0.518399969,41.2176575 0.653399961,42.9600574 1.6553999,44.7882573 C2.83559983,46.9428572 4.70099972,48.3852571 7.18739957,48.6360571 C9.91199941,48.9102571 12.2885993,47.4300572 14.2061992,45.6366573 C15.3089991,44.6052573 16.335599,43.4022574 17.259599,42.0930575 C17.7593989,44.3898574 17.8673989,46.7772572 18.1727989,49.0998571 C18.6353989,52.6170569 19.4639988,56.2938566 21.3917987,59.3208565 C22.4873987,61.0410564 24.0359986,62.6490563 25.9577985,63.4212562 C28.3211983,64.3716562 30.8555982,64.2570562 33.317998,64.2354562 C33.467398,64.2342562 33.529198,58.6752565 33.595198,58.6746565" id="Fill-50"></path>
                        <path d="M1.34705992,37.9477177 C1.34705992,37.9477177 1.7262599,37.3255178 2.25305987,36.6349178 C2.78045983,35.9449179 2.80865983,36.0517179 4.06805976,35.1049179 C5.32805968,34.158118 7.84805953,33.804118 11.2854593,34.7287179 C14.7510591,35.6605179 16.023659,38.5801177 16.023659,38.5801177 C16.023659,38.5801177 16.452659,38.0413177 16.887659,36.6073178 C17.323259,35.1727179 16.781459,33.950518 16.192859,32.749318 C15.6042591,31.5475181 14.5824591,30.7633182 14.5824591,30.7633182 C11.1492593,27.7447183 4.92665971,27.7327183 2.14085987,31.5685181 C0.934259944,33.230518 0.871859948,35.4613179 0.870659948,35.5009179 C0.810059952,36.7021178 1.34705992,37.9477177 1.34705992,37.9477177 M21.8226587,17.041319 C21.0906587,11.5579193 18.8118589,6.01811964 14.3646591,2.51411985 C12.7800592,1.26431992 10.9560593,0.541919968 9.02345946,0.176519989 C7.82585953,1.93571988 6.6552596,3.71411978 5.50265967,5.50511967 C7.63145955,5.54831967 9.84485941,5.75951966 11.7582593,6.6349196 C16.062659,8.60591949 18.9690589,13.1623192 20.4036588,17.518919 C21.1464587,19.7755188 21.4854587,21.2737187 21.6666587,23.6389186 C21.7134587,24.2569186 21.8364587,26.5597184 21.8364587,26.5597184 C22.2210587,24.8893185 21.8226587,17.041319 21.8226587,17.041319" id="Fill-52"></path>
                    </g>
                    <g id="Group-57" transform="translate(32.399998, 130.007392)">
                        <mask id="mask-46" fill="white">
                            <use xlink:href="#path-45"></use>
                        </mask>
                        <g id="Clip-56"></g>
                        <path d="M21.3659987,0.230999986 C19.7951988,0.286799983 18.1871989,0.436799974 16.674599,0.827399951 L16.674599,0.827399951 C13.9241992,1.53719991 11.8769993,3.65039978 10.3565994,6.28799963 L10.3565994,6.28799963 C8.88419947,8.84159947 8.12879952,11.8157993 8.3129995,15.0509991 L8.3129995,15.0509991 C8.4467995,17.404799 8.95019947,19.7399988 9.55439943,22.0493987 L9.55439943,22.0493987 C9.66899942,22.9283986 10.5449994,26.1533984 10.6523994,26.0333984 L10.6523994,26.0333984 C10.6721994,26.1035984 10.6913994,26.1749984 10.7111994,26.2451984 L10.7111994,26.2451984 C11.4875993,29.0603983 12.4499993,31.6355981 14.3117991,33.804598 L14.3117991,33.804598 C16.214399,36.0209979 18.5387989,38.2109977 20.7473988,39.9731976 L20.7473988,39.9731976 C22.8575986,41.6567975 24.9209985,43.2767974 26.4689984,45.7145973 L26.4689984,45.7145973 C26.3585984,46.6997972 26.1173984,47.6573972 25.7741985,48.5369971 L25.7741985,48.5369971 C23.7059986,53.8361968 18.9047989,56.5397966 14.9777991,59.5685964 L14.9777991,59.5685964 C10.8875994,62.7221963 7.04099958,66.430796 4.21619975,71.1551958 L4.21619975,71.1551958 C1.36619992,75.9215955 0.0311999981,81.7505951 0.289199983,87.8573948 L0.289199983,87.8573948 C0.386999977,90.1571946 0.890999947,92.4053945 1.47119991,94.6397944 L1.47119991,94.6397944 C1.29239992,94.5545944 2.50199985,98.9921941 2.68379984,99.1991941 L2.68379984,99.1991941 C3.2765998,101.366394 3.94979976,103.510194 5.0207997,105.472794 L5.0207997,105.472794 C8.18399951,111.269393 12.9731992,115.763993 16.745999,121.002593 L16.745999,121.002593 C17.464799,122.000393 18.1025989,123.041393 18.6809989,124.118993 L18.6809989,124.118993 C19.3673988,125.204993 19.9907988,126.331192 20.5511988,127.438192 L20.5511988,127.438192 C20.6381988,127.610392 20.7227988,127.784992 20.8085988,127.958992 L20.8085988,127.958992 C20.2271988,125.774993 19.5869988,123.604793 18.8009989,121.507193 L18.8009989,121.507193 C16.103399,114.305993 10.9733993,109.273193 6.55739961,103.448994 L6.55739961,103.448994 C4.9571997,101.337594 3.4115998,99.1661941 2.31599986,96.6845942 L2.31599986,96.6845942 C2.26619986,96.2717943 2.22479987,95.8577943 2.19719987,95.4449943 L2.19719987,95.4449943 C2.10119987,93.9941944 2.17019987,92.5565945 2.27099986,91.1303946 L2.27099986,91.1303946 C2.69999984,84.9875949 4.61639972,79.9409952 7.93019953,75.4643955 L7.93019953,75.4643955 C11.1461993,71.1203958 15.1847991,67.732796 19.3829988,64.7615961 L19.3829988,64.7615961 C23.2145986,62.0507963 27.9695983,58.1483965 28.3883983,52.3025969 L28.3883983,52.3025969 C28.4843983,50.962197 28.2791983,49.546197 27.9485983,48.1319971 L27.9485983,48.1319971 C27.7871983,46.8869972 26.7809984,43.0781974 26.5493984,43.2821974 L26.5493984,43.2821974 C26.5097984,43.1507974 26.4701984,43.0181974 26.4335984,42.8879974 L26.4335984,42.8879974 C25.6661985,40.2053976 24.3437985,38.0105977 22.5425987,36.0635979 L22.5425987,36.0635979 C21.4697987,34.9043979 20.2997988,34.020598 19.0937989,33.087598 L19.0937989,33.087598 C17.9903989,32.2337981 16.999199,31.1933981 15.965399,30.2255982 L15.965399,30.2255982 C13.8491992,28.2455983 11.6501993,26.3333984 10.3133994,23.5091986 L10.3133994,23.5091986 C10.2911994,23.3231986 10.2701994,23.1371986 10.2533994,22.9499986 L10.2533994,22.9499986 C10.1333994,21.6065987 10.1027994,20.2601988 10.2833994,18.9545989 L10.2833994,18.9545989 C10.6613994,16.224599 11.7893993,13.7573992 13.2851992,11.7461993 L13.2851992,11.7461993 C15.0335991,9.39359944 17.095799,8.06639952 19.8209988,7.62359955 L19.8209988,7.62359955 C21.2075987,7.39919956 22.6319987,7.26839957 24.0497986,7.27259957 L24.0497986,7.27259957 C24.3257986,7.27379957 24.5945985,7.25879957 24.8573985,7.24439957 L24.8573985,7.24439957 C25.7741985,7.19399957 26.6303984,7.14299957 27.5471984,7.74359954 L27.5471984,7.74359954 C27.4589984,7.68539954 27.3317984,6.85979959 27.2933984,6.7043996 L27.2933984,6.7043996 C27.0797984,5.87099965 26.8589984,5.0387997 26.6369984,4.20779975 L26.6369984,4.20779975 C26.4953984,3.67319978 26.0735984,0.951599943 25.6691985,0.686999959 L25.6691985,0.686999959 C24.9725985,0.230399986 24.2021986,0.114599993 23.4251986,0.114599993 L23.4251986,0.114599993 C22.7285986,0.114599993 22.0259987,0.207599988 21.3659987,0.230999986" id="Fill-55" mask="url(#mask-46)"></path>
                    </g>
                    <g id="Group-66" transform="translate(34.199998, 142.007392)">
                        <path d="M24.7488585,31.2826781 C24.7098585,31.1506781 24.6702585,31.0180782 24.6336585,30.8878782 C23.8662586,28.2058783 22.5438587,26.0104784 20.7426588,24.0640786 C19.6698588,22.9042786 18.4998589,22.0204787 17.293859,21.0874787 C16.189859,20.2336788 15.1992591,19.1938789 14.1648592,18.2254789 C12.0492593,16.245479 9.85025941,14.3332791 8.51345949,11.5090793 L7.75445954,10.0498794 C7.86905953,10.9282793 8.74505948,14.1538792 8.85245947,14.0326792 C8.87225947,14.1034792 8.89145947,14.1742792 8.91125947,14.2450792 C9.68705942,17.060279 10.6500594,19.6354788 12.5112593,21.8044787 C14.4144591,24.0208786 16.738259,26.2102784 18.9474589,27.9730783 C21.0576587,29.6572782 23.1210586,31.2766781 24.6690585,33.714478 L24.7488585,31.2826781 Z" id="Fill-58" fill="#F3B04C"></path>
                        <path d="M0.883619947,87.1990148 C1.47641991,89.3662147 2.14961987,91.5100145 3.22121981,93.4726144 C6.38441962,99.2698141 11.1730193,103.763814 14.9458191,109.002414 C15.6646191,110.000213 16.302419,111.041813 16.881419,112.118813 C17.567819,113.204813 18.1912189,114.331013 18.7510189,115.438013 C18.8386189,115.610813 18.9226189,115.785413 19.0084189,115.958813 C18.4270189,113.774813 17.7868189,111.604613 17.000819,109.507613 C14.3032191,102.305814 9.17321945,97.2730142 4.75721972,91.4488145 C3.15701981,89.3374147 1.6120199,87.1660148 0.516419969,84.684415 L0.883619947,87.1990148 Z" id="Fill-60" fill="#F3B04C"></path>
                        <polygon id="Fill-62" fill="#FFB0AC" points="74.2745956 11.9144993 84.052195 33.714298 56.3723966 24.2870986"></polygon>
                        <polygon id="Fill-64" fill="#60C7A8" points="74.1439756 21.6413987 66.1297761 4.04459976 89.6053747 0.218399987"></polygon>
                    </g>
                    <g id="Group-69" transform="translate(107.399994, 319.007381)">
                        <mask id="mask-48" fill="white">
                            <use xlink:href="#path-47"></use>
                        </mask>
                        <g id="Clip-68"></g>
                        <polygon id="Fill-67" mask="url(#mask-48)" points="0.383999977 4.26539975 6.92939959 18.5165989 20.7491988 0.106199994"></polygon>
                    </g>
                    <g id="Group-72" transform="translate(103.799994, 281.207383)">
                        <mask id="mask-50" fill="white">
                            <use xlink:href="#path-49"></use>
                        </mask>
                        <g id="Clip-71"></g>
                        <polygon id="Fill-70" mask="url(#mask-50)" points="0.413399975 12.8717992 20.6243988 17.6699989 10.4813994 0.307199982"></polygon>
                    </g>
                    <polygon id="Fill-73" fill="#FFC9C4" points="95.8488543 213.139367 108.928854 189.537769 120.820253 209.516568"></polygon>
                </g>
                <g id="Group-108" opacity="0.704543341" transform="translate(424.000000, 0.000000)">
                    <g id="Group-3" transform="translate(217.199987, 67.774796)">
                        <mask id="mask-52" fill="white">
                            <use xlink:href="#path-51"></use>
                        </mask>
                        <g id="Clip-2"></g>
                        <polygon id="Fill-1" mask="url(#mask-52)" points="1.91759989 18.5873989 0.372599978 0.146999991 35.0093979 2.54639985"></polygon>
                    </g>
                    <g id="Group-10" transform="translate(24.599999, 181.174789)">
                        <mask id="mask-54" fill="white">
                            <use xlink:href="#path-53"></use>
                        </mask>
                        <g id="Clip-9"></g>
                        <polygon id="Fill-8" mask="url(#mask-54)" points="0.178199989 5.89499965 3.24059981 0.16019999 8.55479949 6.29699962"></polygon>
                    </g>
                    <g id="Group-13" transform="translate(232.199986, 97.774794)">
                        <mask id="mask-56" fill="white">
                            <use xlink:href="#path-55"></use>
                        </mask>
                        <g id="Clip-12"></g>
                        <polygon id="Fill-11" mask="url(#mask-56)" points="11.3369993 19.6373988 0.0719999957 8.4317995 18.1793989 0.314399981"></polygon>
                    </g>
                    <g id="Group-16" transform="translate(80.999995, 43.774797)">
                        <mask id="mask-58" fill="white">
                            <use xlink:href="#path-57"></use>
                        </mask>
                        <g id="Clip-15"></g>
                        <polygon id="Fill-14" mask="url(#mask-58)" points="0.050999997 13.2509992 5.12279969 0.118799993 22.9949986 15.7205991"></polygon>
                    </g>
                    <polygon id="Fill-18" fill="#FFB0AC" points="139.729312 131.331592 142.048912 114.802193 160.28171 124.906793"></polygon>
                    <polygon id="Fill-22" fill="#60C7A8" points="61.7012363 176.04479 83.786035 166.08119 71.0594358 196.418988"></polygon>
                    <g id="Group-25" transform="translate(352.199979, 64.174796)">
                        <mask id="mask-60" fill="white">
                            <use xlink:href="#path-59"></use>
                        </mask>
                        <g id="Clip-24"></g>
                        <polygon id="Fill-23" mask="url(#mask-60)" points="0.286799983 25.3889985 15.6737991 0.0419999975 14.2403992 33.731398"></polygon>
                    </g>
                    <polygon id="Fill-28" fill="#60C7A8" points="73.4182156 110.434733 82.7086151 93.5693344 94.9852143 109.953533"></polygon>
                    <polygon id="Fill-29" fill="#89DCCA" points="70.7351958 64.5326962 73.6217956 45.4952973 90.8057946 56.6246966"></polygon>
                    <polygon id="Fill-30" fill="#FFC9C4" points="241.325626 175.47935 260.018025 164.20475 263.685824 186.194749"></polygon>
                    <g id="Group-34" transform="translate(51.599997, 110.974793)">
                        <mask id="mask-62" fill="white">
                            <use xlink:href="#path-61"></use>
                        </mask>
                        <g id="Clip-33"></g>
                        <polygon id="Fill-32" mask="url(#mask-62)" points="4.12079975 21.7835987 0.458399973 0.263999984 22.2677987 4.88699971"></polygon>
                    </g>
                    <polygon id="Fill-35" fill="#FFC9C4" points="157.119351 142.104352 160.00595 123.066953 177.189949 134.196352"></polygon>
                    <polygon id="Fill-36" fill="#FFB0AC" points="46.3537772 77.1148154 54.2161768 62.3908163 67.862576 78.1486153"></polygon>
                    <polygon id="Fill-37" fill="#FFB0AC" points="429.456034 130.923292 431.919634 136.286092 439.266634 126.497692"></polygon>
                    <g id="Group-40" transform="translate(289.199983, 64.774796)">
                        <mask id="mask-64" fill="white">
                            <use xlink:href="#path-63"></use>
                        </mask>
                        <g id="Clip-39"></g>
                        <polygon id="Fill-38" mask="url(#mask-64)" points="0.0473999972 5.37119968 4.11179975 0.298799982 8.20619951 7.30859956"></polygon>
                    </g>
                    <polygon id="Fill-43" fill="#60C7A8" points="117.742013 97.7834942 126.473212 95.1542943 125.682413 104.433294"></polygon>
                    <polygon id="Fill-44" fill="#60C7A8" points="321.346541 68.9802559 348.375339 56.7864566 328.13254 83.754055"></polygon>
                    <polygon id="Fill-49" fill="#60C7A8" points="166.79087 110.668793 168.00527 102.838794 174.98147 106.939194"></polygon>
                    <polygon id="Fill-51" fill="#FFB0AC" points="120.679313 75.7076955 112.636913 75.6734955 116.190113 67.894496"></polygon>
                    <polygon id="Fill-52" fill="#60C7A8" points="423.456095 115.517153 431.149294 113.171753 430.054894 121.653353"></polygon>
                    <polygon id="Fill-53" fill="#FFC9C4" points="45.7156773 169.55993 52.9954768 165.16913 54.4240768 173.73293"></polygon>
                    <polygon id="Fill-54" fill="#89DCCA" points="367.876418 170.78543 369.000218 163.37183 375.692618 167.70563"></polygon>
                    <polygon id="Fill-55" fill="#60C7A8" points="115.083053 66.694196 135.178252 54.8627967 140.013652 79.4177953"></polygon>
                    <polygon id="Fill-56" fill="#89DCCA" points="46.9232972 150.910131 39.6524976 157.587531 47.7980972 157.587531"></polygon>
                    <g id="Group-59" transform="translate(427.199975, 156.574791)">
                        <mask id="mask-66" fill="white">
                            <use xlink:href="#path-65"></use>
                        </mask>
                        <g id="Clip-58"></g>
                        <polygon id="Fill-57" mask="url(#mask-66)" points="0.102599994 1.55159991 9.59699943 0.118799993 6.39239962 15.979199"></polygon>
                    </g>
                    <polygon id="Fill-60" fill="#FFB0AC" points="331.10236 139.712872 333.27376 159.82007 320.086961 140.977672"></polygon>
                    <polygon id="Fill-61" fill="#FFB0AC" points="132.112732 160.03169 143.356131 161.81369 136.244932 174.12509"></polygon>
                    <g id="Group-64" transform="translate(84.599995, 104.374794)">
                        <mask id="mask-68" fill="white">
                            <use xlink:href="#path-67"></use>
                        </mask>
                        <g id="Clip-63"></g>
                        <polygon id="Fill-62" mask="url(#mask-68)" points="0.50279997 17.9969989 11.5751993 0.596399964 17.9819989 26.9879984"></polygon>
                    </g>
                    <polygon id="Fill-65" fill="#60C7A8" points="254.986185 121.998773 275.114384 123.967373 253.981185 133.041172"></polygon>
                    <polygon id="Fill-66" fill="#89DCCA" points="293.326963 97.4060942 300.444762 88.5218947 307.615962 100.798494"></polygon>
                    <g id="Group-69" transform="translate(272.399984, 50.374797)">
                        <mask id="mask-70" fill="white">
                            <use xlink:href="#path-69"></use>
                        </mask>
                        <g id="Clip-68"></g>
                        <polygon id="Fill-67" mask="url(#mask-70)" points="2.62259984 14.8721991 0.124199993 0.194399988 14.9993991 3.3479998"></polygon>
                    </g>
                    <polygon id="Fill-70" fill="#FFC9C4" points="394.019737 152.000871 406.274136 147.277671 405.486936 161.21987"></polygon>
                    <polygon id="Fill-71" fill="#89DCCA" points="178.175029 63.8594362 179.178829 57.2384366 185.155429 61.1090364"></polygon>
                    <g id="Group-74" transform="translate(303.599982, 131.374792)">
                        <mask id="mask-72" fill="white">
                            <use xlink:href="#path-71"></use>
                        </mask>
                        <g id="Clip-73"></g>
                        <polygon id="Fill-72" mask="url(#mask-72)" points="0.319199981 9.62519943 11.8313993 0.183599989 16.461599 14.6669991"></polygon>
                    </g>
                    <g id="Group-89" transform="translate(0.600000, 34.774798)">
                        <path d="M406.979556,85.5663549 C406.979556,85.5663549 413.179955,71.7789557 404.278356,61.9911563 C395.376756,52.2039569 382.701157,51.2715569 383.271757,39.4851576 C383.271757,39.4851576 389.824957,43.6803574 395.811756,47.6199572 C401.798556,51.5589569 419.736155,67.945556 406.979556,85.5663549" id="Fill-79" fill="#60C7A8"></path>
                        <path d="M382.797277,133.772332 C382.797277,133.772332 379.221277,121.709933 393.375877,107.231334 C408.801276,91.4537345 413.789075,81.7637351 411.255875,69.8111358 C411.255875,69.8111358 411.775475,82.0727351 392.143477,100.492734 C373.491878,117.992333 382.797277,133.772332 382.797277,133.772332" id="Fill-81" fill="#60C7A8"></path>
                        <path d="M382.971337,0.440519974 C382.971337,0.440519974 381.529537,13.2457192 392.627137,16.864319 C403.725336,20.4823188 402.427536,25.7887185 402.427536,25.7887185 C402.427536,25.7887185 405.539136,26.1625184 405.004536,21.2533187 C404.468736,16.345319 401.282736,12.8173192 393.269737,10.1275194 C387.197737,8.08871952 387.867937,3.3289198 387.867937,3.3289198 L382.971337,0.440519974 Z" id="Fill-83" fill="#60C7A8"></path>
                        <path d="M402.942396,16.495499 C402.942396,16.495499 405.790596,22.2080987 399.000396,26.4188984 C392.209597,30.6296982 379.091197,31.0040982 383.899597,44.2604974 C383.899597,44.2604974 385.937197,37.7744977 394.520196,35.1614979 C403.103196,32.5478981 408.428196,24.3290985 402.942396,16.495499" id="Fill-85" fill="#60C7A8"></path>
                        <path d="M3.79943977,60.6924564 C3.79943977,60.6924564 -1.49495991,46.4328572 9.21623945,37.9854577 C19.9280388,29.5374582 33.813238,30.2232582 34.4324379,18.6282589 C34.4324379,18.6282589 26.8628384,21.9048587 19.9370388,25.0020585 C13.0106392,28.0986583 -8.22335951,41.8596575 3.79943977,60.6924564" id="Fill-87" fill="#F3B04C"></path>
                    </g>
                    <g id="Group-92" transform="translate(0.000000, 79.174795)">
                        <mask id="mask-74" fill="white">
                            <use xlink:href="#path-73"></use>
                        </mask>
                        <g id="Clip-91"></g>
                        <path d="M0,8.07359952 L0,8.19239951 C0.0251999985,16.814999 5.31959968,25.8629985 16.918799,39.1859977 L16.918799,39.1859977 C30.7931982,55.1231967 25.6349985,66.465596 25.6349985,66.465596 L25.6349985,66.465596 L26.0735984,66.1337961 C26.6363984,64.8377961 27.1421984,63.5237962 27.5795984,62.1953963 L27.5795984,62.1953963 C28.8119983,58.4441965 29.2229983,54.6881967 28.8131983,50.756397 L28.8131983,50.756397 C28.7873983,50.513397 28.7579983,50.270397 28.7279983,50.027997 L28.7279983,50.027997 C27.0341984,44.1893974 24.0209986,37.7381978 18.9677989,32.753398 L18.9677989,32.753398 C-1.12439993,12.9341992 1.40459992,0.351599979 1.40459992,0.351599979 L1.40459992,0.351599979 C0.484199971,2.95799982 0.00719999957,5.49779967 0,8.07359952" id="Fill-90" mask="url(#mask-74)"></path>
                    </g>
                    <g id="Group-95" transform="translate(11.999999, 22.774799)">
                        <mask id="mask-76" fill="white">
                            <use xlink:href="#path-75"></use>
                        </mask>
                        <g id="Clip-94"></g>
                        <path d="M9.91259941,1.6523999 C5.91299965,3.23279981 3.2927998,6.52199961 3.2927998,6.52199961 L3.2927998,6.52199961 C-3.49739979,13.4891992 2.19059987,21.3485987 11.2511993,24.9845985 L11.2511993,24.9845985 C20.3123988,28.6205983 21.8465987,35.2175979 21.8465987,35.2175979 L21.8465987,35.2175979 C28.4711983,22.8629986 14.2409992,20.8451988 7.29719957,15.8735991 L7.29719957,15.8735991 C4.76999972,14.0639992 2.51519985,9.18839945 3.22079981,7.68419954 L3.22079981,7.68419954 C3.22079981,7.68419954 2.80679983,6.87719959 6.6521996,4.94459971 L6.6521996,4.94459971 C9.90179941,3.3125998 14.4989991,4.94159971 14.4989991,4.94159971 L14.4989991,4.94159971 L16.112999,0.433199974 C16.112999,0.433199974 15.8963991,0.397799976 15.4751991,0.397799976 L15.4751991,0.397799976 C14.5547991,0.397799976 12.6569992,0.567599966 9.91259941,1.6523999" id="Fill-93" mask="url(#mask-76)"></path>
                    </g>
                    <g id="Group-107" transform="translate(117.599993, 12.574799)">
                        <path d="M111.399833,152.647431 C111.483233,154.185831 111.526433,155.730831 111.357233,157.257831 C111.309233,157.692831 111.241433,158.124831 111.164633,158.556231 C109.676033,160.99343 107.618634,163.01723 105.491634,164.96543 C99.6236341,170.34083 92.8622345,174.73943 89.1620347,181.904629 C88.0844347,183.990829 87.1910348,186.182629 86.3744349,188.399629 C86.4896348,188.231029 86.6036348,188.060629 86.7212348,187.893829 C87.4778348,186.819829 88.3154347,185.736229 89.2334347,184.709029 C90.0122346,183.670429 90.8666346,182.680429 91.8224345,181.752229 C96.8438342,176.880229 103.149834,172.99163 107.405634,167.40983 C108.845634,165.52043 109.780433,163.36343 110.612633,161.16563 C110.852633,160.97963 112.550033,156.479631 112.317233,156.536631 C113.134433,154.265631 113.854433,151.965231 114.052433,149.532831 C114.578633,143.076231 113.045033,136.616632 109.527833,131.003632 C106.041234,125.441033 101.209434,120.768833 96.0446343,116.640233 C91.0862346,112.677233 84.9932349,108.896034 82.4984351,102.863034 C82.0844351,101.861034 81.8054351,100.796034 81.6938351,99.7250341 C83.763235,97.4192342 86.4698348,96.0812343 89.2394347,94.6838344 C92.1380345,93.2204344 95.1986343,91.3238346 97.7180342,89.3198347 C100.182834,87.3596348 101.503434,84.7970349 102.590634,81.9434351 C102.618234,81.8720351 102.645834,81.8000351 102.673434,81.7286351 C102.808434,81.8774351 104.037234,78.6056353 104.212434,77.6912354 C105.063234,75.3446355 105.786234,72.9506357 106.032834,70.4684358 C106.372434,67.056836 105.494034,63.7472362 103.680234,60.7502364 C101.806434,57.6554366 99.2378341,55.0196367 95.7206343,53.7470368 C93.7874344,53.0474368 91.7222345,52.5848369 89.7020347,52.2314369 C87.9068348,51.9170369 85.8770349,51.2348369 84.149635,51.9092369 C83.621035,52.1156369 82.9910351,54.9356367 82.7912351,55.4774367 C82.4804351,56.3222366 82.1696351,57.1664366 81.8690351,58.0148365 C81.8126351,58.1726365 81.6248351,59.0282365 81.5090351,59.0732365 C83.051035,58.4714365 84.431635,59.0000365 86.0252349,59.2286365 C87.8498348,59.4896365 89.6792347,59.8964364 91.4564345,60.3968364 C94.9496343,61.3796363 97.5620342,63.1802362 99.7382341,66.0146361 C101.599434,68.4386359 102.973434,71.2778358 103.372434,74.2580356 C103.563234,75.6824355 103.481634,77.1104354 103.284834,78.5186353 C103.257234,78.7154353 103.224234,78.9098353 103.188834,79.1036353 C101.380434,81.8612351 98.4890341,83.485435 95.7032343,85.1972349 C94.3412344,86.0342349 93.0338345,86.9564348 91.5860345,87.6590348 C90.0044346,88.4258347 88.4702347,89.1482347 87.0524348,90.1820346 C84.672835,91.9172345 82.9010351,94.0076344 81.8294351,96.7214342 C81.7772351,96.8528342 81.7226351,96.9860342 81.6680351,97.1198342 C81.3752351,96.8588342 79.9598352,100.727034 79.7120352,102.022434 C79.2422353,103.467234 78.9344353,104.937834 79.0148353,106.383234 C79.3688353,112.689233 85.3640349,117.738233 90.2096346,121.346033 C95.5202343,125.298833 100.610034,129.665632 104.611434,134.897032 C108.734634,140.287432 111.040433,146.023431 111.399833,152.647431" id="Fill-96" fill="#FFB0AC"></path>
                        <path d="M81.6682151,97.1195942 C81.7228151,96.9863942 81.7774151,96.8525942 81.8296151,96.7211942 C82.9012151,94.0073944 84.673015,91.9175945 87.0526148,90.1817946 C88.4704147,89.1479947 90.0046146,88.4261947 91.5856145,87.6587948 C93.0334145,86.9567948 94.3414144,86.0339949 95.7034143,85.1969949 C98.4892141,83.485195 101.380614,81.8615951 103.189014,79.1033953 L104.212614,77.6915954 C104.037414,78.6053953 102.808014,81.8771951 102.673614,81.7283951 C102.646014,81.7997951 102.618414,81.8717951 102.590814,81.9437951 C101.503614,84.7967949 100.182414,87.3593948 97.7182142,89.3195947 C95.1988143,91.3241946 92.1382145,93.2201944 89.2396147,94.6835944 C86.4700148,96.0815943 83.763415,97.4195942 81.6940151,99.7253941 L81.6682151,97.1195942 Z" id="Fill-98" fill="#FFB0AC"></path>
                        <g id="Group-102" transform="translate(85.799995, 158.399991)">
                            <mask id="mask-78" fill="white">
                                <use xlink:href="#path-77"></use>
                            </mask>
                            <g id="Clip-101"></g>
                            <path d="M24.8123385,2.76551984 C23.9801386,4.9633197 23.0459386,7.12031958 21.6053387,9.00971946 C17.349539,14.5915191 11.0441393,18.4801189 6.02273964,23.3527186 C5.0669397,24.2803186 4.21253975,25.2703185 3.4331398,26.3089184 C2.51573985,27.3367184 1.6775399,28.4197183 0.921539945,29.4937182 C0.803339952,29.6611182 0.689939959,29.8309182 0.574739966,30.0001182 C1.39133992,27.7825183 2.28413986,25.5907185 3.3617398,23.5045186 C7.06193958,16.339319 13.8239392,11.9407193 19.6919388,6.56531961 C21.8189387,4.61711972 23.8757386,2.59331985 25.3649385,0.156119991 L24.8123385,2.76551984 Z" id="Fill-100" fill="#FFB0AC" mask="url(#mask-78)"></path>
                        </g>
                        <polygon id="Fill-103" fill="#FFC9C4" points="240.233446 88.2540547 254.133045 70.9068558 268.135844 94.8780543"></polygon>
                    </g>
                </g>
            </g>
        </g>
    </g>
</svg>