<?xml version="1.0" encoding="UTF-8"?>
<svg width="16px" height="16px" viewBox="0 0 16 16" version="1.1" xmlns="http://www.w3.org/2000/svg" xmlns:xlink="http://www.w3.org/1999/xlink">
    <!-- Generator: sketchtool 61.2 (101010) - https://sketch.com -->
    <title>32481597-3F5D-4194-A034-589658799586</title>
    <desc>Created with sketchtool.</desc>
    <g id="Page-1" stroke="none" stroke-width="1" fill="none" fill-rule="evenodd">
        <g id="1-(4)" transform="translate(-1317.000000, -33.000000)" fill="#FFFFFF" fill-rule="nonzero">
            <g id="Group-7" transform="translate(1204.000000, 32.000000)">
                <g id="next-(3)" transform="translate(121.000000, 9.000000) rotate(90.000000) translate(-121.000000, -9.000000) translate(113.000000, 1.000000)">
                    <path d="M15.2880003,7.64400013 C15.2880003,3.42888006 11.8591202,0 7.64400013,0 C3.42888006,0 0,3.42888006 0,7.64400013 C0,11.8591202 3.42888006,15.2880003 7.64400013,15.2880003 C11.8591202,15.2880003 15.2880003,11.8591202 15.2880003,7.64400013 Z M1.07016002,7.64400013 C1.07016002,4.01856007 4.01856007,1.07016002 7.64400013,1.07016002 C11.2694402,1.07016002 14.2178402,4.01856007 14.2178402,7.64400013 C14.2178402,11.2694402 11.2694402,14.2178402 7.64400013,14.2178402 C4.01856007,14.2178402 1.07016002,11.2694402 1.07016002,7.64400013 Z" id="Shape"></path>
                    <path d="M9.43176016,7.26648013 L7.18224012,5.01696009 C6.97320012,4.80792008 6.63312012,4.80792008 6.42408011,5.01696009 C6.21504011,5.22600009 6.21504011,5.5660801 6.42408011,5.7751201 L8.29608014,7.64712013 L6.42408011,9.51912017 C6.21504011,9.72816017 6.21504011,10.0682402 6.42408011,10.2772802 C6.52704011,10.3802402 6.66432012,10.4332802 6.80160012,10.4332802 C6.93888012,10.4332802 7.07616012,10.3802402 7.17912012,10.2772802 L9.42864016,8.02776014 C9.64080017,7.81248014 9.64080017,7.47552013 9.43176016,7.26648013 Z" id="Path"></path>
                </g>
            </g>
        </g>
    </g>
</svg>