<?xml version="1.0" encoding="UTF-8"?>
<svg width="30px" height="21px" viewBox="0 0 30 21" version="1.1" xmlns="http://www.w3.org/2000/svg" xmlns:xlink="http://www.w3.org/1999/xlink">
    <!-- Generator: sketchtool 61.2 (101010) - https://sketch.com -->
    <title>B32FE713-00E4-4B18-836E-3A4C741814CB</title>
    <desc>Created with sketchtool.</desc>
    <g id="Page-1" stroke="none" stroke-width="1" fill="none" fill-rule="evenodd">
        <g id="1-(4)" transform="translate(-535.000000, -3603.000000)" fill-rule="nonzero">
            <g id="Group-79" transform="translate(487.000000, 3569.000000)">
                <g id="mail" transform="translate(48.000000, 34.000000)">
                    <g id="Group" transform="translate(1.000000, 1.000000)" fill="#FFBD51">
                        <path d="M28.589815,0.0361575758 C28.8286524,0.26369697 28.9625122,0.576218182 28.9607612,0.90209697 L28.9607612,18.0980758 C28.9625122,18.4239545 28.8286524,18.7364758 28.589815,18.9640152 L25.8171321,16.2556515 L17.6940081,8.32090606 L28.3320569,0.287936364 L28.589815,0.0361575758 Z" id="Path"></path>
                        <path d="M3.18298577,16.2555939 L0.416609756,18.957797 L0.410302846,18.9639576 C0.171465447,18.7364182 0.0376056911,18.423897 0.0393490288,18.0980182 L0.0393490288,0.90209697 C0.0377825203,0.65699697 0.112345528,0.417136364 0.253160569,0.214239394 L0.668119919,0.287936364 L11.3061687,8.32090606 L3.18298577,16.2555939 Z" id="Path"></path>
                    </g>
                    <g id="Group" transform="translate(1.000000, 1.000000)" fill="#FFE451">
                        <path d="M0.178224066,18.626 L2.90462241,16.0186111 L10.9103568,8.36233333 L14.0581494,10.6852778 L17.2059419,8.36233333 L25.2116763,16.0186111 L27.9442905,18.6319444 C27.7147137,18.8570556 27.3993942,18.9832222 27.0705975,18.9815719 L1.04570124,18.9815719 C0.716904564,18.9832222 0.401585062,18.8570556 0.172008299,18.6319444 L0.178224066,18.626 Z" id="Path"></path>
                        <path d="M27.0705975,0.0185392573 C27.3993942,0.0168888889 27.7147137,0.143111111 27.9442905,0.368166667 L27.6902573,0.611111111 L17.2059419,8.36222222 L14.0581494,10.6851667 L10.9103568,8.36222222 L0.426041494,0.611166667 L0.0170788382,0.540055556 C0.248282158,0.213833333 0.63360166,0.0185392573 1.04570124,0.0185392573 L27.0705975,0.0185392573 Z" id="Path"></path>
                    </g>
                    <path d="M29.4536147,0.551003342 C29.1049261,0.196456501 28.6251643,-0.00244410389 28.1248949,2.26742969e-05 L1.87510512,2.26742969e-05 C1.2526687,-0.000475364285 0.670544455,0.304273946 0.321387095,0.813482655 C0.110334098,1.11985328 -0.0016962546,1.48233299 5.91645563e-05,1.85297717 L5.91645563e-05,19.1470228 C-0.00392279926,19.6362546 0.19324359,20.1061464 0.546385293,20.4489967 C0.895073907,20.8035435 1.37483569,21.0024441 1.87510512,20.9999773 L28.1248949,20.9999773 C29.1580116,20.9942217 29.9940791,20.167988 29.9999408,19.1470228 L29.9999408,1.85303507 C30.0039228,1.36380328 29.8067564,0.893911459 29.4536147,0.551003342 Z M15,10.9552131 L2.27195741,1.23537197 L27.727984,1.23537197 L15,10.9552131 Z M28.5586609,19.5868045 C28.4446384,19.7020337 28.28796,19.7663072 28.1248949,19.7647159 L1.87510512,19.7647159 C1.70653225,19.7650913 1.54528354,19.6967065 1.42950322,19.5756869 C1.31360571,19.4626002 1.24891873,19.3079962 1.25013195,19.1470228 L1.25013195,2.01545609 L10.8831775,9.37159373 L3.30823817,16.8574366 L4.19200063,17.7308042 L11.8794391,10.1337855 L14.6175617,12.2251081 C14.8425599,12.3967359 15.1563269,12.3967359 15.3813251,12.2251081 L18.1194477,10.1337855 L25.8068861,17.7308042 L26.6906486,16.8574366 L19.1157092,9.37159373 L28.7500267,2.01545609 L28.7500267,19.1470228 C28.7500267,19.3133813 28.6809451,19.4725018 28.5586609,19.5868045 L28.5586609,19.5868045 Z" id="Shape" fill="#FF9B33"></path>
                </g>
            </g>
        </g>
    </g>
</svg>