<?xml version="1.0" encoding="UTF-8"?>
<svg width="250px" height="247px" viewBox="0 0 250 247" version="1.1" xmlns="http://www.w3.org/2000/svg" xmlns:xlink="http://www.w3.org/1999/xlink">
    <!-- Generator: sketchtool 61.2 (101010) - https://sketch.com -->
    <title>040CD7D3-D79A-483D-B251-697A6A2FD15B</title>
    <desc>Created with sketchtool.</desc>
    <defs>
        <path d="M0.296329292,0.512762602 C-1.20106957,14.6884311 3.35546638,35.7182377 10.788657,42.6501382 L10.788657,42.6501382 C15.4395028,43.4398212 28.8440816,44.2511673 36.0555112,41.8372592 L36.0555112,41.8372592 C45.1592748,35.8058099 48.6386124,12.1822503 46.7570186,1.90073678 L46.7570186,1.90073678 C41.7492888,0.799901485 27.3897461,0.0484355268 14.8206584,0.0484355268 L14.8206584,0.0484355268 C9.32716138,0.0484355268 4.17510277,0.192004968 0.296329292,0.512762602" id="path-1"></path>
        <polygon id="path-3" points="0 0.0807924055 97.3974275 0.0807924055 97.3974275 68.4777665 0 68.4777665"></polygon>
        <polygon id="path-5" points="0.0696838709 0.0214705739 111.667043 0.0214705739 111.667043 48.2713397 0.0696838709 48.2713397"></polygon>
        <polygon id="path-7" points="0.043942568 0.0611255812 47.5110636 0.0611255812 47.5110636 43.6186785 0.043942568 43.6186785"></polygon>
    </defs>
    <g id="Page-1" stroke="none" stroke-width="1" fill="none" fill-rule="evenodd">
        <g id="1-(4)" transform="translate(-1160.000000, -3277.000000)">
            <g id="Group-39" transform="translate(1160.000000, 3277.000000)">
                <g id="Group-11" transform="translate(79.000000, 24.000000)" fill="#E5EBF0">
                    <path d="M41.5596884,195.01088 C41.1455901,188.412466 40.5454299,182.564053 39.4085327,175.280228 C35.0422851,149.317523 34.6077642,154.040212 28.1562472,126.924939 C23.8695352,107.819734 15.8591206,66.2170353 0.361173703,39.2861771 L0.0735114153,39.4372678 C6.55663737,56.6198463 6.34450824,58.0632816 24.0394848,116.294697 C29.9386656,135.290466 30.8985319,145.420329 33.3446363,158.496409 C34.1948975,163.003931 39.4097643,187.651767 41.2386724,195.060147 L41.5596884,195.01088 Z" id="Fill-1"></path>
                    <path d="M42.6117134,191.023927 C43.19884,184.773875 43.548694,179.023584 43.5618302,171.198651 C43.2955142,145.018412 42.1007357,149.07225 39.9838573,121.675468 C39.148477,108.676425 37.7918563,61.0743264 26.1880748,30.7614645 L25.8804003,30.8655514 C29.628836,48.9636221 29.5049657,52.6416361 37.574288,110.531271 C40.9258666,133.551669 39.5058227,144.455087 40.4734887,159.969497 C40.8024069,166.987654 41.6905372,184.06306 42.2867976,191.023927 L42.6117134,191.023927 Z" id="Fill-3"></path>
                    <path d="M44.7989422,199.158437 C45.6858411,172.431125 46.3998142,168.905744 48.5575379,143.831789 C49.5604048,131.806556 50.565119,119.423703 55.4164824,98.2856141 C61.2326382,72.7890373 72.8712102,24.8619239 81.4514075,0.185392061 L81.1540984,0.0541519668 C67.8877663,26.6513559 58.2398421,68.3792262 53.670086,97.9492856 C46.8938585,141.878205 40.5982313,163.808671 44.4743344,199.170985 L44.7989422,199.158437 Z" id="Fill-5"></path>
                    <path d="M35.9520594,216.920025 C35.3479994,216.920025 34.7439394,216.917865 34.1397768,216.918071 C35.8319864,208.627523 38.0934655,200.526122 41.0238648,191.640571 C45.6909109,177.286648 49.5757372,170.661286 64.8182465,133.743324 C76.2110278,106.172619 95.3660727,67.9710551 114.641396,45.1494723 L114.899296,45.347361 C101.600432,65.9401249 61.7254921,139.251397 51.825517,168.801503 C42.0538251,197.26425 38.3649128,208.702194 35.9520594,216.920025" id="Fill-7"></path>
                    <path d="M53.7707524,217.113173 C53.3336658,217.107104 52.8966818,217.101139 52.4596979,217.094968 C53.5321456,194.384054 52.7336082,129.485108 68.1549957,85.0349312 L68.4666726,85.1266759 C63.2687392,109.999348 57.7809884,159.201938 55.2322574,185.767361 C54.0498967,197.928051 53.6453427,208.837435 53.7707524,217.113173" id="Fill-9"></path>
                </g>
                <g id="Group-14" transform="translate(105.000000, 204.000000)">
                    <mask id="mask-2" fill="white">
                        <use xlink:href="#path-1"></use>
                    </mask>
                    <g id="Clip-13"></g>
                    <path d="M0.296329292,0.512762602 C-1.20106957,14.6884311 3.35546638,35.7182377 10.788657,42.6501382 L10.788657,42.6501382 C15.4395028,43.4398212 28.8440816,44.2511673 36.0555112,41.8372592 L36.0555112,41.8372592 C45.1592748,35.8058099 48.6386124,12.1822503 46.7570186,1.90073678 L46.7570186,1.90073678 C41.7492888,0.799901485 27.3897461,0.0484355268 14.8206584,0.0484355268 L14.8206584,0.0484355268 C9.32716138,0.0484355268 4.17510277,0.192004968 0.296329292,0.512762602" id="Fill-12" mask="url(#mask-2)"></path>
                </g>
                <g id="Group-38">
                    <g id="Group-20" transform="translate(0.000000, 39.921689)">
                        <mask id="mask-4" fill="white">
                            <use xlink:href="#path-3"></use>
                        </mask>
                        <g id="Clip-19"></g>
                        <path d="M-2.05564666e-05,7.40797364 C2.74580947,9.83722902 10.9459895,14.7361759 18.2868065,18.4736898 C22.1532723,20.5045514 24.1179566,21.3594723 28.7992808,20.8713576 C30.178928,20.7275161 32.6784916,20.2809693 34.1599961,20.8249538 C37.3602268,22.08722 37.536293,26.3914572 37.861599,29.7335611 C37.8720828,29.8248254 39.1630289,29.73459 41.1807489,29.5831345 C45.1922406,29.4239622 51.0823877,29.1916345 57.8141166,30.2579963 C65.7652551,31.5808653 50.1933206,29.2380383 38.945336,31.5088416 C38.3820888,31.6257257 38.0670609,31.7107137 38.0716861,31.7492978 C38.6689543,36.4405078 40.2161367,39.8290156 44.2911479,42.4781489 C54.5836679,49.7835094 61.8023795,43.6539867 65.8901356,49.0071972 C70.0159213,54.434592 74.6702136,59.5689534 80.8969729,63.2762173 C87.2115083,66.9641377 92.8136594,68.3960711 95.8622862,68.4777665 C96.5121788,66.873285 97.3198424,63.5566981 97.3929207,59.3651264 C97.5609698,49.756552 93.0305301,39.0949915 83.6069319,31.4406249 C77.4684627,26.3561656 82.5994595,17.7867898 70.9797112,8.32452625 C70.8268739,8.2010571 71.0667678,10.6124095 71.1602998,11.8281689 C71.5575535,17.3674063 71.8808039,24.5326293 71.1918539,30.0726897 C70.7591403,33.2597369 71.1584497,27.2734385 70.4382539,18.829178 C69.8548613,12.6251623 68.6193149,6.55006888 68.4111807,6.40560999 C54.7602479,-2.37891084 48.9135777,9.92180539 40.1098598,5.31681793 C37.6493535,4.07173452 36.7461024,2.80679315 32.7211462,1.54246913 C32.478066,1.46632983 33.6461872,2.64834109 35.0579026,4.09375318 C39.746627,8.96337617 42.9688532,13.350029 42.4298626,13.1614299 C42.4298626,13.1614299 36.0843897,6.12770152 31.5875599,2.60471532 C30.2465588,1.52497767 29.2957194,0.796201055 29.2196605,0.782928122 C15.4704678,-1.48273064 5.53974162,2.11382259 1.13808821,6.16690298 C0.309354265,6.93117697 -2.05564666e-05,7.40797364 -2.05564666e-05,7.40797364" id="Fill-18" fill="#ACA7EC" mask="url(#mask-4)"></path>
                    </g>
                    <path d="M102.546345,20.713667 C101.126407,22.5649839 100.268791,23.8671717 96.3825909,27.2324261 C92.9649755,30.1645096 86.8483989,35.0347499 84.6966508,40.4277792 C82.9008378,45.0109538 83.5701564,48.5384672 85.0894848,52.9606174 C87.0554025,58.4125003 85.8681638,60.4647632 84.0122232,64.7265064 C83.9229054,64.8909262 97.8799239,81.4927929 97.7148555,81.8943763 C97.699027,81.9253464 83.4562736,66.0457742 83.3670585,66.2926096 C81.6317844,70.8726975 82.2173353,75.1855775 83.8646278,79.8693794 C86.1407425,86.3571684 88.492094,89.7407374 91.4005256,92.6989552 C93.1370332,94.4796889 94.6998385,95.8045128 95.6037064,97.8437086 C96.6777817,100.209789 96.5717104,104.883302 99.0719934,114.827712 C101.438762,124.523024 104.662941,130.747824 106.125945,132.490488 C106.125945,132.490488 106.313009,132.328331 106.645921,131.99373 C113.309299,125.267131 115.605765,114.209132 114.255102,104.125921 C113.234371,96.4766994 111.40392,95.4460407 111.773012,91.1994224 C112.165024,86.8035094 114.634883,82.3159205 111.9499,72.8332846 C111.861199,72.5181296 109.654462,78.1692093 107.095388,83.8118521 C106.942551,84.1462477 104.722452,88.9615442 104.637246,88.6165509 C104.614942,88.5470995 106.791461,82.9106302 106.817156,82.8421048 C108.888631,77.3701582 111.205242,70.4757442 111.134836,70.26739 C108.165352,61.8705623 103.307653,60.3823476 99.7501512,57.8629597 C97.5817524,56.3236082 96.4232927,54.4132319 96.6443775,51.4883508 C96.9396711,48.0291569 97.2898505,47.6576177 96.8118099,48.1968692 C95.0099328,50.2306118 94.3901554,53.8946615 94.0604296,56.599253 C93.9538444,57.4625081 93.8453062,58.5409082 93.754755,58.3125932 C93.6155877,57.9194468 93.7039805,50.9383986 95.9890373,47.802694 C96.6312213,46.9122757 97.2820391,46.1984182 97.2820391,46.1984182 C97.8398388,43.0932722 99.7301087,39.4737743 101.198046,35.919715 C103.032402,31.5116608 104.964093,25.2461163 102.727447,21.0233687 C102.613359,20.8081208 102.546345,20.713667 102.546345,20.713667" id="Fill-21" fill="#ACA7EC"></path>
                    <path d="M122.280799,14.278054 C122.956387,15.1046799 127.291849,19.8633864 130.779048,26.4970748 C130.787887,26.5131258 132.925143,28.3017821 132.940869,28.315981 C133.022992,28.3914001 133.883897,29.1682268 133.930354,29.2697802 C134.007647,29.4381098 131.273534,27.4228876 131.415785,27.6957544 C134.633077,33.8365951 136.966544,40.3950701 138.949935,46.5965136 C138.964839,46.6453868 143.028955,50.0707295 143.104911,50.3622196 C143.1193,50.418398 139.207919,47.4437177 139.287986,47.6731645 C142.188915,57.037373 144.68632,67.4709271 145.809114,71.0080094 C147.764342,63.9303465 148.283702,57.4021214 147.914096,50.8825391 C147.07714,39.4477531 142.951868,30.3365535 136.734565,23.6682938 C136.679576,23.6074853 136.741862,23.8790145 136.859445,24.312597 C136.914434,24.521054 137.359584,26.0383869 137.684479,27.5652886 C138.032603,29.4502509 137.461441,26.984675 136.110882,23.4960544 C135.726578,22.5967875 135.988982,22.6909327 133.142425,20.2480957 C131.362954,18.8202779 130.657868,18.297489 128.347115,16.9087698 C127.683655,16.4959713 125.426761,15.3461649 123.347988,14.6264427 C122.652049,14.3896906 122.280799,14.278054 122.280799,14.278054" id="Fill-23" fill="#ACA7EC"></path>
                    <path d="M249.346352,59.8579432 C244.484645,57.495567 235.336195,56.473654 229.819148,56.9203037 C227.359361,57.1451204 225.649063,57.5876544 223.512013,58.3731239 C220.943174,59.3262028 219.340284,60.2567486 216.831984,60.3055189 C215.188186,60.3562441 213.542641,59.8686439 212.372669,59.6404318 C212.164638,59.6004072 206.760446,62.7662589 201.004841,67.5711635 C200.318357,68.1444719 197.870596,70.3112524 197.870596,70.3112524 C197.662359,70.3193808 202.760568,65.1941767 208.969443,60.9803806 C208.988561,60.9674164 211.208351,59.4508037 211.185431,59.4479228 C204.108456,58.5355887 195.402587,64.0291424 191.518134,67.9280922 C188.878889,70.6577891 188.091988,72.3885178 186.839688,74.0317892 C185.49252,75.9597599 184.311345,76.8487377 182.567951,78.6163014 C173.142709,88.2476148 171.295813,99.9507403 171.995555,103.434525 C176.783464,99.7742824 183.910597,89.7097981 190.340146,82.6439677 C193.505636,79.1440291 195.939316,80.4098965 204.665536,75.8208571 C204.873773,75.726609 201.270738,75.453022 195.205553,76.0100736 C194.380314,76.0784961 193.418271,76.2128717 193.528865,76.1290155 C193.737102,75.9835277 196.841642,75.5106409 197.68641,75.4240067 C202.191565,74.9238538 206.361547,74.9582194 206.361547,74.9582194 C214.619388,70.7732328 214.375589,67.3875031 218.67559,65.8705818 C221.24484,64.9563957 222.582038,65.2362591 226.104595,64.5263115 C226.372034,64.4803193 223.789217,64.3178545 221.179676,64.3108579 C218.545057,64.3233077 214.76205,64.4579919 216.861996,64.2646598 C223.373771,63.7602884 228.52738,64.039946 228.52738,64.039946 C236.489619,62.4456507 247.176206,60.9443688 249.346352,59.8579432" id="Fill-25" fill="#ACA7EC"></path>
                    <path d="M223.485958,0.260715384 C216.581452,-1.51065525 191.167595,8.09071685 170.757799,27.8299345 C170.550589,28.0200769 167.929332,34.2497125 165.555163,40.5107299 C163.15057,46.7667055 161.042299,53.0713486 160.861196,53.2745583 C160.613182,53.550306 161.997866,48.5614324 164.127619,42.0223008 C165.998977,36.2524849 168.08515,30.5011894 167.792426,30.8035859 C161.726007,37.1552501 155.282891,45.0768245 150.187251,52.7853118 C144.057621,62.0394269 135.290905,78.2482502 137.530018,89.1318493 C137.744011,90.1632282 138.089462,91.0969636 138.348371,91.5909431 C138.777384,92.4304304 139.355124,93.2392561 140.199069,93.67716 C141.623941,94.4166373 143.102876,93.5982427 144.42959,92.6618321 C147.110256,90.769153 150.891618,87.0120899 167.59015,69.5049886 C168.372837,68.6873142 143.671776,76.0654186 162.435924,69.7620102 C165.907603,68.6190975 169.395933,67.6069592 169.548153,67.4448031 C186.037523,50.0449142 192.269627,43.3004122 201.240469,31.1144194 C201.514898,30.7470987 196.554725,33.6794909 191.652214,36.8180765 C186.74004,39.9325856 181.901356,43.2338418 182.143306,42.8490296 C183.139472,41.2831322 204.168943,27.0661749 204.39157,26.7564732 C215.097172,11.6747174 219.853424,2.71538483 223.485958,0.260715384" id="Fill-27" fill="#E1C7FC"></path>
                    <path d="M115.325231,19.8883786 C113.678041,25.0680121 112.972646,26.273894 112.015434,29.1638951 C111.998784,29.2178099 112.610338,29.5917157 113.223743,29.9970031 C115.064164,31.2321061 114.619014,31.0475197 113.097116,30.391487 C112.449176,30.1044213 111.791677,29.8590263 111.772662,29.9251852 C110.654596,33.5873829 110.3555,37.3899238 111.527013,40.9992355 C111.527013,40.9992355 114.84791,41.857449 117.004283,42.728318 C119.565619,43.7571246 116.626661,42.6959073 114.864561,42.2038828 C114.760442,42.1745589 111.651688,41.3680996 111.687147,41.4651258 C112.74745,44.3821871 114.520856,46.1335969 115.733277,54.0263619 C124.612231,53.4124116 131.439137,42.2342356 127.077055,31.4127826 C126.481328,29.933931 125.708611,28.4958241 124.819852,27.1897264 C124.759518,27.1028864 124.122474,27.9551322 123.449763,28.752537 C122.78692,29.5592021 122.093242,30.3199778 122.041029,30.2430154 C122.010811,30.1999041 122.613321,29.3131898 123.18664,28.3778082 C123.761194,27.4466451 124.302548,26.4582746 124.265444,26.4110477 C123.325808,25.1484728 122.290687,24.0446586 121.260191,23.1529028 C119.771184,21.8843602 118.05698,20.7627459 116.151395,20.1335678 C115.621655,19.9570069 115.325231,19.8883786 115.325231,19.8883786" id="Fill-29" fill="#ACA7EC"></path>
                    <path d="M139.42111,37.8081344 C136.129608,37.3589125 132.017596,37.4594369 128.319179,38.4061366 C126.056529,39.0321251 124.08208,39.8294271 121.884285,41.3471716 C121.689307,41.4936883 121.192663,42.9713052 121.122668,43.1818201 C120.674846,44.5601473 120.478429,45.6437948 120.377085,46.1481663 C120.286329,46.6855657 120.215923,47.0516517 120.173474,47.1069042 C120.065963,47.2315051 120.002649,46.0934283 120.100087,44.88127 C120.209447,43.7137664 120.391886,42.4982127 120.28859,42.5823774 C119.827817,42.9558716 118.846759,43.9310721 118.481265,44.3563204 C114.236355,49.0736647 113.059703,54.9545 112.588549,56.6385162 C111.774615,59.7191742 111.195745,62.3818892 110.792427,65.5533999 C110.765704,65.7535228 116.00822,71.536303 115.988999,71.7338536 C115.962893,71.9384008 110.670219,66.5588503 110.650588,66.7566067 C109.334768,78.8189246 111.897954,89.8431756 114.05443,92.8569545 C116.011817,89.0733455 128.358956,73.9573271 129.769849,58.7198973 C130.146957,54.5173163 130.31182,52.3504329 130.769407,50.8316595 C130.822546,50.6649762 129.333641,50.8451383 129.049345,50.8920565 C128.001479,51.0978384 127.744831,51.2087549 127.129782,51.4080547 C125.291828,52.0732447 127.620773,50.7933841 128.755593,50.4616637 C129.89144,50.0800411 131.056478,49.9703594 131.07169,49.9124318 C132.792061,45.4107468 137.105424,41.0896355 139.42111,37.8081344" id="Fill-31" fill="#E1C7FC"></path>
                    <path d="M198.567275,191.757271 C204.249802,181.178332 192.40013,161.73791 173.790361,156.64491 C173.582226,156.590584 165.963691,159.473074 157.653226,165.907462 C156.09484,167.130116 155.101655,167.967134 155.009356,167.972998 C154.777171,167.971043 157.090801,165.544257 160.716037,162.676892 C164.92744,159.381912 168.420909,157.425544 170.055353,156.413817 C170.520135,156.126649 170.756432,155.957804 170.677392,155.943811 C138.626983,150.42186 114.388236,177.775522 136.76025,185.613755 C141.21792,187.178726 147.459891,188.193128 152.165369,188.849778 C152.375559,188.877456 149.908474,184.934983 146.326716,180.555739 C142.833144,176.292761 148.782186,182.324228 152.360758,187.405498 C153.055258,188.384197 153.501848,189.040127 153.556939,189.046609 C166.462391,190.853168 168.260671,191.081792 176.247475,190.534926 C176.306267,190.531222 176.238739,190.364848 176.071717,190.07346 C172.954535,184.800402 163.989654,178.475078 168.866778,181.429283 C173.68285,184.327515 178.286574,189.572279 178.582176,189.874161 C178.863594,190.163799 179.048705,190.323485 179.106366,190.323177 C187.181973,189.746267 192.014696,188.090237 198.567275,191.757271" id="Fill-33" fill="#ACA7EC"></path>
                    <g id="Group-37" transform="translate(138.036673, 114.414739)">
                        <mask id="mask-6" fill="white">
                            <use xlink:href="#path-5"></use>
                        </mask>
                        <g id="Clip-36"></g>
                        <path d="M111.667105,17.8511481 C105.82434,4.60774493 84.8002142,-6.24107707 55.0839917,4.19834183 C53.5499654,4.73358057 22.7237965,37.0983411 43.7936608,13.990268 C49.6971697,7.49105809 51.520631,5.51925588 51.2552471,5.62317574 C39.7735354,10.1267127 19.6739363,20.208174 10.4100619,27.2136074 C-3.10591765,37.4054706 -0.886024822,47.593424 3.21807373,48.2368012 C5.16353772,48.5377572 7.19883348,46.7928295 9.68883827,46.070638 C16.577413,43.8847197 21.287619,43.8973753 34.809971,39.7445935 C35.2925341,39.5964306 22.3809146,36.0811612 22.8693363,35.9273392 C23.2917717,35.7943012 37.1136314,39.023328 37.5401781,38.8861743 C58.7359508,32.069443 70.848232,25.190977 79.4967487,21.5446246 C79.7047801,21.454595 75.8773716,20.4749702 62.3976742,22.2532346 C60.3891018,22.517047 59.0911665,22.6829072 59.2724746,22.5624219 C59.6311849,22.3444988 65.9306113,20.8685281 71.8839696,20.2239163 C78.2190615,19.5089271 81.9398847,19.9085555 83.2485094,19.897752 C83.4335176,19.9046457 83.5501755,19.9020734 83.5912884,19.8868456 C89.5879181,17.5518383 94.8665104,16.6157364 99.8907163,16.3361817 C104.064501,16.1134228 107.864364,16.8360259 111.667105,17.8511481" id="Fill-35" fill="#E1C7FC" mask="url(#mask-6)"></path>
                    </g>
                </g>
                <g id="Group-17" transform="translate(105.000000, 203.000000)">
                    <mask id="mask-8" fill="white">
                        <use xlink:href="#path-7"></use>
                    </mask>
                    <g id="Clip-16"></g>
                    <path d="M47.0080025,1.92915098 C48.9369826,12.6211412 45.3107582,36.0152584 36.2625107,41.9987809 C32.7590181,43.7112481 19.2755199,44.1959569 10.8671582,42.8203852 C3.11691795,35.580706 -1.1104672,14.2909092 0.319492132,0.533353265 C13.0600426,-0.513495019 39.4872442,0.280528372 47.0080025,1.92915098 Z" id="Fill-15" fill="#F5EBFF" mask="url(#mask-8)"></path>
                </g>
            </g>
        </g>
    </g>
</svg>