<?xml version="1.0" encoding="UTF-8"?>
<svg width="28px" height="31px" viewBox="0 0 28 31" version="1.1" xmlns="http://www.w3.org/2000/svg" xmlns:xlink="http://www.w3.org/1999/xlink">
    <!-- Generator: sketchtool 61.2 (101010) - https://sketch.com -->
    <title>43DAECD1-D054-4D38-883D-F239E62FA90D</title>
    <desc>Created with sketchtool.</desc>
    <g id="Page-1" stroke="none" stroke-width="1" fill="none" fill-rule="evenodd">
        <g id="1-(4)" transform="translate(-536.000000, -3644.000000)" fill-rule="nonzero">
            <g id="Group-79" transform="translate(487.000000, 3569.000000)">
                <g id="support" transform="translate(49.000000, 75.000000)">
                    <path d="M19.3799998,29.6399996 L15.7319998,29.6399996 C15.227907,29.6399996 14.8199998,29.2320924 14.8199998,28.7279996 C14.8199998,28.2239068 15.227907,27.8159997 15.7319998,27.8159997 L19.3799998,27.8159997 C20.8886909,27.8159997 22.1159997,26.5886909 22.1159997,25.0799997 L22.1159997,21.4319997 C22.1159997,20.9279069 22.5239069,20.5199997 23.0279997,20.5199997 C23.5320925,20.5199997 23.9399997,20.9279069 23.9399997,21.4319997 L23.9399997,25.0799997 C23.9399997,27.5942621 21.8942621,29.6399996 19.3799998,29.6399996 Z" id="Path" fill="#575EE5"></path>
                    <path d="M27.3599997,13.3921988 L27.3599997,16.9634519 L25.5359997,19.09424 L25.5359997,13.3921988 C25.5359997,6.99959641 20.2099805,1.78562651 13.6799998,1.78562651 C7.15001911,1.78562651 1.82399998,6.99959641 1.82399998,13.3921988 L1.82399998,19.3799998 L0,16.9634519 L0,13.3921988 C0,5.99970508 6.12863992,0 13.6799998,0 C21.2313597,0 27.3599997,5.99970508 27.3599997,13.3921988 Z" id="Path" fill="#575EE5"></path>
                    <path d="M27.3599997,13.5926232 L27.3599997,17.2173228 L25.5359997,19.3799998 L25.5359997,13.5926232 C25.5359997,7.10435067 20.2099805,1.81234977 13.6799998,1.81234977 L13.6799998,0 C21.2313597,0 27.3599997,6.08949522 27.3599997,13.5926232 Z" id="Path" fill="#575EE5"></path>
                    <path d="M4.74999994,23.9399997 L2.84999996,23.9399997 C1.27844665,23.9399997 0,22.7288397 0,21.2399997 L0,17.5199998 C0,16.0311598 1.27844665,14.8199998 2.84999996,14.8199998 L4.74999994,14.8199998 C5.2750966,14.8199998 5.69999993,15.2225398 5.69999993,15.7199998 L5.69999993,23.0399997 C5.69999993,23.5374597 5.2750966,23.9399997 4.74999994,23.9399997 Z" id="Path" fill="#FFBD51"></path>
                    <path d="M24.5099997,23.9399997 L22.6099997,23.9399997 C22.0849031,23.9399997 21.6599997,23.5374597 21.6599997,23.0399997 L21.6599997,15.7199998 C21.6599997,15.2225398 22.0849031,14.8199998 22.6099997,14.8199998 L24.5099997,14.8199998 C26.081553,14.8199998 27.3599997,16.0311598 27.3599997,17.5199998 L27.3599997,21.2399997 C27.3599997,22.7288397 26.081553,23.9399997 24.5099997,23.9399997 Z" id="Path" fill="#FFBD51"></path>
                    <path d="M14.2499998,25.0799997 C12.6729365,25.0799997 11.3999999,26.3529363 11.3999999,27.9299996 C11.3999999,29.5069363 12.6729365,30.7799996 14.2499998,30.7799996 C15.8270631,30.7799996 17.0999998,29.5069363 17.0999998,27.9299996 C17.0999998,26.3529363 15.8270631,25.0799997 14.2499998,25.0799997 Z" id="Path" fill="#575EE5"></path>
                    <g id="Group" transform="translate(3.420000, 12.540000)" fill="#575EE5">
                        <path d="M12.5399998,15.522119 C12.5399998,17.0259526 11.3398024,18.2399998 9.85285702,18.2399998 L9.85285702,12.8042382 C11.3398024,12.8042382 12.5399998,14.0181646 12.5399998,15.522119 Z" id="Path"></path>
                        <path d="M2.68714282,12.8042382 C1.20539256,12.8042382 0,11.5850573 0,10.0863575 L0,2.71788076 C0,1.21918091 1.20539256,0 2.68714282,0 C4.16889309,0 5.37428565,1.21918091 5.37428565,2.71788076 L5.37428565,10.0863575 C5.37428565,11.5850573 4.16889309,12.8042382 2.68714282,12.8042382 Z" id="Path"></path>
                    </g>
                    <path d="M21.0899997,25.0799997 C19.5184464,25.0799997 18.2399998,23.8859788 18.2399998,22.4182073 L18.2399998,15.2017923 C18.2399998,13.7340208 19.5184464,12.5399998 21.0899997,12.5399998 C22.661553,12.5399998 23.9399997,13.7340208 23.9399997,15.2017923 L23.9399997,22.4182073 C23.9399997,23.8859788 22.661553,25.0799997 21.0899997,25.0799997 Z" id="Path" fill="#575EE5"></path>
                </g>
            </g>
        </g>
    </g>
</svg>