<?xml version="1.0" encoding="UTF-8"?>
<svg width="58px" height="58px" viewBox="0 0 58 58" version="1.1" xmlns="http://www.w3.org/2000/svg" xmlns:xlink="http://www.w3.org/1999/xlink">
    <!-- Generator: sketchtool 61.2 (101010) - https://sketch.com -->
    <title>9A7BE92D-D98B-4DD1-957A-2015D3F5C002</title>
    <desc>Created with sketchtool.</desc>
    <defs>
        <linearGradient x1="50.0000472%" y1="49.9999707%" x2="133.244103%" y2="49.9999707%" id="linearGradient-1">
            <stop stop-color="#636AEB" offset="0%"></stop>
            <stop stop-color="#5158E1" offset="100%"></stop>
        </linearGradient>
        <path d="M0.0647476139,0.0402676941 L0.0647476139,3.05511173 C0.0647476139,5.17537434 1.78357502,6.89411306 3.90374894,6.89411306 L3.90374894,6.89411306 L10.1316711,6.89411306 L10.1316711,7.80572398 C10.1316711,7.8091831 10.1310503,7.81264222 10.1310503,7.81619003 L10.1310503,7.81619003 L17.8897657,7.81619003 L17.8897657,6.89411306 L17.8897657,4.75690963 L17.8897657,3.6981531 C17.8897657,1.67793885 16.2520059,0.0402676941 14.2317029,0.0402676941 L14.2317029,0.0402676941 L0.0647476139,0.0402676941 Z" id="path-2"></path>
        <linearGradient x1="61.0201436%" y1="49.9992707%" x2="-46.5545889%" y2="49.9992707%" id="linearGradient-4">
            <stop stop-color="#FFFFFF" offset="0%"></stop>
            <stop stop-color="#ECECEC" offset="100%"></stop>
        </linearGradient>
        <path d="M1.42533446,1.87564081 C0.563215545,2.37339918 0.0321964162,3.29334747 0.0321964162,4.28877551 L0.0321964162,4.28877551 L0.0321964162,4.30323285 L0.0321964162,20.5475222 L0.0321964162,20.5620683 C0.0321964162,21.3142049 0.336244115,22.0226148 0.85644241,22.5389105 L0.85644241,22.5389105 L8.3618439,17.977308 C8.00440159,17.6799125 7.79029099,17.2380322 7.79029099,16.7639555 L7.79029099,16.7639555 L7.79029099,8.08671089 C7.79029099,7.52181013 8.09167783,6.99974923 8.58092144,6.71716581 L8.58092144,6.71716581 L9.13065529,6.39981381 L4.53268775,0.0815997325 L1.42533446,1.87564081 Z" id="path-5"></path>
        <linearGradient x1="49.0920623%" y1="50.4357643%" x2="42.999208%" y2="107.936527%" id="linearGradient-7">
            <stop stop-color="#FFFFFF" offset="0%"></stop>
            <stop stop-color="#ECECEC" offset="100%"></stop>
        </linearGradient>
        <path d="M9.15602216,0.0645702231 L9.15602216,0.976181148 C9.15602216,1.5411706 8.85454663,2.0632315 8.36530302,2.34563753 L8.36530302,2.34563753 L0.837816384,6.69179894 C0.593105882,6.83300195 0.32010156,6.90351476 0.0470972369,6.90351476 L0.0470972369,6.90351476 L0.0470972369,15.675486 C0.528180877,15.675486 1.00917582,15.5510464 1.44014658,15.3021672 L1.44014658,15.3021672 L10.3581104,10.1534902 C10.4026355,10.1365494 10.4468945,10.1167703 10.4901778,10.0917582 L10.4901778,10.0917582 L15.5209787,7.18725123 C16.3830089,6.68949286 16.9141167,5.76972196 16.9141167,4.77429392 L16.9141167,4.77429392 L16.9141167,4.75974788 L16.9141167,0.0645702231 L9.15602216,0.0645702231 Z" id="path-8"></path>
        <linearGradient x1="49.9998986%" y1="72.2403156%" x2="49.9998986%" y2="8.29245122%" id="linearGradient-10">
            <stop stop-color="#FFFFFF" offset="0%"></stop>
            <stop stop-color="#DEDBDB" offset="100%"></stop>
        </linearGradient>
        <path d="M15.1512964,0.412788212 L6.23342131,5.56146525 C6.18889624,5.57858345 6.14463725,5.59818513 6.10135391,5.62319722 L6.10135391,5.62319722 L1.07055301,8.52779292 C0.65279786,8.7690443 0.314868533,9.11069883 0.0753023619,9.51071491 L0.0753023619,9.51071491 L7.56057,14.1240267 C7.69237131,13.8118191 7.92297925,13.5444913 8.22613999,13.3693179 L8.22613999,13.3693179 L15.7536266,9.0234226 C15.9984258,8.88213089 16.2714301,8.81144068 16.5444345,8.81144068 L16.5444345,8.81144068 L16.5444345,0.0395581312 C16.0633508,0.0395581312 15.5822672,0.163997723 15.1512964,0.412788212" id="path-11"></path>
        <linearGradient x1="75.7866333%" y1="44.6950548%" x2="10.647525%" y2="83.3805842%" id="linearGradient-13">
            <stop stop-color="#FFFFFF" offset="0%"></stop>
            <stop stop-color="#ECECEC" offset="100%"></stop>
        </linearGradient>
        <path d="M0.052507654,4.30633719 C0.29198513,4.79779819 0.669649979,5.21927855 1.15924837,5.50203936 L1.15924837,5.50203936 L6.19004928,8.40654636 C6.23333261,8.43155845 6.2775916,8.45133752 6.32211667,8.46827833 L6.32211667,8.46827833 L15.2399918,13.6169554 C15.6709625,13.8658346 16.1520462,13.9902741 16.6331298,13.9902741 L16.6331298,13.9902741 L16.6331298,5.2183029 C16.3601255,5.2183029 16.0871212,5.14779008 15.842322,5.00658707 L15.842322,5.00658707 L8.31483536,0.660425661 C8.07056833,0.519400037 7.87313246,0.318505043 7.7365416,0.0823979908 L7.7365416,0.0823979908 L0.052507654,4.30633719 Z" id="path-14"></path>
        <linearGradient x1="48.8447494%" y1="36.9913238%" x2="103.552863%" y2="111.467398%" id="linearGradient-16">
            <stop stop-color="#FFFFFF" offset="0%"></stop>
            <stop stop-color="#ECECEC" offset="100%"></stop>
        </linearGradient>
        <path d="M0.0470972369,8.81144068 C0.32010156,8.81144068 0.593105882,8.88213089 0.837816384,9.0234226 L0.837816384,9.0234226 L6.15395026,12.0926369 C6.55219244,12.322624 7.00400661,12.4436044 7.46380336,12.4436044 L7.46380336,12.4436044 L15.4258086,12.4436044 C16.2477485,12.4436044 16.9141167,11.7773249 16.9141167,10.955385 L16.9141167,10.955385 L16.9141167,10.9409276 C16.9141167,9.94541088 16.3830089,9.02546259 15.5209787,8.52779292 L15.5209787,8.52779292 L10.4901778,5.62319722 C10.4468945,5.59818513 10.4026355,5.57858345 10.3581104,5.56146525 L10.3581104,5.56146525 L1.44014658,0.412788212 C1.00917582,0.163997723 0.528180877,0.0395581312 0.0470972369,0.0395581312 L0.0470972369,0.0395581312 L0.0470972369,8.81144068 Z" id="path-17"></path>
        <linearGradient x1="64.35302%" y1="68.8034092%" x2="-34.2431514%" y2="24.9614465%" id="linearGradient-19">
            <stop stop-color="#FFFFFF" offset="0%"></stop>
            <stop stop-color="#ECECEC" offset="100%"></stop>
        </linearGradient>
    </defs>
    <g id="Page-1" stroke="none" stroke-width="1" fill="none" fill-rule="evenodd">
        <g id="1-(4)" transform="translate(-91.000000, -11.000000)">
            <g id="Group" transform="translate(91.000000, 11.000000)">
                <rect id="square-sample" fill="url(#linearGradient-1)" x="0" y="0" width="57.4079985" height="57.4079985" rx="13.4549997"></rect>
                <g id="Group-24" transform="translate(11.661000, 9.418500)">
                    <path d="M32.4329189,8.83462387 L27.402118,5.93002818 C27.3588347,5.90501609 27.3145757,5.88541441 27.2700506,5.8683849 L18.3521755,0.719619168 C17.4900566,0.22203819 16.4280183,0.22203819 15.5658994,0.719619168 L6.64802427,5.8683849 C6.6034992,5.88541441 6.55924022,5.90501609 6.51595688,5.93002818 L1.48524467,8.83462387 C0.623125762,9.33238224 0.0920179372,10.2522418 0.0920179372,11.2477586 L0.0920179372,11.2623046 L0.0920179372,27.5065053 L0.0920179372,27.5210513 C0.0920179372,28.5164794 0.623037066,29.4362503 1.48506728,29.9339199 L6.51595688,32.8385156 C6.55924022,32.8636164 6.6034992,32.8833955 6.64802427,32.9002476 L15.5658994,38.0489246 C16.4280183,38.546683 17.4900566,38.546683 18.3521755,38.0489246 L27.2700506,32.9002476 C27.3145757,32.8833955 27.3588347,32.8636164 27.402118,32.8385156 L32.4330076,29.9339199 C33.2950378,29.4361616 33.8260569,28.5164794 33.8260569,27.5210513 L33.8260569,27.5065053 L33.8260569,22.8113276 L33.8260569,20.6741242 L33.8260569,19.6154564 C33.8260569,17.5951534 32.1882971,15.9574823 30.1680828,15.9574823 L16.0010388,15.9574823 L16.0010388,18.9723263 C16.0010388,21.0925889 17.7198662,22.8113276 19.8400402,22.8113276 L26.0679624,22.8113276 L26.0679624,23.7229386 C26.0679624,24.287928 25.7665755,24.8099002 25.2772432,25.0923949 L17.7497566,29.4385563 C17.260513,29.7209624 16.6576506,29.7209624 16.1683183,29.4385563 L8.64083166,25.0923949 C8.15149935,24.8099002 7.85011251,24.287928 7.85011251,23.7229386 L7.85011251,15.045694 C7.85011251,14.4807045 8.15149935,13.9586436 8.64083166,13.6761489 L16.1683183,9.33025355 C16.6576506,9.04775883 17.260513,9.04775883 17.7497566,9.33025355 L23.0658905,12.3994678 C23.4641326,12.6294549 23.9159468,12.7504354 24.3758323,12.7504354 L32.3378375,12.7504354 C33.1596887,12.7504354 33.8260569,12.0841558 33.8260569,11.2623046 L33.8260569,11.2477586 C33.8260569,10.2522418 33.2950378,9.33238224 32.4329189,8.83462387" id="Fill-4" fill="#FEFEFE"></path>
                    <g id="Group-8" transform="translate(15.936318, 15.917250)">
                        <mask id="mask-3" fill="white">
                            <use xlink:href="#path-2"></use>
                        </mask>
                        <g id="Clip-7"></g>
                        <path d="M0.0647476139,0.0402676941 L0.0647476139,3.05511173 C0.0647476139,5.17537434 1.78357502,6.89411306 3.90374894,6.89411306 L3.90374894,6.89411306 L10.1316711,6.89411306 L10.1316711,7.80572398 C10.1316711,7.8091831 10.1310503,7.81264222 10.1310503,7.81619003 L10.1310503,7.81619003 L17.8897657,7.81619003 L17.8897657,6.89411306 L17.8897657,4.75690963 L17.8897657,3.6981531 C17.8897657,1.67793885 16.2520059,0.0402676941 14.2317029,0.0402676941 L14.2317029,0.0402676941 L0.0647476139,0.0402676941 Z" id="Fill-6" fill="url(#linearGradient-4)" mask="url(#mask-3)"></path>
                    </g>
                    <g id="Group-11" transform="translate(0.059848, 6.959019)">
                        <mask id="mask-6" fill="white">
                            <use xlink:href="#path-5"></use>
                        </mask>
                        <g id="Clip-10"></g>
                        <path d="M1.42533446,1.87564081 C0.563215545,2.37339918 0.0321964162,3.29334747 0.0321964162,4.28877551 L0.0321964162,4.28877551 L0.0321964162,4.30323285 L0.0321964162,20.5475222 L0.0321964162,20.5620683 C0.0321964162,21.3142049 0.336244115,22.0226148 0.85644241,22.5389105 L0.85644241,22.5389105 L8.3618439,17.977308 C8.00440159,17.6799125 7.79029099,17.2380322 7.79029099,16.7639555 L7.79029099,16.7639555 L7.79029099,8.08671089 C7.79029099,7.52181013 8.09167783,6.99974923 8.58092144,6.71716581 L8.58092144,6.71716581 L9.13065529,6.39981381 L4.53268775,0.0815997325 L1.42533446,1.87564081 Z" id="Fill-9" fill="url(#linearGradient-7)" mask="url(#mask-6)"></path>
                    </g>
                    <g id="Group-14" transform="translate(16.911967, 22.746793)">
                        <mask id="mask-9" fill="white">
                            <use xlink:href="#path-8"></use>
                        </mask>
                        <g id="Clip-13"></g>
                        <path d="M9.15602216,0.0645702231 L9.15602216,0.976181148 C9.15602216,1.5411706 8.85454663,2.0632315 8.36530302,2.34563753 L8.36530302,2.34563753 L0.837816384,6.69179894 C0.593105882,6.83300195 0.32010156,6.90351476 0.0470972369,6.90351476 L0.0470972369,6.90351476 L0.0470972369,15.675486 C0.528180877,15.675486 1.00917582,15.5510464 1.44014658,15.3021672 L1.44014658,15.3021672 L10.3581104,10.1534902 C10.4026355,10.1365494 10.4468945,10.1167703 10.4901778,10.0917582 L10.4901778,10.0917582 L15.5209787,7.18725123 C16.3830089,6.68949286 16.9141167,5.76972196 16.9141167,4.77429392 L16.9141167,4.77429392 L16.9141167,4.75974788 L16.9141167,0.0645702231 L9.15602216,0.0645702231 Z" id="Fill-12" fill="url(#linearGradient-10)" mask="url(#mask-9)"></path>
                    </g>
                    <g id="Group-17" transform="translate(0.414630, 0.306866)">
                        <mask id="mask-12" fill="white">
                            <use xlink:href="#path-11"></use>
                        </mask>
                        <g id="Clip-16"></g>
                        <path d="M15.1512964,0.412788212 L6.23342131,5.56146525 C6.18889624,5.57858345 6.14463725,5.59818513 6.10135391,5.62319722 L6.10135391,5.62319722 L1.07055301,8.52779292 C0.65279786,8.7690443 0.314868533,9.11069883 0.0753023619,9.51071491 L0.0753023619,9.51071491 L7.56057,14.1240267 C7.69237131,13.8118191 7.92297925,13.5444913 8.22613999,13.3693179 L8.22613999,13.3693179 L15.7536266,9.0234226 C15.9984258,8.88213089 16.2714301,8.81144068 16.5444345,8.81144068 L16.5444345,8.81144068 L16.5444345,0.0395581312 C16.0633508,0.0395581312 15.5822672,0.163997723 15.1512964,0.412788212" id="Fill-15" fill="url(#linearGradient-13)" mask="url(#mask-12)"></path>
                    </g>
                    <g id="Group-20" transform="translate(0.325934, 24.432005)">
                        <mask id="mask-15" fill="white">
                            <use xlink:href="#path-14"></use>
                        </mask>
                        <g id="Clip-19"></g>
                        <path d="M0.052507654,4.30633719 C0.29198513,4.79779819 0.669649979,5.21927855 1.15924837,5.50203936 L1.15924837,5.50203936 L6.19004928,8.40654636 C6.23333261,8.43155845 6.2775916,8.45133752 6.32211667,8.46827833 L6.32211667,8.46827833 L15.2399918,13.6169554 C15.6709625,13.8658346 16.1520462,13.9902741 16.6331298,13.9902741 L16.6331298,13.9902741 L16.6331298,5.2183029 C16.3601255,5.2183029 16.0871212,5.14779008 15.842322,5.00658707 L15.842322,5.00658707 L8.31483536,0.660425661 C8.07056833,0.519400037 7.87313246,0.318505043 7.7365416,0.0823979908 L7.7365416,0.0823979908 L0.052507654,4.30633719 Z" id="Fill-18" fill="url(#linearGradient-16)" mask="url(#mask-15)"></path>
                    </g>
                    <g id="Group-23" transform="translate(16.911967, 0.306866)">
                        <mask id="mask-18" fill="white">
                            <use xlink:href="#path-17"></use>
                        </mask>
                        <g id="Clip-22"></g>
                        <path d="M0.0470972369,8.81144068 C0.32010156,8.81144068 0.593105882,8.88213089 0.837816384,9.0234226 L0.837816384,9.0234226 L6.15395026,12.0926369 C6.55219244,12.322624 7.00400661,12.4436044 7.46380336,12.4436044 L7.46380336,12.4436044 L15.4258086,12.4436044 C16.2477485,12.4436044 16.9141167,11.7773249 16.9141167,10.955385 L16.9141167,10.955385 L16.9141167,10.9409276 C16.9141167,9.94541088 16.3830089,9.02546259 15.5209787,8.52779292 L15.5209787,8.52779292 L10.4901778,5.62319722 C10.4468945,5.59818513 10.4026355,5.57858345 10.3581104,5.56146525 L10.3581104,5.56146525 L1.44014658,0.412788212 C1.00917582,0.163997723 0.528180877,0.0395581312 0.0470972369,0.0395581312 L0.0470972369,0.0395581312 L0.0470972369,8.81144068 Z" id="Fill-21" fill="url(#linearGradient-19)" mask="url(#mask-18)"></path>
                    </g>
                </g>
            </g>
        </g>
    </g>
</svg>