<?xml version="1.0" encoding="UTF-8"?>
<svg width="142px" height="195px" viewBox="0 0 142 195" version="1.1" xmlns="http://www.w3.org/2000/svg" xmlns:xlink="http://www.w3.org/1999/xlink">
    <!-- Generator: sketchtool 61.2 (101010) - https://sketch.com -->
    <title>4D963DA1-CC2B-4E3B-ACC5-A46AC01873CC</title>
    <desc>Created with sketchtool.</desc>
    <defs>
        <polygon id="path-1" points="0 194.399988 141.599992 194.399988 141.599992 0 0 0"></polygon>
    </defs>
    <g id="Page-1" stroke="none" stroke-width="1" fill="none" fill-rule="evenodd">
        <g id="1-(4)" transform="translate(-35.000000, -2287.000000)">
            <g id="Group-76" transform="translate(0.000000, 1820.000000)">
                <g id="Group-25" transform="translate(35.000000, 467.000000)">
                    <path d="M6.99550372,179.065032 L23.5359957,191.043388 L41.0415962,150.50174 L24.2985989,127.946967 L6.99550372,179.065032 Z M23.9618203,193.599988 C23.7524291,193.599988 23.5456984,193.53437 23.3723013,193.408772 L5.21599198,180.260095 C4.85886896,180.001382 4.71176308,179.540176 4.85323512,179.12235 L23.0095444,125.483391 C23.1295766,125.128991 23.435995,124.870434 23.8054812,124.812176 C24.1746543,124.754232 24.545862,124.905827 24.7688682,125.206041 L43.0017039,149.767882 C43.2157899,150.056351 43.2599217,150.437218 43.1175106,150.767031 L24.8848315,192.992982 C24.7638604,193.272994 24.5223876,193.483003 24.2283323,193.563969 C24.1405383,193.588086 24.0508663,193.599988 23.9618203,193.599988 L23.9618203,193.599988 Z" id="Fill-1" fill="#D8D5F2"></path>
                    <mask id="mask-2" fill="white">
                        <use xlink:href="#path-1"></use>
                    </mask>
                    <g id="Clip-4"></g>
                    <polygon id="Fill-3" fill="#B0AAF0" mask="url(#mask-2)" points="23.1999986 118.399993 25.5999985 118.399993 25.5999985 0 23.1999986 0"></polygon>
                    <path d="M23.5999986,167.199992 C21.1699583,167.199992 19.1999989,165.147383 19.1999989,162.615393 L19.1999989,131.199992 L27.9999983,131.199992 L27.9999983,162.615393 C27.9999983,165.147383 26.0300389,167.199992 23.5999986,167.199992" id="Fill-5" fill="#F6B559" mask="url(#mask-2)"></path>
                    <path d="M31.1999981,133.599993 L17.599999,133.599993 L17.599999,116.172644 C17.599999,114.751734 18.7615771,113.599993 20.1946231,113.599993 L28.605374,113.599993 C30.03842,113.599993 31.1999981,114.751734 31.1999981,116.172644 L31.1999981,133.599993 Z" id="Fill-6" fill="#6D7EB5" mask="url(#mask-2)"></path>
                    <path d="M29.8113035,132.799992 L18.1886937,132.799992 C16.9799835,132.799992 15.999999,131.904463 15.999999,130.799921 C15.999999,129.695378 16.9799835,128.799992 18.1886937,128.799992 L29.8113035,128.799992 C31.0200136,128.799992 31.999999,129.695378 31.999999,130.799921 C31.999999,131.904463 31.0200136,132.799992 29.8113035,132.799992" id="Fill-7" fill="#6D7EB5" mask="url(#mask-2)"></path>
                    <path d="M29.8113035,119.999993 L18.1886937,119.999993 C16.9799835,119.999993 15.999999,119.104607 15.999999,117.999921 C15.999999,116.895379 16.9799835,115.999993 18.1886937,115.999993 L29.8113035,115.999993 C31.0200136,115.999993 31.999999,116.895379 31.999999,117.999921 C31.999999,119.104607 31.0200136,119.999993 29.8113035,119.999993" id="Fill-8" fill="#6D7EB5" mask="url(#mask-2)"></path>
                    <path d="M8.30112719,190.383562 L30.3834099,192.397753 L40.8034174,189.717185 L46.0107905,160.498609 L40.3514164,130.388062 L30.328786,127.594621 L13.7160092,127.594621 L7.15928699,130.307638 L1.99013509,158.868997 L8.30112719,190.383562 Z M30.3742801,194.399988 L7.38257949,192.302889 L6.49807501,191.506093 L0.00355906283,159.075028 L0,158.700385 L5.30006352,129.414891 L5.899224,128.67104 L13.14006,125.675138 L13.5190228,125.599993 L30.4643399,125.599993 L30.7303411,125.636323 L41.479794,128.632225 L42.1905234,129.40837 L47.9984497,160.309036 L48,160.669395 L42.6479404,190.699516 L41.9163208,191.490101 L30.7111531,194.372818 L30.3742801,194.399988 Z" id="Fill-9" fill="#B0AAF0" mask="url(#mask-2)"></path>
                    <path d="M2.05165528,158.36848 L14.4155288,176.655038 L25.9096485,156.185579 L13.5938096,128.642134 L2.05165528,158.36848 Z M28.0407397,156.169349 L36.3661261,188.991676 L45.973836,159.211959 L31.1547538,129.497161 L28.0407397,156.169349 Z M9.08290395,190.2345 L21.9785787,191.411313 L14.5726908,180.457949 L9.08290395,190.2345 Z M23.8998098,193.599993 L7.36438227,192.090934 L6.58479057,190.600294 L13.3202141,178.605417 L0.104152829,159.058401 L0,158.131276 L12.5984506,125.684731 L14.4399348,125.638382 L26.456684,152.512662 L29.5601274,125.932078 L31.4449827,125.599993 L47.9429463,158.681371 L48,159.439176 L37.2012142,192.910536 L35.2834031,192.848894 L26.6741613,158.907339 L15.66785,178.50757 L24.8165101,192.038499 L23.8998098,193.599993 Z" id="Fill-10" fill="#B0AAF0" mask="url(#mask-2)"></path>
                    <polygon id="Fill-11" fill="#D8D5F2" mask="url(#mask-2)" points="140.748669 115.999993 124.799993 115.288172 124.851315 114.399993 140.799992 115.111814"></polygon>
                    <path d="M120.526327,116.799993 L120.338606,115.790652 L125.532175,114.760935 L128.778446,110.710094 L120.069611,111.340471 L119.999993,110.315246 L129.867478,109.601119 C130.066077,109.587642 130.253954,109.696101 130.344862,109.878844 C130.435925,110.061588 130.412771,110.282837 130.28581,110.441193 L126.185158,115.558172 C126.1115,115.650105 126.009092,115.712677 125.895496,115.7353 L120.526327,116.799993 Z" id="Fill-12" fill="#D8D5F2" mask="url(#mask-2)"></path>
                    <path d="M129.821509,109.607584 L140.44192,110.167155 L133.951616,83.8031391 L130.368345,82.0882848 L129.821509,109.607584 Z M141.093984,111.199993 C141.085136,111.199993 141.075972,111.199993 141.066966,111.19937 L129.279097,110.578265 C129.006547,110.563933 128.79467,110.339139 128.800094,110.070258 L129.372,81.2892761 C129.375318,81.1191615 129.466326,80.9624443 129.613423,80.8734925 C129.760679,80.7845406 129.943326,80.7758168 130.098798,80.8501251 L134.608104,83.008025 C134.743984,83.0731421 134.843207,83.1944967 134.878757,83.3392187 L141.585679,110.583406 C141.62344,110.736696 141.585521,110.898554 141.483295,111.019753 C141.386915,111.134253 141.243926,111.199993 141.093984,111.199993 L141.093984,111.199993 Z" id="Fill-13" fill="#D8D5F2" mask="url(#mask-2)"></path>
                    <path d="M131.411322,95.9999943 L128.588708,95.9999943 C127.165123,95.9999943 126.120608,94.2690126 126.466682,92.482981 L128.579653,83.199995 L131.420377,83.199995 L133.533348,92.482981 C133.879268,94.2690126 132.834907,95.9999943 131.411322,95.9999943" id="Fill-14" fill="#F6B559" mask="url(#mask-2)"></path>
                    <path d="M132.724439,83.999995 L128.075546,83.999995 C127.591972,83.999995 127.199992,83.6418077 127.199992,83.1999224 C127.199992,82.7581823 127.591972,82.3999951 128.075546,82.3999951 L132.724439,82.3999951 C133.208013,82.3999951 133.599992,82.7581823 133.599992,83.1999224 C133.599992,83.6418077 133.208013,83.999995 132.724439,83.999995" id="Fill-15" fill="#6D7EB5" mask="url(#mask-2)"></path>
                    <path d="M132.724439,78.3999953 L128.075546,78.3999953 C127.591972,78.3999953 127.199992,78.0418081 127.199992,77.5999227 C127.199992,77.1581827 127.591972,76.7999954 128.075546,76.7999954 L132.724439,76.7999954 C133.208013,76.7999954 133.599992,77.1581827 133.599992,77.5999227 C133.599992,78.0418081 133.208013,78.3999953 132.724439,78.3999953" id="Fill-16" fill="#6D7EB5" mask="url(#mask-2)"></path>
                    <path d="M120.560189,116.532351 L132.169596,118.184537 L140.607278,116.332601 L140.607278,111.614212 L136.465777,84.0316555 L132.587605,82.6003024 L126.122798,82.6003024 L123.603427,83.9804298 L120.197202,111.661221 L120.560189,116.532351 Z M132.206949,119.199993 L119.630246,117.410216 L119.199993,111.636858 L122.681234,83.3471361 L125.870318,81.5999951 L132.763674,81.5999951 L137.359452,83.2960665 L141.599992,111.57673 L141.599992,117.138313 L132.206949,119.199993 Z" id="Fill-17" fill="#B0AAF0" mask="url(#mask-2)"></path>
                    <polygon id="Fill-18" fill="#B0AAF0" mask="url(#mask-2)" points="129.599992 78.3999953 131.199992 78.3999953 131.199992 0 129.599992 0"></polygon>
                    <path d="M132.799992,83.199995 L127.199992,83.199995 L127.199992,77.1378059 C127.199992,76.5093472 127.723169,75.9999955 128.368316,75.9999955 L131.631668,75.9999955 C132.276815,75.9999955 132.799992,76.5093472 132.799992,77.1378059 L132.799992,83.199995 Z" id="Fill-19" fill="#6D7EB5" mask="url(#mask-2)"></path>
                    <polygon id="Fill-20" fill="#B0AAF0" mask="url(#mask-2)" points="126.723023 84.7999949 123.199993 83.4499415 123.54026 82.415249 126.886091 83.6974313 133.143329 83.5325523 137.354199 82.3999951 137.599992 83.4651953 133.224149 84.6286031"></polygon>
                    <polygon id="Fill-21" fill="#B0AAF0" mask="url(#mask-2)" points="124.875995 111.999993 119.999993 110.930846 120.203103 109.966704 124.005911 110.800282 126.237105 83.999995 127.199992 84.0834452"></polygon>
                    <polygon id="Fill-22" fill="#B0AAF0" mask="url(#mask-2)" points="134.177805 112.799993 131.999992 84.0756997 132.970594 83.999995 135.058899 111.54493 140.553352 110.084956 140.799992 111.040284"></polygon>
                    <polygon id="Fill-23" fill="#B0AAF0" mask="url(#mask-2)" points="132.155449 119.199993 124.31078 112.625955 120.696359 116.92165 119.999993 116.191775 124.200262 111.199993 131.815245 117.581784 134.417408 111.805033 140.799992 115.841568 140.328986 116.769183 134.819806 113.28509"></polygon>
                    <polygon id="Fill-24" fill="#B0AAF0" mask="url(#mask-2)" points="135.143857 112.799993 123.999993 112.203918 124.056127 111.199993 135.199992 111.796069"></polygon>
                </g>
            </g>
        </g>
    </g>
</svg>