<?xml version="1.0" encoding="UTF-8"?>
<svg width="115px" height="34px" viewBox="0 0 115 34" version="1.1" xmlns="http://www.w3.org/2000/svg" xmlns:xlink="http://www.w3.org/1999/xlink">
    <!-- Generator: sketchtool 61.2 (101010) - https://sketch.com -->
    <title>B36E970C-40BE-41B7-8CA3-522F801F12BF</title>
    <desc>Created with sketchtool.</desc>
    <g id="Page-1" stroke="none" stroke-width="1" fill="none" fill-rule="evenodd">
        <g id="1-(4)" transform="translate(-913.000000, -1435.000000)">
            <g id="Group-42" transform="translate(913.000000, 1435.000000)">
                <rect id="Rectangle" fill="#4AD596" x="0" y="0" width="115" height="34" rx="17"></rect>
                <g id="shield-(1)" transform="translate(12.000000, 6.000000)" fill-rule="nonzero">
                    <path d="M18.6064451,15.3859568 C17.9871678,17.0643162 17.0506053,18.5236521 15.8224217,19.7230076 C14.4244334,21.0881248 12.5938475,22.1728708 10.3814647,22.9466599 C10.3088671,22.9719724 10.2331054,22.9927146 10.1569921,23.0080075 C10.0564452,23.0278708 9.95414051,23.0385935 9.85271474,23.0399997 L9.83285143,23.0399997 C9.72474599,23.0399997 9.61611316,23.0291013 9.50835926,23.0080075 C9.432246,22.9927146 9.35753893,22.9719724 9.28529287,22.9471872 C7.07027338,22.1746286 5.23740229,21.0904099 3.83800775,19.7252928 C2.60929684,18.5259373 1.67291013,17.0674803 1.05451172,15.3891209 C-0.0699609592,12.3375585 -0.00597653993,8.97591788 0.0455273545,6.27451166 L0.0464062495,6.23302728 C0.0567773543,6.00996089 0.0634570193,5.77564445 0.0671484592,5.51689446 C0.085957019,4.24652341 1.09599609,3.19552732 2.36654295,3.12468746 C5.01556634,2.97685545 7.06482415,2.1128906 8.81578115,0.406230475 L8.83107413,0.392167975 C9.12181629,0.125507789 9.48814441,-0.00527345994 9.85271474,1.23005518e-05 C10.2042772,0.00474610494 10.5544335,0.135351538 10.8348046,0.392167975 L10.849746,0.406230475 C12.6010546,2.1128906 14.6503123,2.97685545 17.2993358,3.12468746 C18.5698826,3.19552732 19.5799216,4.24652341 19.5987303,5.51689446 C19.6024216,5.77740229 19.6091013,6.01136714 19.6194724,6.23302728 L19.6199998,6.25060541 C19.6713279,8.95710927 19.7349607,12.3254296 18.6064451,15.3859568 Z" id="Path" fill="#FFFFFF"></path>
                    <path d="M18.6064451,15.3859568 C17.9871678,17.0643162 17.0506053,18.5236521 15.8224217,19.7230076 C14.4244334,21.0881248 12.5938475,22.1728708 10.3814647,22.9466599 C10.3088671,22.9719724 10.2331054,22.9927146 10.1569921,23.0080075 C10.0564452,23.0278708 9.95414051,23.0385935 9.85271474,23.0399997 L9.85271474,0.000175781248 C10.2042772,0.00474610494 10.5544335,0.135351538 10.8348046,0.392167975 L10.849746,0.406230475 C12.6010546,2.1128906 14.6503123,2.97685545 17.2993358,3.12468746 C18.5698826,3.19552732 19.5799216,4.24652341 19.5987303,5.51689446 C19.6024216,5.77740229 19.6091013,6.01136714 19.6194724,6.23302728 L19.6199998,6.25060541 C19.6713279,8.95710927 19.7349607,12.3254296 18.6064451,15.3859568 Z" id="Path" fill="#FFFFFF"></path>
                    <path d="M15.5745701,11.5199999 C15.5745701,14.6793162 13.0093944,17.2509959 9.85271474,17.2622459 L9.83249989,17.2622459 C6.66650382,17.2622459 4.09025385,14.6861717 4.09025385,11.5199999 C4.09025385,8.3540038 6.66650382,5.77792964 9.83249989,5.77792964 L9.85271474,5.77792964 C13.0093944,5.78917964 15.5745701,8.36085928 15.5745701,11.5199999 Z" id="Path" fill="#4AD596"></path>
                    <path d="M15.5745701,11.5199999 C15.5745701,14.6793162 13.0093944,17.2509959 9.85271474,17.2622459 L9.85271474,5.77792964 C13.0093944,5.78917964 15.5745701,8.36085928 15.5745701,11.5199999 Z" id="Path" fill="#4AD596"></path>
                    <path d="M12.4388085,10.6931249 L9.85271474,13.2795701 L9.29390614,13.8383787 C9.16189441,13.9703905 8.9887499,14.0363084 8.81578115,14.0363084 C8.64263663,14.0363084 8.46966788,13.9703905 8.33748038,13.8383787 L7.13601554,12.6363866 C6.87199213,12.3723631 6.87199213,11.9446874 7.13601554,11.6804881 C7.39968741,11.4164647 7.82789053,11.4164647 8.09191395,11.6804881 L8.81578115,12.4043553 L11.48291,9.73722643 C11.7469335,9.47302725 12.1751366,9.47302725 12.4388085,9.73722643 C12.7028319,10.0012499 12.7028319,10.429453 12.4388085,10.6931249 Z" id="Path" fill="#FFFFFF"></path>
                    <path d="M12.4388085,10.6931249 L9.85271474,13.2795701 L9.85271474,11.367246 L11.48291,9.73722643 C11.7469335,9.47302725 12.1751366,9.47302725 12.4388085,9.73722643 C12.7028319,10.0012499 12.7028319,10.429453 12.4388085,10.6931249 Z" id="Path" fill="#FFFFFF"></path>
                </g>
                <text id="100%-Safe!" font-family="Lato-Black, Lato" font-size="12" font-weight="700" fill="#FFFFFF">
                    <tspan x="37.047" y="22">100% Safe!</tspan>
                </text>
            </g>
        </g>
    </g>
</svg>