<?xml version="1.0" encoding="UTF-8"?>
<svg width="154px" height="82px" viewBox="0 0 154 82" version="1.1" xmlns="http://www.w3.org/2000/svg" xmlns:xlink="http://www.w3.org/1999/xlink">
    <!-- Generator: sketchtool 61.2 (101010) - https://sketch.com -->
    <title>74FC881C-5D43-47C0-A367-8F2A7C67EE24</title>
    <desc>Created with sketchtool.</desc>
    <defs>
        <path d="M18.3994566,0.254309365 L18.3994566,41.3302297 L0.270678478,41.3302297 L0.270678478,0.254309365 L18.3994566,0.254309365 Z M14.5315425,1.637554 L4.13888303,1.637554 L4.10336403,1.73144724 C3.65200655,2.88279753 2.71122172,3.78514216 1.53596256,4.17747974 L1.44168236,4.20777009 L1.44168236,37.376769 C1.4094449,37.3668533 1.37701383,37.3573588 1.34441065,37.3482532 L1.34322742,37.3481883 L1.44016249,37.3763709 C2.66001098,37.750802 3.6398077,38.6706041 4.10336403,39.8528205 L4.13888303,39.9466934 L14.5315425,39.9466934 C14.9788009,38.7197674 15.97671,37.7614411 17.2284528,37.376769 L17.2284528,37.376769 L17.2284528,4.20777009 C15.97671,3.82309801 14.9788009,2.86477167 14.5315425,1.637554 L14.5315425,1.637554 Z" id="path-1"></path>
        <path d="M18.3994566,0.254309365 L18.3994566,41.3302297 L0.270678478,41.3302297 L0.270678478,0.254309365 L18.3994566,0.254309365 Z M14.5315425,1.637554 L4.13888303,1.637554 L4.10336403,1.73144724 C3.65200655,2.88279753 2.71122172,3.78514216 1.53596256,4.17747974 L1.44168236,4.20777009 L1.44168236,37.376769 C1.4094449,37.3668533 1.37701383,37.3573588 1.34441065,37.3482532 L1.34322742,37.3481883 L1.44016249,37.3763709 C2.66001098,37.750802 3.6398077,38.6706041 4.10336403,39.8528205 L4.13888303,39.9466934 L14.5315425,39.9466934 C14.9788009,38.7197674 15.97671,37.7614411 17.2284528,37.376769 L17.2284528,37.376769 L17.2284528,4.20777009 C15.97671,3.82309801 14.9788009,2.86477167 14.5315425,1.637554 L14.5315425,1.637554 Z" id="path-3"></path>
        <path d="M18.3994566,0.254309365 L18.3994566,41.3302297 L0.270678478,41.3302297 L0.270678478,0.254309365 L18.3994566,0.254309365 Z M14.5315425,1.637554 L4.13888303,1.637554 L4.10336403,1.73144724 C3.65200655,2.88279753 2.71122172,3.78514216 1.53596256,4.17747974 L1.44168236,4.20777009 L1.44168236,37.376769 C1.4094449,37.3668533 1.37701383,37.3573588 1.34441065,37.3482532 L1.34322742,37.3481883 L1.44016249,37.3763709 C2.66001098,37.750802 3.6398077,38.6706041 4.10336403,39.8528205 L4.13888303,39.9466934 L14.5315425,39.9466934 C14.9788009,38.7197674 15.97671,37.7614411 17.2284528,37.376769 L17.2284528,37.376769 L17.2284528,4.20777009 C15.97671,3.82309801 14.9788009,2.86477167 14.5315425,1.637554 L14.5315425,1.637554 Z" id="path-5"></path>
        <path d="M14.0465146,0.534527895 C12.9590844,1.43945115 10.9674112,2.59978921 8.09617975,2.32462583 L8.09617975,2.32462583 C3.51303611,1.88532992 0.967037677,1.0975815 0.15200637,2.79332517 L0.15200637,2.79332517 L9.62403865,19.2447597 L15.0217805,24.0186467 L20.4195224,19.2447597 L29.8911216,2.79332517 C29.0760903,1.0975815 26.5305249,1.88532992 21.9469482,2.32462583 L21.9469482,2.32462583 C19.0761499,2.59978921 17.0844767,1.43945115 15.9970465,0.534527895 L15.9970465,0.534527895 C15.7090572,0.294911942 15.3652023,0.174665109 15.0217805,0.174665109 L15.0217805,0.174665109 C14.6783587,0.174665109 14.3349369,0.294911942 14.0465146,0.534527895" id="path-7"></path>
        <linearGradient x1="0.000763641129%" y1="50.0000195%" x2="100.000471%" y2="50.0000195%" id="linearGradient-9">
            <stop stop-color="#FFBB22" offset="0%"></stop>
            <stop stop-color="#FFD437" offset="100%"></stop>
        </linearGradient>
        <path d="M2.0332476,0.569197603 C1.44081252,0.512146185 0.883455827,0.449389626 0.35857913,0.387510781 L0.35857913,0.387510781 L6.3136777,13.8292636 L5.13097286,0.294034228 C4.24838317,0.549887892 3.21681857,0.682422723 2.0332476,0.569197603" id="path-10"></path>
        <radialGradient cx="153.997832%" cy="192.151201%" fx="153.997832%" fy="192.151201%" r="554.149758%" gradientTransform="translate(1.539978,1.921512),scale(1.000000,0.439970),rotate(-90.000000),translate(-1.539978,-1.921512)" id="radialGradient-12">
            <stop stop-color="#F7DC00" offset="0%"></stop>
            <stop stop-color="#FF7A06" offset="100%"></stop>
        </radialGradient>
        <path d="M6.35655129,0.569197603 C4.85294412,0.713142717 3.59315343,0.461677624 2.57544696,0.061878845 L2.57544696,0.061878845 L0.148974904,13.8292636 L2.21946623,14.9259674 L11.4948863,0.015359997 C10.2091116,0.0820662696 8.51062447,0.362495929 6.35655129,0.569197603" id="path-13"></path>
        <radialGradient cx="-1.29642811%" cy="176.295567%" fx="-1.29642811%" fy="176.295567%" r="290.854029%" gradientTransform="translate(-0.012964,1.762956),scale(1.000000,0.760929),rotate(-90.000000),translate(0.012964,-1.762956)" id="radialGradient-15">
            <stop stop-color="#F7DC00" offset="0%"></stop>
            <stop stop-color="#FF7A06" offset="100%"></stop>
        </radialGradient>
        <path d="M28.8799111,0.765366707 L22.8988286,0.224694813 L22.8988286,1.30559974 L22.7243027,1.3213986 C22.7243027,1.3213986 -3.11331566,21.8761466 0.364642062,52.5908743 L0.364642062,52.5908743 C0.364642062,52.5908743 -0.355114597,64.3768194 28.8799111,63.9125086 L28.8799111,63.9125086 C58.11537,64.3768194 57.3947472,52.5908743 57.3947472,52.5908743 L57.3947472,52.5908743 C60.8731379,21.8761466 35.0359526,1.3213986 35.0359526,1.3213986 L35.0359526,1.3213986 L34.8609937,1.30559974 L34.8609937,0.224694813 L28.8799111,0.765366707 Z" id="path-16"></path>
        <linearGradient x1="3.44114619e-05%" y1="49.9999926%" x2="100.00038%" y2="49.9999926%" id="linearGradient-18">
            <stop stop-color="#FFBB22" offset="0%"></stop>
            <stop stop-color="#FFD437" offset="100%"></stop>
        </linearGradient>
        <path d="M15.8601974,0.286134801 L1.20175976,1.38239973 C0.517947632,1.433746 0.00389759924,2.03717446 0.0545663893,2.73056861 L0.0545663893,2.73056861 C0.102203713,3.39236505 0.64743454,3.89705067 1.29140455,3.89705067 L1.29140455,3.89705067 C1.32258534,3.89705067 1.35376613,3.89617295 1.38451386,3.89310095 L1.38451386,3.89310095 L16.0420854,2.79639717 C16.7263306,2.74548975 17.2399476,2.14250015 17.1897118,1.44866714 L17.1897118,1.44866714 C17.1416414,0.788187274 16.5894816,0.282185088 15.955039,0.282185088 L15.955039,0.282185088 C15.9234251,0.282185088 15.8918113,0.283501659 15.8601974,0.286134801" id="path-19"></path>
        <linearGradient x1="-0.00102261885%" y1="49.9996916%" x2="100.000961%" y2="49.9996916%" id="linearGradient-21">
            <stop stop-color="#F2F4F4" offset="0%"></stop>
            <stop stop-color="#BDBDBD" offset="100%"></stop>
        </linearGradient>
        <path d="M1.61100768,0.00789942702 C0.935856883,0.00789942702 0.382397792,0.555593034 0.368972728,1.24284319 L0.368972728,1.24284319 C0.356413797,1.93799276 0.90207769,2.51201779 1.58762209,2.52518351 L1.58762209,2.52518351 L16.2824373,2.80912402 L16.3066891,2.80912402 C16.9818399,2.80912402 17.535732,2.26143041 17.548724,1.57418026 L17.548724,1.57418026 C17.561283,0.879469542 17.0156191,0.305005655 16.3300747,0.291839943 L16.3300747,0.291839943 L1.63482635,0.00789942702 L1.61100768,0.00789942702 Z" id="path-22"></path>
        <linearGradient x1="0.000788023475%" y1="49.9974197%" x2="100.000059%" y2="49.9974197%" id="linearGradient-24">
            <stop stop-color="#BDBDBD" offset="0%"></stop>
            <stop stop-color="#F2F4F4" offset="100%"></stop>
        </linearGradient>
        <path d="M8.56000712,0.318366639 C7.89732243,0.857342015 6.68358811,1.54844332 4.93384718,1.38455508 L4.93384718,1.38455508 C2.1408595,1.12290893 0.589316969,0.653723287 0.0926333436,1.663714 L0.0926333436,1.663714 L5.86493104,11.4622445 L9.15433843,14.305588 L12.4437458,11.4622445 L18.2157796,1.663714 C17.719096,0.653723287 16.1678174,1.12290893 13.3745658,1.38455508 L13.3745658,1.38455508 C11.6250888,1.54844332 10.4113544,0.857342015 9.74866974,0.318366639 L9.74866974,0.318366639 C9.57316782,0.175650559 9.36362117,0.104031135 9.15433843,0.104031135 L9.15433843,0.104031135 C8.94505569,0.104031135 8.73577295,0.175650559 8.56000712,0.318366639" id="path-25"></path>
        <linearGradient x1="0.000763641129%" y1="50.0000195%" x2="100.000471%" y2="50.0000195%" id="linearGradient-27">
            <stop stop-color="#FFBB22" offset="0%"></stop>
            <stop stop-color="#FFD437" offset="100%"></stop>
        </linearGradient>
        <path d="M1.23906994,0.339016035 C0.878037419,0.305036016 0.538381826,0.267657995 0.218519682,0.230802744 L0.218519682,0.230802744 L3.84758267,8.23675658 L3.12683719,0.17512779 C2.58898319,0.327515105 1.96034324,0.406453303 1.23906994,0.339016035" id="path-28"></path>
        <radialGradient cx="153.997832%" cy="192.151201%" fx="153.997832%" fy="192.151201%" r="541.600147%" gradientTransform="translate(1.539978,1.921512),scale(1.000000,0.450165),rotate(-90.000000),translate(-1.539978,-1.921512)" id="radialGradient-30">
            <stop stop-color="#F7DC00" offset="0%"></stop>
            <stop stop-color="#FF7A06" offset="100%"></stop>
        </radialGradient>
        <path d="M3.87371002,0.339016035 C2.95740527,0.424750236 2.18968334,0.274976768 1.56948859,0.0368552513 L1.56948859,0.0368552513 L0.090785955,8.23675658 L1.35255238,8.8899571 L7.00503373,0.00914846663 C6.22147704,0.0488789503 5.18641159,0.215903812 3.87371002,0.339016035" id="path-31"></path>
        <radialGradient cx="-1.29642811%" cy="176.295567%" fx="-1.29642811%" fy="176.295567%" r="284.267173%" gradientTransform="translate(-0.012964,1.762956),scale(1.000000,0.778561),rotate(-90.000000),translate(0.012964,-1.762956)" id="radialGradient-33">
            <stop stop-color="#F7DC00" offset="0%"></stop>
            <stop stop-color="#FF7A06" offset="100%"></stop>
        </radialGradient>
        <path d="M17.5995435,0.455855023 L13.9546458,0.133828998 L13.9546458,0.777619663 L13.848289,0.787029515 C13.848289,0.787029515 -1.89726811,13.0295076 0.22221446,31.3233042 L0.22221446,31.3233042 C0.22221446,31.3233042 -0.216408381,38.3430533 17.5995435,38.0665083 L17.5995435,38.0665083 C35.4157594,38.3430533 34.9766087,31.3233042 34.9766087,31.3233042 L34.9766087,31.3233042 C37.0963552,13.0295076 21.351062,0.787029515 21.351062,0.787029515 L21.351062,0.787029515 L21.2444413,0.777619663 L21.2444413,0.133828998 L17.5995435,0.455855023 Z" id="path-34"></path>
        <linearGradient x1="3.44114619e-05%" y1="49.9999926%" x2="100.00038%" y2="49.9999926%" id="linearGradient-36">
            <stop stop-color="#FFBB22" offset="0%"></stop>
            <stop stop-color="#FFD437" offset="100%"></stop>
        </linearGradient>
        <path d="M9.66527334,0.170422864 L0.732357631,0.823361997 C0.315639541,0.853944014 0.00237521394,1.21334806 0.0332529951,1.62633598 L0.0332529951,1.62633598 C0.0622833877,2.0205042 0.394549426,2.32109668 0.786987552,2.32109668 L0.786987552,2.32109668 C0.805989263,2.32109668 0.824990975,2.32057391 0.843728774,2.31874421 L0.843728774,2.31874421 L9.77611666,1.6655437 C10.1930987,1.63522306 10.5060991,1.2760804 10.4754852,0.862831095 L10.4754852,0.862831095 C10.4461909,0.46944703 10.1097023,0.168070401 9.72307021,0.168070401 L9.72307021,0.168070401 C9.70380459,0.168070401 9.68453897,0.168854555 9.66527334,0.170422864" id="path-37"></path>
        <linearGradient x1="-0.00102261885%" y1="49.9996916%" x2="100.000961%" y2="49.9996916%" id="linearGradient-39">
            <stop stop-color="#F2F4F4" offset="0%"></stop>
            <stop stop-color="#BDBDBD" offset="100%"></stop>
        </linearGradient>
        <path d="M0.981755095,0.00470492569 C0.570315258,0.00470492569 0.233034879,0.330913107 0.224853586,0.740241643 L0.224853586,0.740241643 C0.217200119,1.1542751 0.54973007,1.49616637 0.967503811,1.50400791 L0.967503811,1.50400791 L9.92258819,1.67312385 L9.93736729,1.67312385 C10.3488071,1.67312385 10.6863514,1.34691567 10.6942688,0.937587137 L10.6942688,0.937587137 C10.7019223,0.523815061 10.3693923,0.181662409 9.95161858,0.173820866 L9.95161858,0.173820866 L0.996270291,0.00470492569 L0.981755095,0.00470492569 Z" id="path-40"></path>
        <linearGradient x1="0.000788023475%" y1="49.9974197%" x2="100.000059%" y2="49.9974197%" id="linearGradient-42">
            <stop stop-color="#BDBDBD" offset="0%"></stop>
            <stop stop-color="#F2F4F4" offset="100%"></stop>
        </linearGradient>
    </defs>
    <g id="Page-1" stroke="none" stroke-width="1" fill="none" fill-rule="evenodd">
        <g id="1-(4)" transform="translate(-828.000000, -1183.000000)">
            <g id="Group-63" transform="translate(150.000000, 750.000000)">
                <g id="Group-27">
                    <g id="Group-68" transform="translate(678.000000, 0.000000)">
                        <g id="Group-67" transform="translate(0.000000, 432.000000)">
                            <ellipse id="Oval" fill="#F7EAFF" opacity="0.562104725" cx="77" cy="77.5" rx="77" ry="5.5"></ellipse>
                            <g id="Group-62" transform="translate(15.000000, 0.000000)">
                                <g id="Group-61" transform="translate(64.919402, 28.968340) rotate(19.000000) translate(-64.919402, -28.968340) translate(49.419402, 4.468340)">
                                    <g id="Group" transform="translate(13.930881, 25.301719) rotate(-6.000000) translate(-13.930881, -25.301719) translate(2.930881, 2.801719)">
                                        <polygon id="Fill-203" fill="#00BC70" points="1.65088949e-14 44.1392983 21.4457512 44.1392983 21.4457512 -8.28888404e-15 1.65088949e-14 -8.28888404e-15"></polygon>
                                        <rect id="Rectangle" fill="#A7E4C7" x="1.67838082" y="2.34827868" width="17.4256531" height="38.2047326"></rect>
                                        <ellipse id="Oval" fill-opacity="0.0272071678" fill="#000000" cx="10.6816349" cy="9.78507778" rx="3.19470306" ry="3.20803098"></ellipse>
                                        <ellipse id="Oval" fill-opacity="0.0272071678" fill="#000000" cx="10.6816349" cy="33.9911297" rx="3.19470306" ry="3.20803098"></ellipse>
                                        <g id="Group-211" transform="translate(1.387953, 1.277380)">
                                            <g id="Group-207">
                                                <mask id="mask-2" fill="white">
                                                    <use xlink:href="#path-1"></use>
                                                </mask>
                                                <g id="Clip-206"></g>
                                                <path d="M14.5315425,1.637554 C14.9788009,2.86477167 15.97671,3.82309801 17.2284528,4.20777009 L17.2284528,37.376769 C15.97671,37.7614411 14.9788009,38.7197674 14.5315425,39.9466934 L4.13888303,39.9466934 C3.65677329,38.6249847 2.53514209,37.6147466 1.1468984,37.2980264 C1.24651505,37.3210659 1.34496999,37.3470218 1.44168236,37.376769 L1.44168236,4.20777009 C1.34496999,4.23751729 1.24651505,4.26347318 1.1468984,4.28651267 C2.53514209,3.96979252 3.65677329,2.9595544 4.13888303,1.637554 L4.13888303,1.637554 L14.5315425,1.637554 L14.5315425,1.637554 Z M0.270678478,4.39237769 L0.270678478,37.1921614 L0.270678478,41.3302297 L4.39649227,41.3302297 L14.2736428,41.3302297 L18.3994566,41.3302297 L18.3994566,37.1921614 L18.3994566,4.39237769 L18.3994566,0.254309365 L14.2736428,0.254309365 L4.39649227,0.254309365 L0.270678478,0.254309365 L0.270678478,4.39237769 Z" id="Fill-205" fill="#3AC98D" mask="url(#mask-2)"></path>
                                            </g>
                                            <g id="money" transform="translate(5.518123, 15.748516)" fill="#08AF6C" fill-rule="nonzero">
                                                <path d="M7.39486641,2.65613304 C7.34517426,2.60617525 7.28157062,2.5812401 7.20425881,2.5812401 L5.78639148,2.5812401 C5.69235104,2.12065433 5.51545162,1.72084617 5.25566417,1.38225308 L7.18758827,1.38225308 C7.26510338,1.38225308 7.32853276,1.35728877 7.37839917,1.30744763 C7.42788803,1.257519 7.45274862,1.19362085 7.45274862,1.11592818 L7.45274862,0.266441559 C7.45274862,0.188690552 7.42791707,0.124909063 7.37839917,0.0749221065 C7.32847467,0.025051806 7.2650453,0 7.18753018,0 L0.288714033,0 C0.211286046,0 0.14776954,0.025051806 0.0979902572,0.0748929426 C0.048356188,0.124879899 0.023408461,0.188661389 0.023408461,0.266412395 L0.023408461,1.37382471 C0.023408461,1.44597624 0.049663112,1.50841619 0.102172414,1.56114456 C0.154681716,1.61387292 0.216862256,1.6402371 0.288714033,1.6402371 L1.49105507,1.6402371 C2.65738309,1.6402371 3.39814761,1.95377839 3.71320342,2.58109428 L0.288714033,2.58109428 C0.211286046,2.58109428 0.147682412,2.60602943 0.0979902572,2.65598722 C0.048356188,2.70600334 0.023408461,2.76975566 0.023408461,2.84750667 L0.023408461,3.69687663 C0.023408461,3.77456931 0.0482400169,3.83843829 0.0979902572,3.88827943 C0.14776954,3.93829555 0.211402217,3.96317237 0.288714033,3.96317237 L3.82946157,3.96317237 C3.70783051,4.41847947 3.42448939,4.76535511 2.9794382,5.00406179 C2.53435798,5.24279762 1.9471425,5.36216554 1.21741423,5.36216554 L0.288714033,5.36216554 C0.216862256,5.36216554 0.154681716,5.38855889 0.102172414,5.44125809 C0.0496340692,5.49401562 0.023408461,5.55648473 0.023408461,5.62857794 L0.023408461,6.68614911 C0.023408461,6.7584173 0.0482400169,6.81945738 0.0979902572,6.86935685 C1.15929967,8.00173347 2.53581011,9.58641331 4.22734732,11.6238047 C4.27715565,11.6904734 4.34621932,11.7237202 4.43468356,11.7237202 L6.05155184,11.7237202 C6.16775191,11.7237202 6.247968,11.6739083 6.2920549,11.5737885 C6.34732326,11.4738729 6.33649032,11.3794985 6.25885903,11.2906652 C4.64489502,9.30334832 3.3761332,7.81569684 2.45295113,6.82765244 C3.39271662,6.71665457 4.15558267,6.41127918 4.74157835,5.91178875 C5.3274869,5.41223999 5.68398673,4.76264287 5.81122304,3.96331819 L7.20425881,3.96331819 C7.28157062,3.96331819 7.3452033,3.93841221 7.39486641,3.88842525 C7.44467474,3.83858411 7.46959342,3.77471513 7.46959342,3.69702245 L7.46959342,2.84773998 C7.46959342,2.76990148 7.44467474,2.70611999 7.39486641,2.65613304 Z" id="Path"></path>
                                            </g>
                                        </g>
                                    </g>
                                    <g id="Group" transform="translate(16.826439, 23.848176) rotate(-4.000000) translate(-16.826439, -23.848176) translate(5.826439, 1.348176)">
                                        <polygon id="Fill-203" fill="#00BC70" points="1.65088949e-14 44.1392983 21.4457512 44.1392983 21.4457512 -8.28888404e-15 1.65088949e-14 -8.28888404e-15"></polygon>
                                        <rect id="Rectangle" fill="#A7E4C7" x="1.67838082" y="2.34827868" width="17.4256531" height="38.2047326"></rect>
                                        <ellipse id="Oval" fill-opacity="0.0272071678" fill="#000000" cx="10.6816349" cy="9.78507778" rx="3.19470306" ry="3.20803098"></ellipse>
                                        <ellipse id="Oval" fill-opacity="0.0272071678" fill="#000000" cx="10.6816349" cy="33.9911297" rx="3.19470306" ry="3.20803098"></ellipse>
                                        <g id="Group-211" transform="translate(1.387953, 1.277380)">
                                            <g id="Group-207">
                                                <mask id="mask-4" fill="white">
                                                    <use xlink:href="#path-3"></use>
                                                </mask>
                                                <g id="Clip-206"></g>
                                                <path d="M14.5315425,1.637554 C14.9788009,2.86477167 15.97671,3.82309801 17.2284528,4.20777009 L17.2284528,37.376769 C15.97671,37.7614411 14.9788009,38.7197674 14.5315425,39.9466934 L4.13888303,39.9466934 C3.65677329,38.6249847 2.53514209,37.6147466 1.1468984,37.2980264 C1.24651505,37.3210659 1.34496999,37.3470218 1.44168236,37.376769 L1.44168236,4.20777009 C1.34496999,4.23751729 1.24651505,4.26347318 1.1468984,4.28651267 C2.53514209,3.96979252 3.65677329,2.9595544 4.13888303,1.637554 L4.13888303,1.637554 L14.5315425,1.637554 L14.5315425,1.637554 Z M0.270678478,4.39237769 L0.270678478,37.1921614 L0.270678478,41.3302297 L4.39649227,41.3302297 L14.2736428,41.3302297 L18.3994566,41.3302297 L18.3994566,37.1921614 L18.3994566,4.39237769 L18.3994566,0.254309365 L14.2736428,0.254309365 L4.39649227,0.254309365 L0.270678478,0.254309365 L0.270678478,4.39237769 Z" id="Fill-205" fill="#3AC98D" mask="url(#mask-4)"></path>
                                            </g>
                                            <g id="money" transform="translate(5.518123, 15.748516)" fill="#08AF6C" fill-rule="nonzero">
                                                <path d="M7.39486641,2.65613304 C7.34517426,2.60617525 7.28157062,2.5812401 7.20425881,2.5812401 L5.78639148,2.5812401 C5.69235104,2.12065433 5.51545162,1.72084617 5.25566417,1.38225308 L7.18758827,1.38225308 C7.26510338,1.38225308 7.32853276,1.35728877 7.37839917,1.30744763 C7.42788803,1.257519 7.45274862,1.19362085 7.45274862,1.11592818 L7.45274862,0.266441559 C7.45274862,0.188690552 7.42791707,0.124909063 7.37839917,0.0749221065 C7.32847467,0.025051806 7.2650453,0 7.18753018,0 L0.288714033,0 C0.211286046,0 0.14776954,0.025051806 0.0979902572,0.0748929426 C0.048356188,0.124879899 0.023408461,0.188661389 0.023408461,0.266412395 L0.023408461,1.37382471 C0.023408461,1.44597624 0.049663112,1.50841619 0.102172414,1.56114456 C0.154681716,1.61387292 0.216862256,1.6402371 0.288714033,1.6402371 L1.49105507,1.6402371 C2.65738309,1.6402371 3.39814761,1.95377839 3.71320342,2.58109428 L0.288714033,2.58109428 C0.211286046,2.58109428 0.147682412,2.60602943 0.0979902572,2.65598722 C0.048356188,2.70600334 0.023408461,2.76975566 0.023408461,2.84750667 L0.023408461,3.69687663 C0.023408461,3.77456931 0.0482400169,3.83843829 0.0979902572,3.88827943 C0.14776954,3.93829555 0.211402217,3.96317237 0.288714033,3.96317237 L3.82946157,3.96317237 C3.70783051,4.41847947 3.42448939,4.76535511 2.9794382,5.00406179 C2.53435798,5.24279762 1.9471425,5.36216554 1.21741423,5.36216554 L0.288714033,5.36216554 C0.216862256,5.36216554 0.154681716,5.38855889 0.102172414,5.44125809 C0.0496340692,5.49401562 0.023408461,5.55648473 0.023408461,5.62857794 L0.023408461,6.68614911 C0.023408461,6.7584173 0.0482400169,6.81945738 0.0979902572,6.86935685 C1.15929967,8.00173347 2.53581011,9.58641331 4.22734732,11.6238047 C4.27715565,11.6904734 4.34621932,11.7237202 4.43468356,11.7237202 L6.05155184,11.7237202 C6.16775191,11.7237202 6.247968,11.6739083 6.2920549,11.5737885 C6.34732326,11.4738729 6.33649032,11.3794985 6.25885903,11.2906652 C4.64489502,9.30334832 3.3761332,7.81569684 2.45295113,6.82765244 C3.39271662,6.71665457 4.15558267,6.41127918 4.74157835,5.91178875 C5.3274869,5.41223999 5.68398673,4.76264287 5.81122304,3.96331819 L7.20425881,3.96331819 C7.28157062,3.96331819 7.3452033,3.93841221 7.39486641,3.88842525 C7.44467474,3.83858411 7.46959342,3.77471513 7.46959342,3.69702245 L7.46959342,2.84773998 C7.46959342,2.76990148 7.44467474,2.70611999 7.39486641,2.65613304 Z" id="Path"></path>
                                            </g>
                                        </g>
                                    </g>
                                    <g id="Group" transform="translate(8.712826, 2.814745)">
                                        <polygon id="Fill-203" fill="#00BC70" points="1.65088949e-14 44.1392983 21.4457512 44.1392983 21.4457512 -8.28888404e-15 1.65088949e-14 -8.28888404e-15"></polygon>
                                        <rect id="Rectangle" fill="#A7E4C7" x="1.67838082" y="2.34827868" width="17.4256531" height="38.2047326"></rect>
                                        <ellipse id="Oval" fill-opacity="0.0272071678" fill="#000000" cx="10.6816349" cy="9.78507778" rx="3.19470306" ry="3.20803098"></ellipse>
                                        <ellipse id="Oval" fill-opacity="0.0272071678" fill="#000000" cx="10.6816349" cy="33.9911297" rx="3.19470306" ry="3.20803098"></ellipse>
                                        <g id="Group-211" transform="translate(1.387953, 1.277380)">
                                            <g id="Group-207">
                                                <mask id="mask-6" fill="white">
                                                    <use xlink:href="#path-5"></use>
                                                </mask>
                                                <g id="Clip-206"></g>
                                                <path d="M14.5315425,1.637554 C14.9788009,2.86477167 15.97671,3.82309801 17.2284528,4.20777009 L17.2284528,37.376769 C15.97671,37.7614411 14.9788009,38.7197674 14.5315425,39.9466934 L4.13888303,39.9466934 C3.65677329,38.6249847 2.53514209,37.6147466 1.1468984,37.2980264 C1.24651505,37.3210659 1.34496999,37.3470218 1.44168236,37.376769 L1.44168236,4.20777009 C1.34496999,4.23751729 1.24651505,4.26347318 1.1468984,4.28651267 C2.53514209,3.96979252 3.65677329,2.9595544 4.13888303,1.637554 L4.13888303,1.637554 L14.5315425,1.637554 L14.5315425,1.637554 Z M0.270678478,4.39237769 L0.270678478,37.1921614 L0.270678478,41.3302297 L4.39649227,41.3302297 L14.2736428,41.3302297 L18.3994566,41.3302297 L18.3994566,37.1921614 L18.3994566,4.39237769 L18.3994566,0.254309365 L14.2736428,0.254309365 L4.39649227,0.254309365 L0.270678478,0.254309365 L0.270678478,4.39237769 Z" id="Fill-205" fill="#3AC98D" mask="url(#mask-6)"></path>
                                            </g>
                                            <g id="money" transform="translate(5.518123, 15.748516)" fill="#08AF6C" fill-rule="nonzero">
                                                <path d="M7.39486641,2.65613304 C7.34517426,2.60617525 7.28157062,2.5812401 7.20425881,2.5812401 L5.78639148,2.5812401 C5.69235104,2.12065433 5.51545162,1.72084617 5.25566417,1.38225308 L7.18758827,1.38225308 C7.26510338,1.38225308 7.32853276,1.35728877 7.37839917,1.30744763 C7.42788803,1.257519 7.45274862,1.19362085 7.45274862,1.11592818 L7.45274862,0.266441559 C7.45274862,0.188690552 7.42791707,0.124909063 7.37839917,0.0749221065 C7.32847467,0.025051806 7.2650453,0 7.18753018,0 L0.288714033,0 C0.211286046,0 0.14776954,0.025051806 0.0979902572,0.0748929426 C0.048356188,0.124879899 0.023408461,0.188661389 0.023408461,0.266412395 L0.023408461,1.37382471 C0.023408461,1.44597624 0.049663112,1.50841619 0.102172414,1.56114456 C0.154681716,1.61387292 0.216862256,1.6402371 0.288714033,1.6402371 L1.49105507,1.6402371 C2.65738309,1.6402371 3.39814761,1.95377839 3.71320342,2.58109428 L0.288714033,2.58109428 C0.211286046,2.58109428 0.147682412,2.60602943 0.0979902572,2.65598722 C0.048356188,2.70600334 0.023408461,2.76975566 0.023408461,2.84750667 L0.023408461,3.69687663 C0.023408461,3.77456931 0.0482400169,3.83843829 0.0979902572,3.88827943 C0.14776954,3.93829555 0.211402217,3.96317237 0.288714033,3.96317237 L3.82946157,3.96317237 C3.70783051,4.41847947 3.42448939,4.76535511 2.9794382,5.00406179 C2.53435798,5.24279762 1.9471425,5.36216554 1.21741423,5.36216554 L0.288714033,5.36216554 C0.216862256,5.36216554 0.154681716,5.38855889 0.102172414,5.44125809 C0.0496340692,5.49401562 0.023408461,5.55648473 0.023408461,5.62857794 L0.023408461,6.68614911 C0.023408461,6.7584173 0.0482400169,6.81945738 0.0979902572,6.86935685 C1.15929967,8.00173347 2.53581011,9.58641331 4.22734732,11.6238047 C4.27715565,11.6904734 4.34621932,11.7237202 4.43468356,11.7237202 L6.05155184,11.7237202 C6.16775191,11.7237202 6.247968,11.6739083 6.2920549,11.5737885 C6.34732326,11.4738729 6.33649032,11.3794985 6.25885903,11.2906652 C4.64489502,9.30334832 3.3761332,7.81569684 2.45295113,6.82765244 C3.39271662,6.71665457 4.15558267,6.41127918 4.74157835,5.91178875 C5.3274869,5.41223999 5.68398673,4.76264287 5.81122304,3.96331819 L7.20425881,3.96331819 C7.28157062,3.96331819 7.3452033,3.93841221 7.39486641,3.88842525 C7.44467474,3.83858411 7.46959342,3.77471513 7.46959342,3.69702245 L7.46959342,2.84773998 C7.46959342,2.76990148 7.44467474,2.70611999 7.39486641,2.65613304 Z" id="Path"></path>
                                            </g>
                                        </g>
                                    </g>
                                </g>
                                <g id="Group-60" transform="translate(0.000000, 1.000000)">
                                    <g id="Group-154" transform="translate(13.858131, 0.000000)">
                                        <mask id="mask-8" fill="white">
                                            <use xlink:href="#path-7"></use>
                                        </mask>
                                        <g id="Clip-153"></g>
                                        <path d="M14.0465146,0.534527895 C12.9590844,1.43945115 10.9674112,2.59978921 8.09617975,2.32462583 L8.09617975,2.32462583 C3.51303611,1.88532992 0.967037677,1.0975815 0.15200637,2.79332517 L0.15200637,2.79332517 L9.62403865,19.2447597 L15.0217805,24.0186467 L20.4195224,19.2447597 L29.8911216,2.79332517 C29.0760903,1.0975815 26.5305249,1.88532992 21.9469482,2.32462583 L21.9469482,2.32462583 C19.0761499,2.59978921 17.0844767,1.43945115 15.9970465,0.534527895 L15.9970465,0.534527895 C15.7090572,0.294911942 15.3652023,0.174665109 15.0217805,0.174665109 L15.0217805,0.174665109 C14.6783587,0.174665109 14.3349369,0.294911942 14.0465146,0.534527895" id="Fill-152" fill="url(#linearGradient-9)" mask="url(#mask-8)"></path>
                                    </g>
                                    <g id="Group-160" transform="translate(19.921063, 1.755428)">
                                        <mask id="mask-11" fill="white">
                                            <use xlink:href="#path-10"></use>
                                        </mask>
                                        <g id="Clip-159"></g>
                                        <path d="M2.0332476,0.569197603 C1.44081252,0.512146185 0.883455827,0.449389626 0.35857913,0.387510781 L0.35857913,0.387510781 L6.3136777,13.8292636 L5.13097286,0.294034228 C4.24838317,0.549887892 3.21681857,0.682422723 2.0332476,0.569197603" id="Fill-158" fill="url(#radialGradient-12)" mask="url(#mask-11)"></path>
                                    </g>
                                    <g id="Group-166" transform="translate(29.448528, 1.755428)">
                                        <mask id="mask-14" fill="white">
                                            <use xlink:href="#path-13"></use>
                                        </mask>
                                        <g id="Clip-165"></g>
                                        <path d="M6.35655129,0.569197603 C4.85294412,0.713142717 3.59315343,0.461677624 2.57544696,0.061878845 L2.57544696,0.061878845 L0.148974904,13.8292636 L2.21946623,14.9259674 L11.4948863,0.015359997 C10.2091116,0.0820662696 8.51062447,0.362495929 6.35655129,0.569197603" id="Fill-164" fill="url(#radialGradient-15)" mask="url(#mask-14)"></path>
                                    </g>
                                    <g id="Group-169" transform="translate(0.000000, 13.407961)">
                                        <mask id="mask-17" fill="white">
                                            <use xlink:href="#path-16"></use>
                                        </mask>
                                        <g id="Clip-168"></g>
                                        <path d="M28.8799111,0.765366707 L22.8988286,0.224694813 L22.8988286,1.30559974 L22.7243027,1.3213986 C22.7243027,1.3213986 -3.11331566,21.8761466 0.364642062,52.5908743 L0.364642062,52.5908743 C0.364642062,52.5908743 -0.355114597,64.3768194 28.8799111,63.9125086 L28.8799111,63.9125086 C58.11537,64.3768194 57.3947472,52.5908743 57.3947472,52.5908743 L57.3947472,52.5908743 C60.8731379,21.8761466 35.0359526,1.3213986 35.0359526,1.3213986 L35.0359526,1.3213986 L34.8609937,1.30559974 L34.8609937,0.224694813 L28.8799111,0.765366707 Z" id="Fill-167" fill="url(#linearGradient-18)" mask="url(#mask-17)"></path>
                                        <g id="money" mask="url(#mask-17)" fill="#FD8C04" fill-rule="nonzero">
                                            <g transform="translate(23.385595, 25.014852)" id="Path">
                                                <path d="M11.0267415,3.99693459 C10.9526438,3.92175838 10.8578022,3.8842361 10.7425199,3.8842361 L8.62828879,3.8842361 C8.48806182,3.19114914 8.22428097,2.58951999 7.8369029,2.08000694 L10.7176618,2.08000694 C10.8332473,2.08000694 10.9278291,2.04244077 11.0021866,1.9674401 C11.0759811,1.89230777 11.1130516,1.79615419 11.1130516,1.67924267 L11.1130516,0.400939813 C11.1130516,0.28394052 11.0760244,0.18796248 11.0021866,0.11274238 C10.9277424,0.0376978218 10.8331607,0 10.7175752,0 L0.430511495,0 C0.315055943,0 0.22034428,0.0376978218 0.146116667,0.112698494 C0.072105587,0.187918595 0.034905167,0.283896634 0.034905167,0.400895927 L0.034905167,2.06732397 C0.034905167,2.17589721 0.0740543866,2.2698565 0.152352826,2.34920186 C0.230651265,2.42854722 0.323370821,2.4682199 0.430511495,2.4682199 L2.22336386,2.4682199 C3.96251598,2.4682199 5.06709562,2.94003513 5.53688625,3.88401667 L0.430511495,3.88401667 C0.315055943,3.88401667 0.22021436,3.92153895 0.146116667,3.99671516 C0.072105587,4.07197915 0.034905167,4.1679133 0.034905167,4.2849126 L0.034905167,5.56303991 C0.034905167,5.67995143 0.0719323603,5.77606113 0.146116667,5.8510618 C0.22034428,5.92632578 0.31522917,5.96376029 0.430511495,5.96376029 L5.71024281,5.96376029 C5.52887452,6.64890394 5.10637476,7.17088053 4.44274352,7.53008504 C3.77906897,7.88933343 2.90345163,8.06895763 1.81532852,8.06895763 L0.430511495,8.06895763 C0.323370821,8.06895763 0.230651265,8.10867419 0.152352826,8.18797566 C0.0740110799,8.2673649 0.034905167,8.36136809 0.034905167,8.46985355 L0.034905167,10.0612809 C0.034905167,10.1700297 0.0719323603,10.2618825 0.146116667,10.3369709 C1.7286719,12.0409651 3.7812343,14.4255828 6.30354403,17.4914382 C6.37781495,17.5917609 6.48079819,17.6417906 6.61271027,17.6417906 L9.02367858,17.6417906 C9.19694852,17.6417906 9.31656151,17.5668338 9.38230102,17.4161742 C9.46471359,17.2658218 9.44856021,17.1238076 9.33280151,16.9901318 C6.92616387,13.9996281 5.03426917,11.7610182 3.6576804,10.2742144 C5.05899727,10.1071854 6.19653328,9.64765814 7.07033173,8.89602765 C7.94400027,8.14430938 8.47558951,7.16679916 8.66531598,5.96397972 L10.7425199,5.96397972 C10.8578022,5.96397972 10.9526871,5.92650133 11.0267415,5.85128123 C11.1010124,5.77628055 11.1381695,5.68017086 11.1381695,5.56325934 L11.1381695,4.28526368 C11.1381695,4.16813273 11.1010124,4.07215469 11.0267415,3.99693459 Z"></path>
                                            </g>
                                        </g>
                                    </g>
                                    <path d="M28.8799111,14.1733275 L22.8988286,13.6326556 L22.8988286,14.7135605 L22.7243027,14.7293594 C22.7243027,14.7293594 -3.11331566,35.2841074 0.364642062,65.9988351 L0.364642062,65.9988351 C0.364642062,65.9988351 -0.355114597,77.7847802 28.8799111,77.3204694 L28.8799111,77.3204694 C58.11537,77.7847802 57.3947472,65.9988351 57.3947472,65.9988351 L57.3947472,65.9988351 C60.8731379,35.2841074 35.0359526,14.7293594 35.0359526,14.7293594 L35.0359526,14.7293594 L34.8609937,14.7135605 L34.8609937,13.6326556 L28.8799111,14.1733275 Z" id="Fill-167" fill="url(#linearGradient-18)"></path>
                                    <path d="M34.4123369,42.4197476 C34.3382392,42.3445714 34.2433976,42.3070491 34.1281153,42.3070491 L32.0138842,42.3070491 C31.8736572,41.6139622 31.6098764,41.012333 31.2224983,40.50282 L34.1032573,40.50282 C34.2188427,40.50282 34.3134245,40.4652538 34.387782,40.3902531 C34.4615766,40.3151208 34.4986471,40.2189672 34.4986471,40.1020557 L34.4986471,38.8237529 C34.4986471,38.7067536 34.4616199,38.6107755 34.387782,38.5355554 C34.3133379,38.4605109 34.2187561,38.422813 34.1031707,38.422813 L23.8161069,38.422813 C23.7006514,38.422813 23.6059397,38.4605109 23.5317121,38.5355115 C23.457701,38.6107316 23.4205006,38.7067097 23.4205006,38.823709 L23.4205006,40.490137 C23.4205006,40.5987103 23.4596498,40.6926696 23.5379482,40.7720149 C23.6162467,40.8513603 23.7089662,40.8910329 23.8161069,40.8910329 L25.6089593,40.8910329 C27.3481114,40.8910329 28.452691,41.3628482 28.9224817,42.3068297 L23.8161069,42.3068297 C23.7006514,42.3068297 23.6058098,42.344352 23.5317121,42.4195282 C23.457701,42.4947922 23.4205006,42.5907263 23.4205006,42.7077256 L23.4205006,43.985853 C23.4205006,44.1027645 23.4575278,44.1988742 23.5317121,44.2738748 C23.6059397,44.3491388 23.7008246,44.3865733 23.8161069,44.3865733 L29.0958382,44.3865733 C28.9144699,45.071717 28.4919702,45.5936936 27.8283389,45.9528981 C27.1646644,46.3121465 26.2890471,46.4917707 25.2009239,46.4917707 L23.8161069,46.4917707 C23.7089662,46.4917707 23.6162467,46.5314872 23.5379482,46.6107887 C23.4596065,46.690178 23.4205006,46.7841811 23.4205006,46.8926666 L23.4205006,48.484094 C23.4205006,48.5928427 23.4575278,48.6846955 23.5317121,48.759784 C25.1142673,50.4637782 27.1668297,52.8483958 29.6891395,55.9142513 C29.7634104,56.014574 29.8663936,56.0646037 29.9983057,56.0646037 L32.409274,56.0646037 C32.5825439,56.0646037 32.7021569,55.9896469 32.7678964,55.8389873 C32.850309,55.6886348 32.8341556,55.5466207 32.7183969,55.4129448 C30.3117593,52.4224411 28.4198646,50.1838313 27.0432758,48.6970274 C28.4445927,48.5299984 29.5821287,48.0704712 30.4559272,47.3188407 C31.3295957,46.5671224 31.8611849,45.5896122 32.0509114,44.3867928 L34.1281153,44.3867928 C34.2433976,44.3867928 34.3382825,44.3493144 34.4123369,44.2740943 C34.4866078,44.1990936 34.5237649,44.1029839 34.5237649,43.9860724 L34.5237649,42.7080767 C34.5237649,42.5909458 34.4866078,42.4949677 34.4123369,42.4197476 Z" id="Path" fill="#FD8C04" fill-rule="nonzero"></path>
                                    <g id="Group-175" transform="translate(20.354129, 12.091390)">
                                        <mask id="mask-20" fill="white">
                                            <use xlink:href="#path-19"></use>
                                        </mask>
                                        <g id="Clip-174"></g>
                                        <path d="M15.8601974,0.286134801 L1.20175976,1.38239973 C0.517947632,1.433746 0.00389759924,2.03717446 0.0545663893,2.73056861 L0.0545663893,2.73056861 C0.102203713,3.39236505 0.64743454,3.89705067 1.29140455,3.89705067 L1.29140455,3.89705067 C1.32258534,3.89705067 1.35376613,3.89617295 1.38451386,3.89310095 L1.38451386,3.89310095 L16.0420854,2.79639717 C16.7263306,2.74548975 17.2399476,2.14250015 17.1897118,1.44866714 L17.1897118,1.44866714 C17.1416414,0.788187274 16.5894816,0.282185088 15.955039,0.282185088 L15.955039,0.282185088 C15.9234251,0.282185088 15.8918113,0.283501659 15.8601974,0.286134801" id="Fill-173" fill="url(#linearGradient-21)" mask="url(#mask-20)"></path>
                                    </g>
                                    <g id="Group-178" transform="translate(19.921063, 14.724532)">
                                        <mask id="mask-23" fill="white">
                                            <use xlink:href="#path-22"></use>
                                        </mask>
                                        <g id="Clip-177"></g>
                                        <path d="M1.61100768,0.00789942702 C0.935856883,0.00789942702 0.382397792,0.555593034 0.368972728,1.24284319 L0.368972728,1.24284319 C0.356413797,1.93799276 0.90207769,2.51201779 1.58762209,2.52518351 L1.58762209,2.52518351 L16.2824373,2.80912402 L16.3066891,2.80912402 C16.9818399,2.80912402 17.535732,2.26143041 17.548724,1.57418026 L17.548724,1.57418026 C17.561283,0.879469542 17.0156191,0.305005655 16.3300747,0.291839943 L16.3300747,0.291839943 L1.63482635,0.00789942702 L1.61100768,0.00789942702 Z" id="Fill-176" fill="url(#linearGradient-24)" mask="url(#mask-23)"></path>
                                    </g>
                                </g>
                                <g id="Group-60" transform="translate(58.000000, 31.000000)">
                                    <g id="Group-154" transform="translate(8.445205, 0.000000)">
                                        <mask id="mask-26" fill="white">
                                            <use xlink:href="#path-25"></use>
                                        </mask>
                                        <g id="Clip-153"></g>
                                        <path d="M8.56000712,0.318366639 C7.89732243,0.857342015 6.68358811,1.54844332 4.93384718,1.38455508 L4.93384718,1.38455508 C2.1408595,1.12290893 0.589316969,0.653723287 0.0926333436,1.663714 L0.0926333436,1.663714 L5.86493104,11.4622445 L9.15433843,14.305588 L12.4437458,11.4622445 L18.2157796,1.663714 C17.719096,0.653723287 16.1678174,1.12290893 13.3745658,1.38455508 L13.3745658,1.38455508 C11.6250888,1.54844332 10.4113544,0.857342015 9.74866974,0.318366639 L9.74866974,0.318366639 C9.57316782,0.175650559 9.36362117,0.104031135 9.15433843,0.104031135 L9.15433843,0.104031135 C8.94505569,0.104031135 8.73577295,0.175650559 8.56000712,0.318366639" id="Fill-152" fill="url(#linearGradient-27)" mask="url(#mask-26)"></path>
                                    </g>
                                    <g id="Group-160" transform="translate(12.139982, 1.045539)">
                                        <mask id="mask-29" fill="white">
                                            <use xlink:href="#path-28"></use>
                                        </mask>
                                        <g id="Clip-159"></g>
                                        <path d="M1.23906994,0.339016035 C0.878037419,0.305036016 0.538381826,0.267657995 0.218519682,0.230802744 L0.218519682,0.230802744 L3.84758267,8.23675658 L3.12683719,0.17512779 C2.58898319,0.327515105 1.96034324,0.406453303 1.23906994,0.339016035" id="Fill-158" fill="url(#radialGradient-30)" mask="url(#mask-29)"></path>
                                    </g>
                                    <g id="Group-166" transform="translate(17.946061, 1.045539)">
                                        <mask id="mask-32" fill="white">
                                            <use xlink:href="#path-31"></use>
                                        </mask>
                                        <g id="Clip-165"></g>
                                        <path d="M3.87371002,0.339016035 C2.95740527,0.424750236 2.18968334,0.274976768 1.56948859,0.0368552513 L1.56948859,0.0368552513 L0.090785955,8.23675658 L1.35255238,8.8899571 L7.00503373,0.00914846663 C6.22147704,0.0488789503 5.18641159,0.215903812 3.87371002,0.339016035" id="Fill-164" fill="url(#radialGradient-33)" mask="url(#mask-32)"></path>
                                    </g>
                                    <g id="Group-169" transform="translate(0.000000, 7.985827)">
                                        <mask id="mask-35" fill="white">
                                            <use xlink:href="#path-34"></use>
                                        </mask>
                                        <g id="Clip-168"></g>
                                        <path d="M17.5995435,0.455855023 L13.9546458,0.133828998 L13.9546458,0.777619663 L13.848289,0.787029515 C13.848289,0.787029515 -1.89726811,13.0295076 0.22221446,31.3233042 L0.22221446,31.3233042 C0.22221446,31.3233042 -0.216408381,38.3430533 17.5995435,38.0665083 L17.5995435,38.0665083 C35.4157594,38.3430533 34.9766087,31.3233042 34.9766087,31.3233042 L34.9766087,31.3233042 C37.0963552,13.0295076 21.351062,0.787029515 21.351062,0.787029515 L21.351062,0.787029515 L21.2444413,0.777619663 L21.2444413,0.133828998 L17.5995435,0.455855023 Z" id="Fill-167" fill="url(#linearGradient-36)" mask="url(#mask-35)"></path>
                                        <g id="money" mask="url(#mask-35)" fill="#FD8C04" fill-rule="nonzero">
                                            <g transform="translate(14.251284, 14.898931)" id="Path">
                                                <path d="M6.71974425,2.38058788 C6.67458879,2.33581267 6.61679192,2.31346428 6.54653836,2.31346428 L5.25811674,2.31346428 C5.17266182,1.90065932 5.01191262,1.54232694 4.77584274,1.23885923 L6.53138978,1.23885923 C6.60182807,1.23885923 6.65946659,1.21648469 6.7047804,1.17181404 C6.74975112,1.12706497 6.77234204,1.06979557 6.77234204,1.00016266 L6.77234204,0.238801121 C6.77234204,0.169115943 6.74977751,0.111951095 6.7047804,0.0671497461 C6.65941381,0.0224529513 6.60177528,0 6.53133699,0 L0.262355579,0 C0.191996463,0 0.134278763,0.0224529513 0.0890441328,0.0671236076 C0.0439414585,0.111924956 0.0212713607,0.169089804 0.0212713607,0.238774983 L0.0212713607,1.23130521 C0.0212713607,1.2959718 0.0451290655,1.35193428 0.0928444751,1.39919265 C0.140559885,1.44645101 0.197063586,1.47008019 0.262355579,1.47008019 L1.35492762,1.47008019 C2.41477448,1.47008019 3.08791012,1.75109495 3.37420258,2.31333358 L0.262355579,2.31333358 C0.191996463,2.31333358 0.13419959,2.33568198 0.0890441328,2.38045719 C0.0439414585,2.42528468 0.0212713607,2.48242339 0.0212713607,2.55210857 L0.0212713607,3.31336555 C0.0212713607,3.38299846 0.0438358935,3.44024172 0.0890441328,3.48491238 C0.134278763,3.52973986 0.192102028,3.55203598 0.262355579,3.55203598 L3.47984682,3.55203598 C3.3693202,3.96010988 3.111847,4.27100092 2.70742724,4.48494435 C2.30298108,4.69891392 1.76937606,4.8058987 1.1062691,4.8058987 L0.262355579,4.8058987 C0.197063586,4.8058987 0.140559885,4.82955402 0.0928444751,4.87678625 C0.0451026742,4.92407075 0.0212713607,4.98005937 0.0212713607,5.04467368 L0.0212713607,5.99253325 C0.0212713607,6.0573044 0.0438358935,6.11201223 0.0890441328,6.15673516 C1.05346018,7.17163993 2.30430064,8.59192632 3.84140717,10.4179603 C3.88666819,10.4777128 3.94942662,10.5075107 4.02981442,10.5075107 L5.499069,10.5075107 C5.60466046,10.5075107 5.67755314,10.4628662 5.71761508,10.3731328 C5.76783766,10.2835824 5.75799372,10.1989983 5.68744986,10.1193805 C4.22083441,8.33822627 3.06790554,7.00490259 2.22900636,6.11935714 C3.08297496,6.0198741 3.77619435,5.74617811 4.30869093,5.29850443 C4.84110834,4.85077846 5.16506113,4.26857004 5.28068127,3.55216668 L6.54653836,3.55216668 C6.61679192,3.55216668 6.67461518,3.52984442 6.71974425,3.48504307 C6.76500527,3.44037241 6.78764897,3.38312915 6.78764897,3.31349625 L6.78764897,2.55231767 C6.78764897,2.48255408 6.76500527,2.42538923 6.71974425,2.38058788 Z"></path>
                                            </g>
                                        </g>
                                    </g>
                                    <path d="M17.5995435,8.44168224 L13.9546458,8.11965621 L13.9546458,8.76344688 L13.848289,8.77285673 C13.848289,8.77285673 -1.89726811,21.0153348 0.22221446,39.3091314 L0.22221446,39.3091314 C0.22221446,39.3091314 -0.216408381,46.3288805 17.5995435,46.0523355 L17.5995435,46.0523355 C35.4157594,46.3288805 34.9766087,39.3091314 34.9766087,39.3091314 L34.9766087,39.3091314 C37.0963552,21.0153348 21.351062,8.77285673 21.351062,8.77285673 L21.351062,8.77285673 L21.2444413,8.76344688 L21.2444413,8.11965621 L17.5995435,8.44168224 Z" id="Fill-167" fill="url(#linearGradient-36)"></path>
                                    <path d="M20.9710279,25.2653465 C20.9258724,25.2205713 20.8680755,25.1982229 20.797822,25.1982229 L19.5094004,25.1982229 C19.4239455,24.7854179 19.2631962,24.4270855 19.0271264,24.1236178 L20.7826734,24.1236178 C20.8531117,24.1236178 20.9107502,24.1012433 20.956064,24.0565726 C21.0010347,24.0118235 21.0236257,23.9545541 21.0236257,23.8849212 L21.0236257,23.1235597 C21.0236257,23.0538745 21.0010611,22.9967097 20.956064,22.9519083 C20.9106974,22.9072115 20.8530589,22.8847586 20.7826206,22.8847586 L14.5136392,22.8847586 C14.4432801,22.8847586 14.3855624,22.9072115 14.3403278,22.9518822 C14.2952251,22.9966835 14.272555,23.0538484 14.272555,23.1235336 L14.272555,24.1160638 C14.272555,24.1807304 14.2964127,24.2366929 14.3441281,24.2839512 C14.3918435,24.3312096 14.4483472,24.3548388 14.5136392,24.3548388 L15.6062112,24.3548388 C16.6660581,24.3548388 17.3391938,24.6358535 17.6254862,25.1980922 L14.5136392,25.1980922 C14.4432801,25.1980922 14.3854832,25.2204406 14.3403278,25.2652158 C14.2952251,25.3100433 14.272555,25.367182 14.272555,25.4368671 L14.272555,26.1981241 C14.272555,26.267757 14.2951195,26.3250003 14.3403278,26.369671 C14.3855624,26.4144984 14.4433857,26.4367946 14.5136392,26.4367946 L17.7311305,26.4367946 C17.6206038,26.8448685 17.3631306,27.1557595 16.9587109,27.3697029 C16.5542647,27.5836725 16.0206597,27.6906573 15.3575527,27.6906573 L14.5136392,27.6906573 C14.4483472,27.6906573 14.3918435,27.7143126 14.3441281,27.7615448 C14.2963863,27.8088293 14.272555,27.8648179 14.272555,27.9294323 L14.272555,28.8772918 C14.272555,28.942063 14.2951195,28.9967708 14.3403278,29.0414937 C15.3047438,30.0563985 16.5555843,31.4766849 18.0926908,33.3027189 C18.1379518,33.3624714 18.2007103,33.3922693 18.2810981,33.3922693 L19.7503526,33.3922693 C19.8559441,33.3922693 19.9288368,33.3476248 19.9688987,33.2578914 C20.0191213,33.168341 20.0092773,33.0837569 19.9387335,33.0041391 C18.472118,31.2229849 17.3191892,29.8896612 16.48029,29.0041157 C17.3342586,28.9046327 18.027478,28.6309367 18.5599746,28.183263 C19.092392,27.735537 19.4163448,27.1533286 19.5319649,26.4369253 L20.797822,26.4369253 C20.8680755,26.4369253 20.9258988,26.414603 20.9710279,26.3698016 C21.0162889,26.325131 21.0389326,26.2678877 21.0389326,26.1982548 L21.0389326,25.4370763 C21.0389326,25.3673127 21.0162889,25.3101478 20.9710279,25.2653465 Z" id="Path" fill="#FD8C04" fill-rule="nonzero"></path>
                                    <g id="Group-175" transform="translate(12.403895, 7.201673)">
                                        <mask id="mask-38" fill="white">
                                            <use xlink:href="#path-37"></use>
                                        </mask>
                                        <g id="Clip-174"></g>
                                        <path d="M9.66527334,0.170422864 L0.732357631,0.823361997 C0.315639541,0.853944014 0.00237521394,1.21334806 0.0332529951,1.62633598 L0.0332529951,1.62633598 C0.0622833877,2.0205042 0.394549426,2.32109668 0.786987552,2.32109668 L0.786987552,2.32109668 C0.805989263,2.32109668 0.824990975,2.32057391 0.843728774,2.31874421 L0.843728774,2.31874421 L9.77611666,1.6655437 C10.1930987,1.63522306 10.5060991,1.2760804 10.4754852,0.862831095 L10.4754852,0.862831095 C10.4461909,0.46944703 10.1097023,0.168070401 9.72307021,0.168070401 L9.72307021,0.168070401 C9.70380459,0.168070401 9.68453897,0.168854555 9.66527334,0.170422864" id="Fill-173" fill="url(#linearGradient-39)" mask="url(#mask-38)"></path>
                                    </g>
                                    <g id="Group-178" transform="translate(12.139982, 8.769981)">
                                        <mask id="mask-41" fill="white">
                                            <use xlink:href="#path-40"></use>
                                        </mask>
                                        <g id="Clip-177"></g>
                                        <path d="M0.981755095,0.00470492569 C0.570315258,0.00470492569 0.233034879,0.330913107 0.224853586,0.740241643 L0.224853586,0.740241643 C0.217200119,1.1542751 0.54973007,1.49616637 0.967503811,1.50400791 L0.967503811,1.50400791 L9.92258819,1.67312385 L9.93736729,1.67312385 C10.3488071,1.67312385 10.6863514,1.34691567 10.6942688,0.937587137 L10.6942688,0.937587137 C10.7019223,0.523815061 10.3693923,0.181662409 9.95161858,0.173820866 L9.95161858,0.173820866 L0.996270291,0.00470492569 L0.981755095,0.00470492569 Z" id="Fill-176" fill="url(#linearGradient-42)" mask="url(#mask-41)"></path>
                                    </g>
                                </g>
                            </g>
                        </g>
                    </g>
                </g>
            </g>
        </g>
    </g>
</svg>